<?xml version="1.0" encoding="UTF-8" standalone="no"?>
<svg width="16px" height="16px" viewBox="0 0 16 16" version="1.1" xmlns="http://www.w3.org/2000/svg" xmlns:xlink="http://www.w3.org/1999/xlink" xmlns:sketch="http://www.bohemiancoding.com/sketch/ns">
    <!-- Generator: Sketch 3.3.3 (12081) - http://www.bohemiancoding.com/sketch -->
    <title>ic_hide_white</title>
    <desc>Created with Sketch.</desc>
    <defs></defs>
    <g id="UI" stroke="none" stroke-width="1" fill="none" fill-rule="evenodd" sketch:type="MSPage">
        <g id="assets" sketch:type="MSArtboardGroup" transform="translate(-120.000000, -83.000000)">
            <g id="ic_hide_white" sketch:type="MSLayerGroup" transform="translate(120.000000, 83.000000)">
                <path d="M2.70710678,14.7071068 L14.7071068,2.70710678 C15.0976311,2.31658249 15.0976311,1.68341751 14.7071068,1.29289322 C14.3165825,0.902368927 13.6834175,0.902368927 13.2928932,1.29289322 L1.29289322,13.2928932 C0.902368927,13.6834175 0.902368927,14.3165825 1.29289322,14.7071068 C1.68341751,15.0976311 2.31658249,15.0976311 2.70710678,14.7071068 L2.70710678,14.7071068 Z" id="Shape" fill="#FFFFFF" sketch:type="MSShapeGroup"></path>
                <path d="M14.7071068,13.2928932 L2.70710678,1.29289322 C2.31658249,0.902368927 1.68341751,0.902368927 1.29289322,1.29289322 C0.902368927,1.68341751 0.902368927,2.31658249 1.29289322,2.70710678 L13.2928932,14.7071068 C13.6834175,15.0976311 14.3165825,15.0976311 14.7071068,14.7071068 C15.0976311,14.3165825 15.0976311,13.6834175 14.7071068,13.2928932 L14.7071068,13.2928932 Z" id="Shape" fill="#FFFFFF" sketch:type="MSShapeGroup"></path>
                <rect id="bounds" sketch:type="MSShapeGroup" x="0" y="0" width="16" height="16"></rect>
            </g>
        </g>
    </g>
</svg>