<?xml version="1.0" encoding="UTF-8" standalone="no"?>
<svg width="30px" height="30px" viewBox="0 0 30 30" version="1.1" xmlns="http://www.w3.org/2000/svg" xmlns:xlink="http://www.w3.org/1999/xlink" xmlns:sketch="http://www.bohemiancoding.com/sketch/ns">
    <!-- Generator: Sketch 3.3.3 (12081) - http://www.bohemiancoding.com/sketch -->
    <title>ic_main_link</title>
    <desc>Created with Sketch.</desc>
    <defs></defs>
    <g id="UI" stroke="none" stroke-width="1" fill="none" fill-rule="evenodd" sketch:type="MSPage">
        <g id="assets" sketch:type="MSArtboardGroup" transform="translate(-26.000000, -26.000000)">
            <g id="ic_main_link" sketch:type="MSLayerGroup" transform="translate(26.000000, 26.000000)">
                <rect id="bounds" sketch:type="MSShapeGroup" x="0" y="0" width="30" height="30"></rect>
                <path d="M16.1612812,21.431271 L11.9097866,25.6827656 C9.96154215,27.63101 6.79293384,27.6281267 4.84314575,25.6783386 C2.89332222,23.7285151 2.89372926,20.5566873 4.83871881,18.6116977 L9.09021337,14.3602032 C11.0384579,12.4119587 14.2070662,12.414842 16.1568542,14.3646301 C16.5473785,14.7551544 17.1805435,14.7551544 17.5710678,14.3646301 C17.9615921,13.9741058 17.9615921,13.3409409 17.5710678,12.9504166 C14.8408067,10.2201555 10.4058696,10.2161198 7.67599981,12.9459896 L3.42450525,17.1974842 C0.698548363,19.9234411 0.697978807,24.3615988 3.42893219,27.0925522 C6.15919328,29.8228133 10.5941304,29.8268489 13.3240002,27.0969791 L17.5754947,22.8454846 C17.966019,22.4549603 17.966019,21.8217953 17.5754947,21.431271 C17.1849705,21.0407467 16.5518055,21.0407467 16.1612812,21.431271 L16.1612812,21.431271 Z" id="Shape" fill="#90D5F8" sketch:type="MSShapeGroup"></path>
                <path d="M14.3387188,8.59021337 L18.5902134,4.33871881 C20.5384579,2.39047433 23.7070662,2.39335766 25.6568542,4.34314575 C27.6066778,6.29296928 27.6062707,9.46479708 25.6612812,11.4097866 L21.4097866,15.6612812 C19.4615421,17.6095257 16.2929338,17.6066423 14.3431458,15.6568542 C13.9526215,15.26633 13.3194565,15.26633 12.9289322,15.6568542 C12.5384079,16.0473785 12.5384079,16.6805435 12.9289322,17.0710678 C15.6591933,19.8013289 20.0941304,19.8053645 22.8240002,17.0754947 L27.0754947,12.8240002 C29.8014516,10.0980433 29.8020212,5.65988557 27.0710678,2.92893219 C24.3408067,0.198671091 19.9058696,0.19463545 17.1759998,2.92450525 L12.9245053,7.17599981 C12.533981,7.5665241 12.533981,8.19968908 12.9245053,8.59021337 C13.3150295,8.98073767 13.9481945,8.98073767 14.3387188,8.59021337 L14.3387188,8.59021337 Z" id="Shape" fill="#90D5F8" sketch:type="MSShapeGroup"></path>
            </g>
        </g>
    </g>
</svg>