<?xml version="1.0" encoding="UTF-8" standalone="no"?>
<svg width="30px" height="30px" viewBox="0 0 30 30" version="1.1" xmlns="http://www.w3.org/2000/svg" xmlns:xlink="http://www.w3.org/1999/xlink" xmlns:sketch="http://www.bohemiancoding.com/sketch/ns">
    <!-- Generator: Sketch 3.3.3 (12081) - http://www.bohemiancoding.com/sketch -->
    <title>ic_main_files</title>
    <desc>Created with Sketch.</desc>
    <defs></defs>
    <g id="UI" stroke="none" stroke-width="1" fill="none" fill-rule="evenodd" sketch:type="MSPage">
        <g id="assets" sketch:type="MSArtboardGroup" transform="translate(-124.000000, -26.000000)">
            <g id="ic_main_files" sketch:type="MSLayerGroup" transform="translate(124.000000, 26.000000)">
                <rect id="bounds" sketch:type="MSShapeGroup" x="0" y="0" width="30" height="30"></rect>
                <path d="M24.9950534,28 C24.9984694,28 25.0000004,7.49999981 25.0000004,7.49999981 L18.5000004,1.99161703 L18.0000004,1.99161701 L4.99803585,2 C4.99855645,2 5,28.008383 5,28.008383 C5,27.997683 24.9950534,28 24.9950534,28 Z M3,28.008383 L3,1.99161703 C3,0.891677316 3.89629715,0 4.99803585,0 L19.0318993,0 L27,6.9723394 L27,27.9967295 C27,29.1031052 26.1029738,30 24.9950534,30 L5.00494659,30 C3.89764516,30 3,29.1021596 3,28.008383 Z" id="Shape" fill="#90D5F8" sketch:type="MSShapeGroup"></path>
                <path d="M18,3 L18,7.00208688 C18,8.10550383 18.8853207,8.85244656 19.9646244,8.6725626 L24,8 L18,3 Z" id="Path-16" fill="#90D5F8" sketch:type="MSShapeGroup"></path>
                <path d="M9,14 L21,14 C21.5522847,14 22,13.5522847 22,13 C22,12.4477153 21.5522847,12 21,12 L9,12 C8.44771525,12 8,12.4477153 8,13 C8,13.5522847 8.44771525,14 9,14 L9,14 Z" id="Shape" fill="#90D5F8" sketch:type="MSShapeGroup"></path>
                <path d="M9,18 L21,18 C21.5522847,18 22,17.5522847 22,17 C22,16.4477153 21.5522847,16 21,16 L9,16 C8.44771525,16 8,16.4477153 8,17 C8,17.5522847 8.44771525,18 9,18 L9,18 Z" id="Shape" fill="#90D5F8" sketch:type="MSShapeGroup"></path>
                <path d="M9,22 L21,22 C21.5522847,22 22,21.5522847 22,21 C22,20.4477153 21.5522847,20 21,20 L9,20 C8.44771525,20 8,20.4477153 8,21 C8,21.5522847 8.44771525,22 9,22 L9,22 Z" id="Shape" fill="#90D5F8" sketch:type="MSShapeGroup"></path>
            </g>
        </g>
    </g>
</svg>