<?xml version="1.0" encoding="UTF-8" standalone="no"?>
<svg width="16px" height="16px" viewBox="0 0 16 16" version="1.1" xmlns="http://www.w3.org/2000/svg" xmlns:xlink="http://www.w3.org/1999/xlink" xmlns:sketch="http://www.bohemiancoding.com/sketch/ns">
    <!-- Generator: Sketch 3.3.3 (12081) - http://www.bohemiancoding.com/sketch -->
    <title>ic_options_16</title>
    <desc>Created with Sketch.</desc>
    <defs></defs>
    <g id="UI" stroke="none" stroke-width="1" fill="none" fill-rule="evenodd" sketch:type="MSPage">
        <g id="assets" sketch:type="MSArtboardGroup" transform="translate(-146.000000, -84.000000)">
            <g id="ic_options_16" sketch:type="MSLayerGroup" transform="translate(146.000000, 84.000000)">
                <path d="M15.4146145,6.83496814 L13.8296588,6.57059351 C13.7144834,6.0995897 13.5464524,5.64941176 13.3277085,5.22947931 L14.3423454,3.97146767 C14.5581429,3.70553054 14.5483664,3.32300876 14.3208951,3.06640197 L13.6905109,2.35691635 C13.4619681,2.10055511 13.0831394,2.04642572 12.794085,2.22899243 L11.4386317,3.08104481 C10.84251,2.66452753 10.167127,2.35691635 9.4386429,2.17843446 L9.17349404,0.584976862 C9.1178706,0.247544298 8.82586981,0 8.48313384,0 L7.53318267,0 C7.19113864,0 6.89817806,0.247544298 6.84375994,0.584976862 L6.5772272,2.17894785 C5.97492257,2.326403 5.41018387,2.56443839 4.89488575,2.87798706 L3.60585921,1.95801066 C3.3279875,1.75955112 2.94643565,1.79060018 2.70396473,2.03247484 L2.03284507,2.70412569 C1.79097681,2.94651375 1.75995089,3.328165 1.95891856,3.60595479 L2.88103569,4.89744852 C2.57046399,5.40892103 2.33486789,5.97046042 2.18743897,6.56737923 L0.584961357,6.83496814 C0.248051115,6.89059307 0,7.18260159 0,7.52536897 L0,8.47463103 C0,8.81739841 0.248051115,9.10940693 0.584961357,9.16503186 L2.18743897,9.43262077 C2.30855166,9.9237808 2.484328,10.3930435 2.71791524,10.8280653 L1.70798806,12.0790233 C1.49288245,12.3446926 1.5019447,12.7274599 1.72941603,12.9838212 L2.35928685,13.6933068 C2.58782958,13.9501814 2.96692615,14.0033733 3.25595826,13.8212084 L4.63096454,12.9574819 C5.21268938,13.3554278 5.8708853,13.6478827 6.5772272,13.8212084 L6.84375994,15.4150231 C6.89817806,15.7524557 7.19113864,16 7.53318267,16 L8.48313384,16 C8.82586981,16 9.1178706,15.7524557 9.17349404,15.4150231 L9.43917859,13.8212084 C10.0338941,13.6757845 10.5914009,13.4418339 11.1021679,13.1337986 L12.4448983,14.0927259 C12.7222566,14.2919667 13.1041433,14.2607614 13.3462794,14.0180162 L14.0176446,13.3466332 C14.2593343,13.1049371 14.2920343,12.7235537 14.0913256,12.4452282 L13.1353478,11.1048952 C13.4468123,10.5917709 13.6836137,10.029294 13.8301721,9.42965202 L15.4150386,9.16503186 C15.752998,9.10931765 16,8.81730913 16,8.47454175 L16,7.52536897 C15.9994866,7.18260159 15.7524623,6.89059307 15.4146145,6.83496814 L15.4146145,6.83496814 Z M7.9999814,13 C5.23912469,13 3,10.7604622 3,7.99990699 C3,5.23912857 5.23912469,3 7.9999814,3 C10.7603917,3 13,5.23912857 13,7.99990699 C13,10.7604622 10.7603917,13 7.9999814,13 L7.9999814,13 Z" id="Fill-1" fill="#FFFFFF" sketch:type="MSShapeGroup"></path>
                <rect id="bounds" sketch:type="MSShapeGroup" x="0" y="0" width="16" height="16"></rect>
            </g>
        </g>
    </g>
</svg>