<?xml version="1.0" encoding="UTF-8" standalone="no"?>
<svg width="16px" height="16px" viewBox="0 0 16 16" version="1.1" xmlns="http://www.w3.org/2000/svg" xmlns:xlink="http://www.w3.org/1999/xlink" xmlns:sketch="http://www.bohemiancoding.com/sketch/ns">
    <!-- Generator: Sketch 3.3.2 (12043) - http://www.bohemiancoding.com/sketch -->
    <title>feedback_icon</title>
    <desc>Created with Sketch.</desc>
    <defs></defs>
    <g id="UI" stroke="none" stroke-width="1" fill="none" fill-rule="evenodd" sketch:type="MSPage">
        <g id="assets" sketch:type="MSArtboardGroup" transform="translate(-108.000000, -115.000000)">
            <g id="feedback_icon" sketch:type="MSLayerGroup" transform="translate(108.000000, 115.000000)">
                <rect id="bounds" sketch:type="MSShapeGroup" x="0" y="0" width="16" height="16"></rect>
                <path d="M13.1744829,7.76125686 C13.1598443,8.09306474 13.1232484,8.42364778 13.064694,8.7530159 C13.0061397,9.08238402 12.9207493,9.3983287 12.8085201,9.70085942 C12.696291,10.0033901 12.5547868,10.2851786 12.3840033,10.5462334 C12.2132199,10.8072881 12.0119424,11.0329629 11.7801648,11.2232644 C11.5483872,11.413566 11.282457,11.5636093 10.982366,11.6733986 C10.6822751,11.783188 10.3468126,11.8380819 9.97596845,11.8380819 C9.55632907,11.8380819 9.19402957,11.747812 8.88905909,11.5672694 C8.58408861,11.3867269 8.35353438,11.1281158 8.1973895,10.7914284 C7.95341311,11.1329953 7.66918489,11.3891667 7.3446963,11.5599502 C7.0202077,11.7307336 6.66766712,11.8161241 6.28706396,11.8161241 C5.93085843,11.8161241 5.61247403,11.7380528 5.33190118,11.5819079 C5.05132834,11.4257631 4.81833439,11.2049677 4.63291234,10.9195154 C4.44749028,10.634063 4.31574501,10.2900615 4.23767257,9.88750042 C4.15960013,9.48493938 4.14496176,9.0348097 4.19375704,8.53709788 C4.26207043,7.91251833 4.39747529,7.34772148 4.59997569,6.84269036 C4.80247609,6.33765924 5.053768,5.90704738 5.35385895,5.55084186 C5.6539499,5.19463634 5.99551172,4.92016702 6.37855464,4.72742568 C6.76159757,4.53468433 7.16781215,4.43831511 7.59721059,4.43831511 C7.8802232,4.43831511 8.12907538,4.46027265 8.3437746,4.5041884 C8.55847381,4.54810415 8.75243213,4.60665761 8.92565536,4.67985052 C9.0988786,4.75304344 9.25868073,4.83843389 9.40506656,4.93602444 C9.55145239,5.033615 9.69783603,5.13364382 9.84422186,5.2361139 L9.47093986,9.46664326 C9.44166269,9.71061964 9.44532228,9.90945741 9.48191874,10.0631625 C9.5185152,10.2168677 9.57584879,10.3376342 9.65392123,10.4254657 C9.73199368,10.5132972 9.82226358,10.5742903 9.92473367,10.608447 C10.0272037,10.6426037 10.132112,10.6596818 10.2394616,10.6596818 C10.4785585,10.6596818 10.6944743,10.58649 10.8872157,10.4401042 C11.079957,10.2937183 11.2470784,10.0924408 11.3885847,9.83626563 C11.530091,9.58009043 11.6410985,9.27878411 11.7216108,8.93233765 C11.802123,8.58589118 11.8496976,8.21261291 11.8643362,7.81249164 C11.9033724,7.00736957 11.8435991,6.27911099 11.6850145,5.62769404 C11.5264298,4.97627709 11.2641592,4.42001928 10.8981946,3.95890391 C10.53223,3.49778854 10.0601428,3.14158836 9.48191874,2.89029269 C8.90369471,2.63899701 8.21691149,2.51335106 7.42154847,2.51335106 C6.67498073,2.51335106 6.00283588,2.65851483 5.40509373,2.94884673 C4.80735159,3.23917862 4.29500887,3.64173362 3.86805019,4.15652379 C3.44109152,4.67131396 3.10684889,5.28246564 2.86531227,5.98999716 C2.62377565,6.69752867 2.48349133,7.46604276 2.44445511,8.29556247 C2.40541889,9.18363651 2.47739084,9.96434923 2.66037313,10.6377241 C2.84335542,11.3110989 3.12636378,11.8771156 3.5094067,12.3357912 C3.89244963,12.7944668 4.3730759,13.1396882 4.95129993,13.3714658 C5.52952396,13.6032433 6.19434964,13.7191304 6.9457969,13.7191304 C7.15561659,13.7191304 7.37153245,13.7069317 7.59355096,13.6825341 C7.81556947,13.6581365 8.0327052,13.6239803 8.24496465,13.5800645 C8.45722411,13.5361488 8.65850161,13.4836947 8.84880319,13.4227006 C9.03910477,13.3617065 9.2123254,13.294614 9.36847029,13.221421 L9.64660198,14.3485863 C9.47581851,14.4608154 9.28064033,14.5571847 9.06106158,14.6376969 C8.84148283,14.7182091 8.61092861,14.7853016 8.36939199,14.8389764 C8.12785537,14.8926512 7.88144291,14.9329067 7.63014724,14.9597441 C7.37885156,14.9865815 7.14097816,15 6.91651988,15 C5.9503734,15 5.09036954,14.8536164 4.33648251,14.5608447 C3.58259548,14.268073 2.95314585,13.838681 2.44811473,13.2726558 C1.94308362,12.7066306 1.56614576,12.0064289 1.31728984,11.1720297 C1.06843393,10.3376304 0.965965388,9.37881762 1.00988114,8.29556247 C1.05379689,7.29525929 1.23555657,6.3693828 1.55516563,5.51790521 C1.87477469,4.66642763 2.31270574,3.92963 2.86897189,3.30749022 C3.42523805,2.68535044 4.09006373,2.19862485 4.86346887,1.84729886 C5.63687401,1.49597286 6.49931759,1.3203125 7.45082549,1.3203125 C8.40233339,1.3203125 9.24281943,1.47523518 9.97230882,1.78508519 C10.7017982,2.0949352 11.3105102,2.53164638 11.7984629,3.09523183 C12.2864157,3.65881727 12.6474953,4.33584159 12.8817127,5.12632507 C13.11593,5.91680856 13.2135191,6.79511037 13.1744829,7.76125686 L13.1744829,7.76125686 Z M5.81863164,8.53709788 C5.76495683,9.18119554 5.82107056,9.67036085 5.9869745,10.0046085 C6.15287844,10.3388561 6.42124844,10.5059775 6.79209255,10.5059775 C6.87992405,10.5059775 6.97629327,10.4876795 7.08120312,10.451083 C7.18611296,10.4144866 7.29346096,10.3498338 7.40325034,10.2571228 C7.51303971,10.1644118 7.61916784,10.0399857 7.72163793,9.88384079 C7.82410801,9.7276959 7.91925737,9.52763827 8.00708887,9.28366188 L8.31449758,5.82165429 C8.22666608,5.79237713 8.13395644,5.76919972 8.03636589,5.75212137 C7.93877533,5.73504302 7.83630679,5.72650398 7.72895718,5.72650398 C7.1678115,5.72650398 6.73232018,5.96559725 6.42247017,6.44379096 C6.11262016,6.92198468 5.91134266,7.61974667 5.81863164,8.53709788 L5.81863164,8.53709788 Z" id="@" fill="#90D5F8" sketch:type="MSShapeGroup"></path>
            </g>
        </g>
    </g>
</svg>