<?xml version="1.0" encoding="UTF-8" standalone="no"?>
<svg width="16px" height="16px" viewBox="0 0 16 16" version="1.1" xmlns="http://www.w3.org/2000/svg" xmlns:xlink="http://www.w3.org/1999/xlink" xmlns:sketch="http://www.bohemiancoding.com/sketch/ns">
    <!-- Generator: Sketch 3.3.2 (12043) - http://www.bohemiancoding.com/sketch -->
    <title>logo_nimbus</title>
    <desc>Created with Sketch.</desc>
    <defs></defs>
    <g id="UI" stroke="none" stroke-width="1" fill="none" fill-rule="evenodd" sketch:type="MSPage">
        <g id="assets" sketch:type="MSArtboardGroup" transform="translate(-36.000000, -115.000000)">
            <g id="logo_nimbus" sketch:type="MSLayerGroup" transform="translate(36.000000, 115.000000)">
                <path d="M15.2624113,15.9570107 L0.723687943,15.9570107 C0.349219858,15.9570107 0.0428368794,15.6495374 0.0428368794,15.2737367 L0.0428368794,0.683274021 C0.0428368794,0.30747331 0.349219858,0 0.723687943,0 L15.2624113,0 C15.6368794,0 15.9432624,0.30747331 15.9432624,0.683274021 L15.9432624,15.2737367 C15.9432624,15.6495374 15.6368794,15.9570107 15.2624113,15.9570107 L15.2624113,15.9570107 Z" id="Shape" fill="#1DB1CC" sketch:type="MSShapeGroup"></path>
                <path d="M13.3590922,10.1352313 L13.4567943,10.1352313 L13.4567943,10.151516 C13.3307801,10.3549039 12.9550638,10.3332669 12.6916879,10.3959004 C12.1599433,10.5425196 11.6280851,10.6891957 11.0963972,10.8358149 C9.7826383,11.3432028 8.6253617,11.9299075 7.51512057,12.6280427 C7.10275177,12.894121 6.69032624,13.1603132 6.27795745,13.4263915 C6.12175887,13.524669 5.97134752,13.6878007 5.77333333,13.7359715 C5.80436879,13.5805836 5.92970213,13.3682562 6.08260993,13.3286263 C6.07177305,13.366605 6.06093617,13.4046406 6.05004255,13.4426762 C6.4027234,13.1982918 6.75551773,12.9538505 7.10814184,12.7094662 C7.92958865,12.1902349 8.79852482,11.6473737 9.71273759,11.2431032 C10.4763688,10.905395 11.245617,10.6047544 12.1057021,10.3469893 C12.5234043,10.2764413 12.9413333,10.2058363 13.3590922,10.1352313 L13.3590922,10.1352313 Z M6.04998582,14.2084555 C6.05543262,14.1704769 6.0608227,14.1323843 6.0662695,14.0944057 C6.14371631,14.0136085 6.30649645,14.0193594 6.42439716,13.9477865 C6.73997163,13.7562989 7.02910638,13.5155587 7.35228369,13.3123986 C8.4866383,12.5991744 9.64221277,12.0127544 10.998695,11.4876014 C11.3339574,11.3578363 11.7504681,11.172726 12.1544965,11.145452 C11.9627234,11.4209253 10.8670638,11.6606406 10.4940709,11.8134662 C9.42099291,12.25321 8.40079433,12.7599715 7.4662695,13.3450249 C7.13089362,13.554847 6.45985816,14.1811246 6.04998582,14.2084555 L6.04998582,14.2084555 Z" id="Shape" fill="#FFFFFF" sketch:type="MSShapeGroup"></path>
                <path d="M6.34485694,1.70818505 C6.62417609,1.80014235 6.97436049,2.72227758 7.10650233,3.03356584 C7.37804843,3.6732242 7.67614772,4.32552313 7.86814772,5.05320996 C8.11081439,5.97283986 8.12670091,6.98397153 8.24897042,8.03535943 C8.33265836,8.75513167 8.17827538,10.6864626 7.8833534,10.9228754 C7.72108389,11.0529253 7.52522574,11.1026904 7.28925411,11.159573 C6.56403425,11.3342633 6.25243141,10.8718007 5.96397751,10.4495374 C5.40675765,9.63393594 4.96477184,8.65884698 4.56255907,7.68831317 C4.36318318,7.20717438 4.18219028,6.45711032 3.80091368,6.15777936 C3.78060162,6.16831317 3.76028957,6.17879004 3.73997751,6.18932384 C3.68477184,6.61175801 3.80862999,7.07194306 3.73997751,7.53047687 C3.5708995,8.66021352 3.65345269,10.2824769 3.81617609,11.3804413 C3.88630375,11.8537794 3.76375056,13.189694 3.31348106,13.0214377 C2.93209099,12.8210676 3.06287113,11.4749609 2.97833212,10.891331 C2.96312645,10.4285267 2.94786404,9.96560854 2.93265836,9.50280427 L2.93265836,5.51083274 C2.90786404,4.93363701 2.79240304,3.76654804 3.00885694,3.38072598 C3.5100768,3.39404982 4.01668673,4.79777936 4.22746687,5.22681851 C4.80119737,6.44162278 5.37504134,7.65682562 5.94877184,8.87162989 C6.29186404,9.5685694 6.56182148,10.2919858 7.18264418,10.7019502 C7.25072928,10.2574804 7.37481439,9.81221352 7.45685694,9.31342349 C7.52045978,8.92697509 7.53475765,8.36481139 7.47206262,7.97227046 C7.45685694,7.61463345 7.44159453,7.2569395 7.42638886,6.89930249 C7.28148106,6.0027331 7.23160872,5.1332669 7.03036049,4.31162989 C6.87575056,3.68045552 6.71268673,3.0464911 6.48199169,2.48130961 C6.4145307,2.31607117 6.19450233,2.01218505 6.28397751,1.77127402 C6.30423283,1.75026335 6.32454489,1.72919573 6.34485694,1.70818505 L6.34485694,1.70818505 Z" id="Shape" fill="#FFFFFF" sketch:type="MSShapeGroup"></path>
                <rect id="bounds" sketch:type="MSShapeGroup" x="0" y="0" width="16" height="16"></rect>
            </g>
        </g>
    </g>
</svg>