<?xml version="1.0" encoding="UTF-8" standalone="no"?>
<svg width="24px" height="24px" viewBox="0 0 24 24" version="1.1" xmlns="http://www.w3.org/2000/svg" xmlns:xlink="http://www.w3.org/1999/xlink" xmlns:sketch="http://www.bohemiancoding.com/sketch/ns">
    <!-- Generator: Sketch 3.3.3 (12081) - http://www.bohemiancoding.com/sketch -->
    <title>ic_list_svg</title>
    <desc>Created with Sketch.</desc>
    <defs></defs>
    <g id="UI" stroke="none" stroke-width="1" fill="none" fill-rule="evenodd" sketch:type="MSPage">
        <g id="assets" sketch:type="MSArtboardGroup" transform="translate(-372.000000, -195.000000)">
            <g id="ic_list_svg" sketch:type="MSLayerGroup" transform="translate(372.000000, 195.000000)">
                <rect id="bounds" sketch:type="MSShapeGroup" x="0" y="0" width="24" height="24"></rect>
                <path d="M3.60355442,23 L3.60355442,23 L19.3964456,23 C19.7278522,23 20,22.7284426 20,22.3973836 L20,5.57787152 L20.3375829,6.32700673 L14.0295032,0.749135212 L14.6919203,1 L3.60744048,1 C3.26946656,1 3,1.26720273 3,1.59329362 L3,22.4067064 C3,22.7301845 3.27097392,23 3.60355442,23 L3.60355442,23 Z M3.60355442,24 C2.71793577,24 2,23.2817277 2,22.4067064 L2,1.59329362 C2,0.713341853 2.71873759,0 3.60744048,0 L14.6919203,0 L21,5.57787152 L21,22.3973836 C21,23.2824842 20.2783785,24 19.3964456,24 L3.60355442,24 L3.60355442,24 Z" id="Shape" fill="#8F8F8F" sketch:type="MSShapeGroup"></path>
                <rect id="Rectangle-179" fill="#8F8F8F" sketch:type="MSShapeGroup" x="0" y="14" width="24" height="10" rx="2"></rect>
                <path d="M4,12.1067209 C4,12.1067209 7.73908615,8 9.61408615,8 C11.4890862,8 14.0404234,10.0485101 16.1280422,10.0485101 C18.215661,10.0485101 19,8 19,8 L19,13 L4,13 L4,12.1067209 Z" id="Path-13" fill="#8F8F8F" sketch:type="MSShapeGroup"></path>
                <circle id="Oval-33" fill="#8F8F8F" sketch:type="MSShapeGroup" cx="14.5" cy="5.5" r="2.5"></circle>
                <path d="M7.45703125,20.5078125 C7.45703125,20.4088537 7.44270848,20.3196619 7.4140625,20.2402344 C7.38541652,20.1608069 7.33007854,20.0872399 7.24804688,20.0195312 C7.16601521,19.9518226 7.0527351,19.885417 6.90820312,19.8203125 C6.76367115,19.755208 6.57682406,19.6861983 6.34765625,19.6132812 C6.08723828,19.5299475 5.84179803,19.4361984 5.61132812,19.3320312 C5.38085822,19.2278641 5.17903732,19.1048184 5.00585938,18.9628906 C4.83268143,18.8209628 4.69596404,18.657553 4.59570312,18.4726562 C4.49544221,18.2877595 4.4453125,18.0716158 4.4453125,17.8242188 C4.4453125,17.5872384 4.49674428,17.3704437 4.59960938,17.1738281 C4.70247447,16.9772126 4.84700428,16.8098965 5.03320312,16.671875 C5.21940197,16.5338535 5.44075393,16.4264327 5.69726562,16.3496094 C5.95377732,16.2727861 6.23567555,16.234375 6.54296875,16.234375 C6.85807449,16.234375 7.14452996,16.2779944 7.40234375,16.3652344 C7.66015754,16.4524744 7.88020742,16.574218 8.0625,16.7304688 C8.24479258,16.8867195 8.38541617,17.0722646 8.484375,17.2871094 C8.58333383,17.5019542 8.6328125,17.7369779 8.6328125,17.9921875 L7.4609375,17.9921875 C7.4609375,17.8723952 7.44205748,17.7617193 7.40429688,17.6601562 C7.36653627,17.5585932 7.30859414,17.4713545 7.23046875,17.3984375 C7.15234336,17.3255205 7.05468809,17.2688804 6.9375,17.2285156 C6.82031191,17.1881508 6.68229246,17.1679688 6.5234375,17.1679688 C6.3697909,17.1679688 6.23632869,17.1848957 6.12304688,17.21875 C6.00976506,17.2526043 5.916016,17.2994789 5.84179688,17.359375 C5.76757775,17.4192711 5.71158873,17.4895829 5.67382812,17.5703125 C5.63606752,17.6510421 5.6171875,17.7369787 5.6171875,17.828125 C5.6171875,18.0156259 5.71288967,18.1725254 5.90429688,18.2988281 C6.09570408,18.4251308 6.37630023,18.5429682 6.74609375,18.6523438 C7.05599113,18.7486984 7.32877486,18.8554682 7.56445312,18.9726562 C7.80013139,19.0898443 7.996744,19.2226555 8.15429688,19.3710938 C8.31184975,19.519532 8.43098918,19.686197 8.51171875,19.8710938 C8.59244832,20.0559905 8.6328125,20.2656238 8.6328125,20.5 C8.6328125,20.7500013 8.58398486,20.9726553 8.48632812,21.1679688 C8.38867139,21.3632822 8.2500009,21.5279941 8.0703125,21.6621094 C7.8906241,21.7962246 7.67382939,21.8990882 7.41992188,21.9707031 C7.16601436,22.0423181 6.88281406,22.078125 6.5703125,22.078125 C6.38281156,22.078125 6.19531344,22.0618491 6.0078125,22.0292969 C5.82031156,21.9967446 5.64127689,21.9466149 5.47070312,21.8789062 C5.30012936,21.8111976 5.14192781,21.726563 4.99609375,21.625 C4.85025969,21.523437 4.72330783,21.4036465 4.61523438,21.265625 C4.50716092,21.1276035 4.42252635,20.970704 4.36132812,20.7949219 C4.3001299,20.6191397 4.26953125,20.4244802 4.26953125,20.2109375 L5.4453125,20.2109375 C5.4453125,20.3828134 5.47265598,20.5286452 5.52734375,20.6484375 C5.58203152,20.7682298 5.65820264,20.865234 5.75585938,20.9394531 C5.85351611,21.0136722 5.97135348,21.0677082 6.109375,21.1015625 C6.24739652,21.1354168 6.40104082,21.1523438 6.5703125,21.1523438 C6.72135492,21.1523438 6.85286402,21.1360679 6.96484375,21.1035156 C7.07682348,21.0709634 7.16927047,21.026042 7.2421875,20.96875 C7.31510453,20.911458 7.36914045,20.8430994 7.40429688,20.7636719 C7.4394533,20.6842444 7.45703125,20.5989588 7.45703125,20.5078125 L7.45703125,20.5078125 Z M11.5273438,20.5898438 L12.8164062,16.3125 L14.1210938,16.3125 L12.140625,22 L10.9179688,22 L8.9453125,16.3125 L10.2460938,16.3125 L11.5273438,20.5898438 Z M19.1054688,21.28125 C19.0377601,21.3619796 18.9453131,21.4485672 18.828125,21.5410156 C18.7109369,21.633464 18.563803,21.7194006 18.3867188,21.7988281 C18.2096345,21.8782556 18.0006522,21.9446612 17.7597656,21.9980469 C17.518879,22.0514326 17.2421891,22.078125 16.9296875,22.078125 C16.5624982,22.078125 16.2272151,22.0175787 15.9238281,21.8964844 C15.6204412,21.77539 15.3606782,21.5976574 15.1445312,21.3632812 C14.9283843,21.1289051 14.7610683,20.8411475 14.6425781,20.5 C14.5240879,20.1588525 14.4648438,19.7682314 14.4648438,19.328125 L14.4648438,18.9921875 C14.4648438,18.5520811 14.5214838,18.160809 14.6347656,17.8183594 C14.7480474,17.4759097 14.9082021,17.1875012 15.1152344,16.953125 C15.3222667,16.7187488 15.5729152,16.5403652 15.8671875,16.4179688 C16.1614598,16.2955723 16.4882795,16.234375 16.8476562,16.234375 C17.2174498,16.234375 17.537108,16.2805985 17.8066406,16.3730469 C18.0761732,16.4654953 18.3014314,16.5950512 18.4824219,16.7617188 C18.6634124,16.9283862 18.804687,17.127603 18.90625,17.359375 C19.007813,17.591147 19.0742186,17.8450507 19.1054688,18.1210938 L17.9648438,18.1210938 C17.9414061,17.9778639 17.9049482,17.8483079 17.8554688,17.7324219 C17.8059893,17.6165359 17.7382817,17.5175785 17.6523438,17.4355469 C17.5664058,17.3535152 17.4602871,17.2903648 17.3339844,17.2460938 C17.2076817,17.2018227 17.0572925,17.1796875 16.8828125,17.1796875 C16.4817688,17.1796875 16.1770844,17.3313787 15.96875,17.6347656 C15.7604156,17.9381526 15.65625,18.3880179 15.65625,18.984375 L15.65625,19.328125 C15.65625,19.9244821 15.7695301,20.3749985 15.9960938,20.6796875 C16.2226574,20.9843765 16.5546853,21.1367188 16.9921875,21.1367188 C17.1328132,21.1367188 17.2552078,21.1276043 17.359375,21.109375 C17.4635422,21.0911457 17.552734,21.0683595 17.6269531,21.0410156 C17.7011722,21.0136717 17.7630206,20.9837241 17.8125,20.9511719 C17.8619794,20.9186196 17.9023436,20.8867189 17.9335938,20.8554688 L17.9335938,19.875 L16.8671875,19.875 L16.8671875,19.0117188 L19.1054688,19.0117188 L19.1054688,21.28125 Z" id="mp3" fill-opacity="0.87" fill="#FFFFFF" sketch:type="MSShapeGroup"></path>
            </g>
        </g>
    </g>
</svg>