<?xml version="1.0" encoding="UTF-8" standalone="no"?>
<svg width="24px" height="24px" viewBox="0 0 24 24" version="1.1" xmlns="http://www.w3.org/2000/svg" xmlns:xlink="http://www.w3.org/1999/xlink" xmlns:sketch="http://www.bohemiancoding.com/sketch/ns">
    <!-- Generator: Sketch 3.3.3 (12081) - http://www.bohemiancoding.com/sketch -->
    <title>ic_list_mp3</title>
    <desc>Created with Sketch.</desc>
    <defs></defs>
    <g id="UI" stroke="none" stroke-width="1" fill="none" fill-rule="evenodd" sketch:type="MSPage">
        <g id="assets" sketch:type="MSArtboardGroup" transform="translate(-311.000000, -225.000000)">
            <g id="ic_list_mp3" sketch:type="MSLayerGroup" transform="translate(311.000000, 225.000000)">
                <rect id="bounds" sketch:type="MSShapeGroup" x="0" y="0" width="24" height="24"></rect>
                <path d="M3.60355442,23 L3.60355442,23 L19.3964456,23 C19.7278522,23 20,22.7284426 20,22.3973836 L20,5.57787152 L20.3375829,6.32700673 L14.0295032,0.749135212 L14.6919203,1 L3.60744048,1 C3.26946656,1 3,1.26720273 3,1.59329362 L3,22.4067064 C3,22.7301845 3.27097392,23 3.60355442,23 L3.60355442,23 Z M3.60355442,24 C2.71793577,24 2,23.2817277 2,22.4067064 L2,1.59329362 C2,0.713341853 2.71873759,0 3.60744048,0 L14.6919203,0 L21,5.57787152 L21,22.3973836 C21,23.2824842 20.2783785,24 19.3964456,24 L3.60355442,24 L3.60355442,24 Z" id="Shape" fill="#8F8F8F" sketch:type="MSShapeGroup"></path>
                <rect id="Rectangle-179" fill="#8F8F8F" sketch:type="MSShapeGroup" x="0" y="14" width="24" height="10" rx="2"></rect>
                <ellipse id="Oval-29" fill="#8F8F8F" sketch:type="MSShapeGroup" cx="8" cy="11.5" rx="2" ry="1.5"></ellipse>
                <ellipse id="Oval-29" fill="#8F8F8F" sketch:type="MSShapeGroup" cx="13" cy="10.5" rx="2" ry="1.5"></ellipse>
                <path d="M9,4.5 L9,11.5 C9,11.7761424 9.22385763,12 9.5,12 C9.77614237,12 10,11.7761424 10,11.5 L10,4.5 C10,4.22385763 9.77614237,4 9.5,4 C9.22385763,4 9,4.22385763 9,4.5 L9,4.5 Z" id="Shape" fill="#8F8F8F" sketch:type="MSShapeGroup"></path>
                <path d="M14,3.5 L14,10.5 C14,10.7761424 14.2238576,11 14.5,11 C14.7761424,11 15,10.7761424 15,10.5 L15,3.5 C15,3.22385763 14.7761424,3 14.5,3 C14.2238576,3 14,3.22385763 14,3.5 L14,3.5 Z" id="Shape" fill="#8F8F8F" sketch:type="MSShapeGroup"></path>
                <path d="M9.59805807,4.99029034 L14.5980581,3.99029034 C14.8688379,3.93613436 15.0444463,3.67272181 14.9902903,3.40194193 C14.9361344,3.13116206 14.6727218,2.95555369 14.4019419,3.00970966 L9.40194193,4.00970966 C9.13116206,4.06386564 8.95555369,4.32727819 9.00970966,4.59805807 C9.06386564,4.86883794 9.32727819,5.04444631 9.59805807,4.99029034 L9.59805807,4.99029034 Z" id="Shape" fill="#8F8F8F" sketch:type="MSShapeGroup"></path>
                <path d="M9.59805807,6.99029034 L14.5980581,5.99029034 C14.8688379,5.93613436 15.0444463,5.67272181 14.9902903,5.40194193 C14.9361344,5.13116206 14.6727218,4.95555369 14.4019419,5.00970966 L9.40194193,6.00970966 C9.13116206,6.06386564 8.95555369,6.32727819 9.00970966,6.59805807 C9.06386564,6.86883794 9.32727819,7.04444631 9.59805807,6.99029034 L9.59805807,6.99029034 Z" id="Shape" fill="#8F8F8F" sketch:type="MSShapeGroup"></path>
                <path d="M5.4921875,16.7734375 L5.52734375,17.2460938 C5.66796945,17.0742179 5.8391917,16.9394536 6.04101562,16.8417969 C6.24283955,16.7441401 6.47656117,16.6953125 6.7421875,16.6953125 C6.99479293,16.6953125 7.21809799,16.7460932 7.41210938,16.8476562 C7.60612076,16.9492193 7.75650988,17.1132801 7.86328125,17.3398438 C8.00130277,17.1393219 8.17512916,16.9817714 8.38476562,16.8671875 C8.59440209,16.7526036 8.84374855,16.6953125 9.1328125,16.6953125 C9.3385427,16.6953125 9.52538979,16.723958 9.69335938,16.78125 C9.86132896,16.838542 10.0045567,16.9309889 10.1230469,17.0585938 C10.2415371,17.1861986 10.332682,17.3522125 10.3964844,17.5566406 C10.4602868,17.7610687 10.4921875,18.0117173 10.4921875,18.3085938 L10.4921875,21 L9.359375,21 L9.359375,18.3085938 C9.359375,18.167968 9.34440119,18.0520838 9.31445312,17.9609375 C9.28450506,17.8697912 9.24218777,17.7988284 9.1875,17.7480469 C9.13281223,17.6972654 9.06640664,17.6621095 8.98828125,17.6425781 C8.91015586,17.6230468 8.82161508,17.6132812 8.72265625,17.6132812 C8.54817621,17.6132812 8.40234434,17.6569006 8.28515625,17.7441406 C8.16796816,17.8313806 8.07942738,17.949218 8.01953125,18.0976562 C8.01953125,18.1106771 8.02018229,18.1249999 8.02148438,18.140625 C8.02278646,18.1562501 8.0234375,18.1705729 8.0234375,18.1835938 L8.0234375,21 L6.89453125,21 L6.89453125,18.3164062 C6.89453125,18.1757805 6.88020848,18.0598963 6.8515625,17.96875 C6.82291652,17.8776037 6.78125027,17.8059898 6.7265625,17.7539062 C6.67187473,17.7018227 6.60481811,17.6653647 6.52539062,17.6445312 C6.44596314,17.6236978 6.35677133,17.6132812 6.2578125,17.6132812 C6.091145,17.6132812 5.95052141,17.6484371 5.8359375,17.71875 C5.72135359,17.7890629 5.63020867,17.8867181 5.5625,18.0117188 L5.5625,21 L4.43359375,21 L4.43359375,16.7734375 L5.4921875,16.7734375 Z M15.1640625,18.9257812 C15.1640625,19.2330745 15.1282556,19.5182279 15.0566406,19.78125 C14.9850257,20.0442721 14.880209,20.2714834 14.7421875,20.4628906 C14.604166,20.6542978 14.4329437,20.804687 14.2285156,20.9140625 C14.0240875,21.023438 13.7890638,21.078125 13.5234375,21.078125 C13.299478,21.078125 13.1022144,21.0390629 12.9316406,20.9609375 C12.7610669,20.8828121 12.6132819,20.7734382 12.4882812,20.6328125 L12.4882812,22.625 L11.359375,22.625 L11.359375,16.7734375 L12.40625,16.7734375 L12.4453125,17.1875 C12.5755215,17.0312492 12.7272127,16.9101567 12.9003906,16.8242188 C13.0735686,16.7382808 13.2786446,16.6953125 13.515625,16.6953125 C13.7838555,16.6953125 14.0208323,16.7467443 14.2265625,16.8496094 C14.4322927,16.9524745 14.604166,17.0983063 14.7421875,17.2871094 C14.880209,17.4759124 14.9850257,17.7024726 15.0566406,17.9667969 C15.1282556,18.2311211 15.1640625,18.5234359 15.1640625,18.84375 L15.1640625,18.9257812 Z M14.0351562,18.84375 C14.0351562,18.66927 14.0201824,18.5071622 13.9902344,18.3574219 C13.9602863,18.2076815 13.9127607,18.0774745 13.8476562,17.9667969 C13.7825518,17.8561192 13.6985682,17.7695316 13.5957031,17.7070312 C13.492838,17.6445309 13.3671882,17.6132812 13.21875,17.6132812 C13.0338532,17.6132812 12.8821621,17.6477861 12.7636719,17.7167969 C12.6451817,17.7858076 12.5533857,17.8867181 12.4882812,18.0195312 L12.4882812,19.75 C12.5533857,19.880209 12.6451817,19.9824215 12.7636719,20.0566406 C12.8821621,20.1308597 13.0364574,20.1679688 13.2265625,20.1679688 C13.3750007,20.1679688 13.5006505,20.135417 13.6035156,20.0703125 C13.7063807,20.005208 13.7897132,19.9160162 13.8535156,19.8027344 C13.917318,19.6894526 13.9635415,19.5572924 13.9921875,19.40625 C14.0208335,19.2552076 14.0351562,19.0950529 14.0351562,18.9257812 L14.0351562,18.84375 Z M16.9648438,17.65625 L17.5664062,17.65625 C17.852866,17.65625 18.0651035,17.5846361 18.203125,17.4414062 C18.3411465,17.2981764 18.4101562,17.1080741 18.4101562,16.8710938 C18.4101562,16.7669266 18.3945314,16.6699223 18.3632812,16.5800781 C18.3320311,16.4902339 18.2845055,16.4134118 18.2207031,16.3496094 C18.1569007,16.285807 18.0768234,16.2356773 17.9804688,16.1992188 C17.8841141,16.1627602 17.770834,16.1445312 17.640625,16.1445312 C17.5364578,16.1445312 17.4381515,16.1595051 17.3457031,16.1894531 C17.2532547,16.2194012 17.1725264,16.2617185 17.1035156,16.3164062 C17.0345049,16.371094 16.9798179,16.4381506 16.9394531,16.5175781 C16.8990883,16.5970056 16.8789062,16.6861974 16.8789062,16.7851562 L15.75,16.7851562 C15.75,16.5507801 15.7988276,16.3378916 15.8964844,16.1464844 C15.9941411,15.9550772 16.1269523,15.7923184 16.2949219,15.6582031 C16.4628915,15.5240879 16.6601551,15.4199222 16.8867188,15.3457031 C17.1132824,15.271484 17.3554675,15.234375 17.6132812,15.234375 C17.899741,15.234375 18.1608061,15.2688799 18.3964844,15.3378906 C18.6321626,15.4069014 18.8346346,15.5097649 19.0039062,15.6464844 C19.1731779,15.7832038 19.304687,15.9524729 19.3984375,16.1542969 C19.492188,16.3561208 19.5390625,16.5898424 19.5390625,16.8554688 C19.5390625,16.9778652 19.5201825,17.0989577 19.4824219,17.21875 C19.4446613,17.3385423 19.3886722,17.4511713 19.3144531,17.5566406 C19.240234,17.6621099 19.1497401,17.7597652 19.0429688,17.8496094 C18.9361974,17.9394536 18.8138028,18.0156247 18.6757812,18.078125 C18.9960954,18.1927089 19.2350253,18.3645822 19.3925781,18.59375 C19.550131,18.8229178 19.6289062,19.0937484 19.6289062,19.40625 C19.6289062,19.6718763 19.5774745,19.9088531 19.4746094,20.1171875 C19.3717443,20.3255219 19.2304696,20.5006503 19.0507812,20.6425781 C18.8710929,20.7845059 18.6582044,20.8925778 18.4121094,20.9667969 C18.1660144,21.041016 17.899741,21.078125 17.6132812,21.078125 C17.3710925,21.078125 17.1341157,21.0455732 16.9023438,20.9804688 C16.6705718,20.9153643 16.4641936,20.8151048 16.2832031,20.6796875 C16.1022126,20.5442702 15.9563808,20.37435 15.8457031,20.1699219 C15.7350255,19.9654938 15.6796875,19.7226577 15.6796875,19.4414062 L16.8085938,19.4414062 C16.8085938,19.5481776 16.8294269,19.6458329 16.8710938,19.734375 C16.9127606,19.8229171 16.9707028,19.8990882 17.0449219,19.9628906 C17.119141,20.026693 17.2070307,20.0768227 17.3085938,20.1132812 C17.4101568,20.1497398 17.5208327,20.1679688 17.640625,20.1679688 C17.7734382,20.1679688 17.8932286,20.1497398 18,20.1132812 C18.1067714,20.0768227 18.1972653,20.0240889 18.2714844,19.9550781 C18.3457035,19.8860674 18.4023436,19.8040369 18.4414062,19.7089844 C18.4804689,19.6139318 18.5,19.5078131 18.5,19.390625 C18.5,19.2395826 18.4785158,19.1100266 18.4355469,19.0019531 C18.3925779,18.8938797 18.3307296,18.8059899 18.25,18.7382812 C18.1692704,18.6705726 18.0709641,18.6204429 17.9550781,18.5878906 C17.8391921,18.5553384 17.7096361,18.5390625 17.5664062,18.5390625 L16.9648438,18.5390625 L16.9648438,17.65625 Z" id="mp3" fill-opacity="0.87" fill="#FFFFFF" sketch:type="MSShapeGroup"></path>
            </g>
        </g>
    </g>
</svg>