<?xml version="1.0" encoding="UTF-8" standalone="no"?>
<svg width="24px" height="24px" viewBox="0 0 24 24" version="1.1" xmlns="http://www.w3.org/2000/svg" xmlns:xlink="http://www.w3.org/1999/xlink" xmlns:sketch="http://www.bohemiancoding.com/sketch/ns">
    <!-- Generator: Sketch 3.3.3 (12081) - http://www.bohemiancoding.com/sketch -->
    <title>ic_list_rar</title>
    <desc>Created with Sketch.</desc>
    <defs></defs>
    <g id="UI" stroke="none" stroke-width="1" fill="none" fill-rule="evenodd" sketch:type="MSPage">
        <g id="assets" sketch:type="MSArtboardGroup" transform="translate(-146.000000, -195.000000)">
            <g id="ic_list_rar" sketch:type="MSLayerGroup" transform="translate(146.000000, 195.000000)">
                <rect id="bounds" sketch:type="MSShapeGroup" x="0" y="0" width="24" height="24"></rect>
                <path d="M3.60355442,23 L3.60355442,23 L19.3964456,23 C19.7278522,23 20,22.7284426 20,22.3973836 L20,5.57787152 L20.3375829,6.32700673 L14.0295032,0.749135212 L14.6919203,1 L3.60744048,1 C3.26946656,1 3,1.26720273 3,1.59329362 L3,22.4067064 C3,22.7301845 3.27097392,23 3.60355442,23 L3.60355442,23 Z M3.60355442,24 C2.71793577,24 2,23.2817277 2,22.4067064 L2,1.59329362 C2,0.713341853 2.71873759,0 3.60744048,0 L14.6919203,0 L21,5.57787152 L21,22.3973836 C21,23.2824842 20.2783785,24 19.3964456,24 L3.60355442,24 L3.60355442,24 Z" id="Shape" fill="#8F8F8F" sketch:type="MSShapeGroup"></path>
                <rect id="Rectangle-179" fill="#8F8F8F" sketch:type="MSShapeGroup" x="0" y="14" width="24" height="10" rx="2"></rect>
                <g id="Group" transform="translate(6.000000, 2.000000)" sketch:type="MSShapeGroup">
                    <rect id="Rectangle-192" fill="#8F8F8F" x="0" y="3" width="6" height="6"></rect>
                    <path d="M0.7,2 L6.3,2 C6.57614237,2 6.8,1.77614237 6.8,1.5 C6.8,1.22385763 6.57614237,1 6.3,1 L0.7,1 C0.423857625,1 0.2,1.22385763 0.2,1.5 C0.2,1.77614237 0.423857625,2 0.7,2 L0.7,2 Z" id="Shape" fill="#979797"></path>
                    <path d="M0.7,11 L6.3,11 C6.57614237,11 6.8,10.7761424 6.8,10.5 C6.8,10.2238576 6.57614237,10 6.3,10 L0.7,10 C0.423857625,10 0.2,10.2238576 0.2,10.5 C0.2,10.7761424 0.423857625,11 0.7,11 L0.7,11 Z" id="Shape" fill="#979797"></path>
                    <path d="M6.02565833,1.65811389 L7.02565833,4.65811379 C7.11298222,4.92008545 7.39614221,5.06166544 7.65811386,4.97434155 C7.92008552,4.88701766 8.06166551,4.60385768 7.97434162,4.34188602 L6.97434162,1.34188611 C6.88701773,1.07991446 6.60385775,0.938334465 6.34188609,1.02565835 C6.07991443,1.11298224 5.93833444,1.39614223 6.02565833,1.65811389 L6.02565833,1.65811389 Z" id="Shape" fill="#979797"></path>
                    <path d="M7.02565833,7.34188611 L6.02565833,10.341886 C5.93833444,10.6038577 6.07991443,10.8870177 6.34188609,10.9743416 C6.60385775,11.0616654 6.88701773,10.9200855 6.97434162,10.6581138 L7.97434162,7.65811389 C8.06166551,7.39614223 7.92008552,7.11298224 7.65811386,7.02565835 C7.39614221,6.93833447 7.11298222,7.07991446 7.02565833,7.34188611 L7.02565833,7.34188611 Z" id="Shape" fill="#979797"></path>
                    <path d="M8,5.5 L8,6.5 C8,6.77614237 8.22385763,7 8.5,7 C8.77614237,7 9,6.77614237 9,6.5 L9,5.5 C9,5.22385763 8.77614237,5 8.5,5 C8.22385763,5 8,5.22385763 8,5.5 L8,5.5 Z" id="Shape" fill="#979797"></path>
                    <path d="M9,5.5 L9,6.5 C9,6.77614237 9.22385763,7 9.5,7 C9.77614237,7 10,6.77614237 10,6.5 L10,5.5 C10,5.22385763 9.77614237,5 9.5,5 C9.22385763,5 9,5.22385763 9,5.5 L9,5.5 Z" id="Shape" fill="#979797"></path>
                    <path d="M10,5.5 L10,6.5 C10,6.77614237 10.2238576,7 10.5,7 C10.7761424,7 11,6.77614237 11,6.5 L11,5.5 C11,5.22385763 10.7761424,5 10.5,5 C10.2238576,5 10,5.22385763 10,5.5 L10,5.5 Z" id="Shape" fill="#979797"></path>
                </g>
                <path d="M6.61328125,19.9179688 L5.6796875,19.9179688 L5.6796875,22 L4.5078125,22 L4.5078125,16.3125 L6.62109375,16.3125 C6.94922039,16.3125 7.24348828,16.349609 7.50390625,16.4238281 C7.76432422,16.4980472 7.9843741,16.6074212 8.1640625,16.7519531 C8.3437509,16.8964851 8.48177035,17.0755198 8.578125,17.2890625 C8.67447965,17.5026052 8.72265625,17.7499986 8.72265625,18.03125 C8.72265625,18.2395844 8.69921898,18.4264315 8.65234375,18.5917969 C8.60546852,18.7571623 8.53776086,18.9042962 8.44921875,19.0332031 C8.36067664,19.16211 8.25390688,19.2747391 8.12890625,19.3710938 C8.00390562,19.4674484 7.86328203,19.5507809 7.70703125,19.6210938 L8.9375,21.9453125 L8.9375,22 L7.6796875,22 L6.61328125,19.9179688 Z M5.6796875,18.96875 L6.625,18.96875 C6.7786466,18.96875 6.91341088,18.9485679 7.02929688,18.9082031 C7.14518287,18.8678383 7.24153607,18.8105472 7.31835938,18.7363281 C7.39518268,18.662109 7.4531248,18.5735682 7.4921875,18.4707031 C7.5312502,18.367838 7.55078125,18.2526048 7.55078125,18.125 C7.55078125,17.8567695 7.47461014,17.6458341 7.32226562,17.4921875 C7.16992111,17.3385409 6.93619949,17.2617188 6.62109375,17.2617188 L5.6796875,17.2617188 L5.6796875,18.96875 Z M12.8242188,20.828125 L10.7695312,20.828125 L10.3789062,22 L9.1328125,22 L11.25,16.3125 L12.3359375,16.3125 L14.4648438,22 L13.21875,22 L12.8242188,20.828125 Z M11.0859375,19.8789062 L12.5078125,19.8789062 L11.7929688,17.75 L11.0859375,19.8789062 Z M17.1015625,19.9179688 L16.1679688,19.9179688 L16.1679688,22 L14.9960938,22 L14.9960938,16.3125 L17.109375,16.3125 C17.4375016,16.3125 17.7317695,16.349609 17.9921875,16.4238281 C18.2526055,16.4980472 18.4726554,16.6074212 18.6523438,16.7519531 C18.8320321,16.8964851 18.9700516,17.0755198 19.0664062,17.2890625 C19.1627609,17.5026052 19.2109375,17.7499986 19.2109375,18.03125 C19.2109375,18.2395844 19.1875002,18.4264315 19.140625,18.5917969 C19.0937498,18.7571623 19.0260421,18.9042962 18.9375,19.0332031 C18.8489579,19.16211 18.7421881,19.2747391 18.6171875,19.3710938 C18.4921869,19.4674484 18.3515633,19.5507809 18.1953125,19.6210938 L19.4257812,21.9453125 L19.4257812,22 L18.1679688,22 L17.1015625,19.9179688 Z M16.1679688,18.96875 L17.1132812,18.96875 C17.2669279,18.96875 17.4016921,18.9485679 17.5175781,18.9082031 C17.6334641,18.8678383 17.7298173,18.8105472 17.8066406,18.7363281 C17.8834639,18.662109 17.9414061,18.5735682 17.9804688,18.4707031 C18.0195314,18.367838 18.0390625,18.2526048 18.0390625,18.125 C18.0390625,17.8567695 17.9628914,17.6458341 17.8105469,17.4921875 C17.6582024,17.3385409 17.4244807,17.2617188 17.109375,17.2617188 L16.1679688,17.2617188 L16.1679688,18.96875 Z" id="RAR" fill-opacity="0.87" fill="#FFFFFF" sketch:type="MSShapeGroup"></path>
            </g>
        </g>
    </g>
</svg>