<?xml version="1.0" encoding="UTF-8" standalone="no"?>
<svg width="24px" height="24px" viewBox="0 0 24 24" version="1.1" xmlns="http://www.w3.org/2000/svg" xmlns:xlink="http://www.w3.org/1999/xlink" xmlns:sketch="http://www.bohemiancoding.com/sketch/ns">
    <!-- Generator: Sketch 3.3.3 (12081) - http://www.bohemiancoding.com/sketch -->
    <title>ic_list_jar</title>
    <desc>Created with Sketch.</desc>
    <defs></defs>
    <g id="UI" stroke="none" stroke-width="1" fill="none" fill-rule="evenodd" sketch:type="MSPage">
        <g id="assets" sketch:type="MSArtboardGroup" transform="translate(-212.000000, -195.000000)">
            <g id="ic_list_jar" sketch:type="MSLayerGroup" transform="translate(212.000000, 195.000000)">
                <rect id="bounds" sketch:type="MSShapeGroup" x="0" y="0" width="24" height="24"></rect>
                <path d="M3.60355442,23 L3.60355442,23 L19.3964456,23 C19.7278522,23 20,22.7284426 20,22.3973836 L20,5.57787152 L20.3375829,6.32700673 L14.0295032,0.749135212 L14.6919203,1 L3.60744048,1 C3.26946656,1 3,1.26720273 3,1.59329362 L3,22.4067064 C3,22.7301845 3.27097392,23 3.60355442,23 L3.60355442,23 Z M3.60355442,24 C2.71793577,24 2,23.2817277 2,22.4067064 L2,1.59329362 C2,0.713341853 2.71873759,0 3.60744048,0 L14.6919203,0 L21,5.57787152 L21,22.3973836 C21,23.2824842 20.2783785,24 19.3964456,24 L3.60355442,24 L3.60355442,24 Z" id="Shape" fill="#8F8F8F" sketch:type="MSShapeGroup"></path>
                <rect id="Rectangle-179" fill="#8F8F8F" sketch:type="MSShapeGroup" x="0" y="14" width="24" height="10" rx="2"></rect>
                <g id="Group" transform="translate(6.000000, 2.000000)" sketch:type="MSShapeGroup">
                    <rect id="Rectangle-192" fill="#8F8F8F" x="2.84217094e-14" y="3" width="6" height="6"></rect>
                    <path d="M0.7,2 L6.3,2 C6.57614237,2 6.8,1.77614237 6.8,1.5 C6.8,1.22385763 6.57614237,1 6.3,1 L0.7,1 C0.423857625,1 0.2,1.22385763 0.2,1.5 C0.2,1.77614237 0.423857625,2 0.7,2 L0.7,2 Z" id="Shape" fill="#979797"></path>
                    <path d="M0.7,11 L6.3,11 C6.57614237,11 6.8,10.7761424 6.8,10.5 C6.8,10.2238576 6.57614237,10 6.3,10 L0.7,10 C0.423857625,10 0.2,10.2238576 0.2,10.5 C0.2,10.7761424 0.423857625,11 0.7,11 L0.7,11 Z" id="Shape" fill="#979797"></path>
                    <path d="M6.02565833,1.65811389 L7.02565833,4.65811379 C7.11298222,4.92008545 7.39614221,5.06166544 7.65811386,4.97434155 C7.92008552,4.88701766 8.06166551,4.60385768 7.97434162,4.34188602 L6.97434162,1.34188611 C6.88701773,1.07991446 6.60385775,0.938334465 6.34188609,1.02565835 C6.07991443,1.11298224 5.93833444,1.39614223 6.02565833,1.65811389 L6.02565833,1.65811389 Z" id="Shape" fill="#979797"></path>
                    <path d="M7.02565833,7.34188611 L6.02565833,10.341886 C5.93833444,10.6038577 6.07991443,10.8870177 6.34188609,10.9743416 C6.60385775,11.0616654 6.88701773,10.9200855 6.97434162,10.6581138 L7.97434162,7.65811389 C8.06166551,7.39614223 7.92008552,7.11298224 7.65811386,7.02565835 C7.39614221,6.93833447 7.11298222,7.07991446 7.02565833,7.34188611 L7.02565833,7.34188611 Z" id="Shape" fill="#979797"></path>
                    <path d="M8,5.5 L8,6.5 C8,6.77614237 8.22385763,7 8.5,7 C8.77614237,7 9,6.77614237 9,6.5 L9,5.5 C9,5.22385763 8.77614237,5 8.5,5 C8.22385763,5 8,5.22385763 8,5.5 L8,5.5 Z" id="Shape" fill="#979797"></path>
                    <path d="M9,5.5 L9,6.5 C9,6.77614237 9.22385763,7 9.5,7 C9.77614237,7 10,6.77614237 10,6.5 L10,5.5 C10,5.22385763 9.77614237,5 9.5,5 C9.22385763,5 9,5.22385763 9,5.5 L9,5.5 Z" id="Shape" fill="#979797"></path>
                    <path d="M10,5.5 L10,6.5 C10,6.77614237 10.2238576,7 10.5,7 C10.7761424,7 11,6.77614237 11,6.5 L11,5.5 C11,5.22385763 10.7761424,5 10.5,5 C10.2238576,5 10,5.22385763 10,5.5 L10,5.5 Z" id="Shape" fill="#979797"></path>
                </g>
                <path d="M6.80078125,16.3125 L7.97265625,16.3125 L7.97265625,20.25 C7.97265625,20.5338556 7.92447965,20.7890614 7.828125,21.015625 C7.73177035,21.2421886 7.59830814,21.434244 7.42773438,21.5917969 C7.25716061,21.7493497 7.05533971,21.8697912 6.82226562,21.953125 C6.58919154,22.0364588 6.33724094,22.078125 6.06640625,22.078125 C5.78775902,22.078125 5.53190221,22.0429691 5.29882812,21.9726562 C5.06575404,21.9023434 4.86458418,21.7949226 4.6953125,21.6503906 C4.52604082,21.5058587 4.39388068,21.3235688 4.29882812,21.1035156 C4.20377557,20.8834624 4.15625,20.6223973 4.15625,20.3203125 L5.3359375,20.3203125 C5.3359375,20.4739591 5.35286441,20.6028641 5.38671875,20.7070312 C5.42057309,20.8111984 5.46940072,20.895182 5.53320312,20.9589844 C5.59700553,21.0227868 5.67382768,21.0683592 5.76367188,21.0957031 C5.85351607,21.123047 5.95442652,21.1367188 6.06640625,21.1367188 C6.2903657,21.1367188 6.46874934,21.0598966 6.6015625,20.90625 C6.73437566,20.7526034 6.80078125,20.5338556 6.80078125,20.25 L6.80078125,16.3125 Z M12.1015625,20.828125 L10.046875,20.828125 L9.65625,22 L8.41015625,22 L10.5273438,16.3125 L11.6132812,16.3125 L13.7421875,22 L12.4960938,22 L12.1015625,20.828125 Z M10.3632812,19.8789062 L11.7851562,19.8789062 L11.0703125,17.75 L10.3632812,19.8789062 Z M16.3789062,19.9179688 L15.4453125,19.9179688 L15.4453125,22 L14.2734375,22 L14.2734375,16.3125 L16.3867188,16.3125 C16.7148454,16.3125 17.0091133,16.349609 17.2695312,16.4238281 C17.5299492,16.4980472 17.7499991,16.6074212 17.9296875,16.7519531 C18.1093759,16.8964851 18.2473954,17.0755198 18.34375,17.2890625 C18.4401046,17.5026052 18.4882812,17.7499986 18.4882812,18.03125 C18.4882812,18.2395844 18.464844,18.4264315 18.4179688,18.5917969 C18.3710935,18.7571623 18.3033859,18.9042962 18.2148438,19.0332031 C18.1263016,19.16211 18.0195319,19.2747391 17.8945312,19.3710938 C17.7695306,19.4674484 17.628907,19.5507809 17.4726562,19.6210938 L18.703125,21.9453125 L18.703125,22 L17.4453125,22 L16.3789062,19.9179688 Z M15.4453125,18.96875 L16.390625,18.96875 C16.5442716,18.96875 16.6790359,18.9485679 16.7949219,18.9082031 C16.9108079,18.8678383 17.0071611,18.8105472 17.0839844,18.7363281 C17.1608077,18.662109 17.2187498,18.5735682 17.2578125,18.4707031 C17.2968752,18.367838 17.3164062,18.2526048 17.3164062,18.125 C17.3164062,17.8567695 17.2402351,17.6458341 17.0878906,17.4921875 C16.9355461,17.3385409 16.7018245,17.2617188 16.3867188,17.2617188 L15.4453125,17.2617188 L15.4453125,18.96875 Z" id="JAR" fill-opacity="0.87" fill="#FFFFFF" sketch:type="MSShapeGroup"></path>
            </g>
        </g>
    </g>
</svg>