<?xml version="1.0" encoding="UTF-8" standalone="no"?>
<svg width="24px" height="24px" viewBox="0 0 24 24" version="1.1" xmlns="http://www.w3.org/2000/svg" xmlns:xlink="http://www.w3.org/1999/xlink" xmlns:sketch="http://www.bohemiancoding.com/sketch/ns">
    <!-- Generator: Sketch 3.3.3 (12081) - http://www.bohemiancoding.com/sketch -->
    <title>ic_list_webm</title>
    <desc>Created with Sketch.</desc>
    <defs></defs>
    <g id="UI" stroke="none" stroke-width="1" fill="none" fill-rule="evenodd" sketch:type="MSPage">
        <g id="assets" sketch:type="MSArtboardGroup" transform="translate(-465.000000, -225.000000)">
            <g id="ic_list_webm" sketch:type="MSLayerGroup" transform="translate(465.000000, 225.000000)">
                <rect id="bounds" sketch:type="MSShapeGroup" x="0" y="0" width="24" height="24"></rect>
                <path d="M3.60355442,23 L3.60355442,23 L19.3964456,23 C19.7278522,23 20,22.7284426 20,22.3973836 L20,5.57787152 L20.3375829,6.32700673 L14.0295032,0.749135212 L14.6919203,1 L3.60744048,1 C3.26946656,1 3,1.26720273 3,1.59329362 L3,22.4067064 C3,22.7301845 3.27097392,23 3.60355442,23 L3.60355442,23 Z M3.60355442,24 C2.71793577,24 2,23.2817277 2,22.4067064 L2,1.59329362 C2,0.713341853 2.71873759,0 3.60744048,0 L14.6919203,0 L21,5.57787152 L21,22.3973836 C21,23.2824842 20.2783785,24 19.3964456,24 L3.60355442,24 L3.60355442,24 Z" id="Shape" fill="#8F8F8F" sketch:type="MSShapeGroup"></path>
                <rect id="Rectangle-179" fill="#8F8F8F" sketch:type="MSShapeGroup" x="0" y="14" width="24" height="10" rx="1"></rect>
                <path d="M6,4.99703014 C6,4.4463856 6.4556644,4 6.99539757,4 L15.0046024,4 C15.5543453,4 16,4.45303631 16,4.99703014 L16,11.0029699 C16,11.5536144 15.5443356,12 15.0046024,12 L6.99539757,12 C6.44565467,12 6,11.5469637 6,11.0029699 L6,4.99703014 Z M13,8 L9,6 L9,10 L13,8 Z" id="Rectangle-92" fill="#8F8F8F" sketch:type="MSShapeGroup"></path>
                <path d="M5.59570312,19.6567383 L6.08105469,17.3017578 L7.03466797,17.3017578 L6.09130859,21 L5.26416016,21 L4.56347656,18.6723633 L3.86279297,21 L3.0390625,21 L2.09570312,17.3017578 L3.04931641,17.3017578 L3.53125,19.6533203 L4.20800781,17.3017578 L4.92236328,17.3017578 L5.59570312,19.6567383 Z M9.22558594,21.0683594 C8.93847513,21.0683594 8.68156038,21.0216476 8.45483398,20.9282227 C8.22810759,20.8347977 8.03556394,20.7071948 7.87719727,20.5454102 C7.71883059,20.3836255 7.59806357,20.1939301 7.51489258,19.9763184 C7.43172159,19.7587066 7.39013672,19.5257174 7.39013672,19.2773438 L7.39013672,19.144043 C7.39013672,18.8637681 7.43058228,18.6068534 7.51147461,18.373291 C7.59236694,18.1397286 7.7074374,17.9386402 7.85668945,17.7700195 C8.0059415,17.6013989 8.18709203,17.4698084 8.40014648,17.3752441 C8.61320094,17.2806799 8.8518867,17.2333984 9.11621094,17.2333984 C9.38281383,17.2333984 9.61751201,17.2772619 9.8203125,17.3649902 C10.023113,17.4527185 10.1934401,17.5757642 10.3312988,17.7341309 C10.4691576,17.8924975 10.5728349,18.0833322 10.642334,18.3066406 C10.711833,18.529949 10.746582,18.7783189 10.746582,19.0517578 L10.746582,19.472168 L8.39160156,19.472168 C8.40755216,19.5929368 8.44002254,19.7023107 8.48901367,19.800293 C8.5380048,19.8982752 8.60066694,19.9820146 8.67700195,20.0515137 C8.75333697,20.1210127 8.84277292,20.17513 8.9453125,20.2138672 C9.04785208,20.2526044 9.16292254,20.2719727 9.29052734,20.2719727 C9.47054126,20.2719727 9.63688075,20.238363 9.78955078,20.1711426 C9.94222082,20.1039222 10.0732416,19.9996752 10.1826172,19.8583984 L10.6679688,20.4018555 C10.6087237,20.4861658 10.5346684,20.5681962 10.4458008,20.6479492 C10.3569331,20.7277022 10.2521165,20.7989092 10.1313477,20.8615723 C10.0105788,20.9242353 9.8744311,20.974365 9.72290039,21.0119629 C9.57136969,21.0495607 9.40559986,21.0683594 9.22558594,21.0683594 L9.22558594,21.0683594 Z M9.11279297,18.0332031 C9.00569608,18.0332031 8.91170288,18.0520018 8.83081055,18.0895996 C8.74991822,18.1271975 8.68042021,18.1796058 8.62231445,18.2468262 C8.56420869,18.3140466 8.51692727,18.394368 8.48046875,18.487793 C8.44401023,18.5812179 8.41780607,18.6848953 8.40185547,18.7988281 L9.77587891,18.7988281 L9.77587891,18.7202148 C9.77360025,18.6222326 9.75935885,18.5310877 9.7331543,18.4467773 C9.70694974,18.362467 9.66707384,18.2895511 9.61352539,18.2280273 C9.55997695,18.1665036 9.49161825,18.1186525 9.40844727,18.0844727 C9.32527628,18.0502928 9.22672583,18.0332031 9.11279297,18.0332031 L9.11279297,18.0332031 Z M14.6396484,19.1850586 C14.6396484,19.4630548 14.6100263,19.7171212 14.5507812,19.9472656 C14.4915362,20.17741 14.4021002,20.3756502 14.2824707,20.5419922 C14.1628412,20.7083342 14.0130217,20.837646 13.8330078,20.9299316 C13.6529939,21.0222173 13.4422213,21.0683594 13.2006836,21.0683594 C12.9864898,21.0683594 12.8013517,21.0279138 12.6452637,20.9470215 C12.4891757,20.8661292 12.3541672,20.7527677 12.2402344,20.6069336 L12.1958008,21 L11.3071289,21 L11.3071289,15.75 L12.2949219,15.75 L12.2949219,17.6333008 C12.4042974,17.505696 12.53247,17.4071455 12.6794434,17.3376465 C12.8264168,17.2681474 12.9978831,17.2333984 13.1938477,17.2333984 C13.4353853,17.2333984 13.6467276,17.2801102 13.8278809,17.3735352 C14.0090341,17.4669601 14.1599929,17.5968416 14.2807617,17.7631836 C14.4015306,17.9295256 14.4915362,18.1277658 14.5507812,18.3579102 C14.6100263,18.5880545 14.6396484,18.8398424 14.6396484,19.1132812 L14.6396484,19.1850586 Z M13.6518555,19.1132812 C13.6518555,18.9674472 13.6416017,18.8290208 13.6210938,18.697998 C13.6005858,18.5669753 13.5635582,18.4524744 13.5100098,18.3544922 C13.4564613,18.2565099 13.384115,18.1790367 13.2929688,18.1220703 C13.2018225,18.0651039 13.0856127,18.0366211 12.9443359,18.0366211 C12.777994,18.0366211 12.6424159,18.0702308 12.5375977,18.1374512 C12.4327794,18.2046716 12.3518883,18.2998041 12.2949219,18.4228516 L12.2949219,19.8823242 C12.3518883,20.0053717 12.4327794,20.1010739 12.5375977,20.1694336 C12.6424159,20.2377933 12.7802726,20.2719727 12.9511719,20.2719727 C13.09017,20.2719727 13.2046708,20.2446292 13.2946777,20.1899414 C13.3846847,20.1352536 13.4564613,20.0600591 13.5100098,19.9643555 C13.5635582,19.8686519 13.6005858,19.7541511 13.6210938,19.6208496 C13.6416017,19.4875482 13.6518555,19.3422859 13.6518555,19.1850586 L13.6518555,19.1132812 Z M16.1743164,17.3017578 L16.2050781,17.715332 C16.3281256,17.5649407 16.4779451,17.4470219 16.654541,17.3615723 C16.831137,17.2761226 17.0356434,17.2333984 17.2680664,17.2333984 C17.4890962,17.2333984 17.6844881,17.2778316 17.854248,17.3666992 C18.024008,17.4555669 18.1555985,17.5991201 18.2490234,17.7973633 C18.3697923,17.6219067 18.5218904,17.48405 18.7053223,17.3837891 C18.8887542,17.2835281 19.1069323,17.2333984 19.3598633,17.2333984 C19.5398772,17.2333984 19.7033684,17.2584633 19.8503418,17.3085938 C19.9973152,17.3587242 20.1226395,17.4396153 20.2263184,17.5512695 C20.3299973,17.6629237 20.4097491,17.808186 20.4655762,17.9870605 C20.5214033,18.1659351 20.5493164,18.3852526 20.5493164,18.6450195 L20.5493164,21 L19.5581055,21 L19.5581055,18.6450195 C19.5581055,18.521972 19.5450034,18.4205733 19.5187988,18.3408203 C19.4925943,18.2610673 19.4555666,18.1989748 19.4077148,18.154541 C19.359863,18.1101072 19.3017582,18.0793458 19.2333984,18.0622559 C19.1650387,18.0451659 19.0875655,18.0366211 19.0009766,18.0366211 C18.8483065,18.0366211 18.7207036,18.074788 18.6181641,18.151123 C18.5156245,18.2274581 18.4381513,18.3305658 18.3857422,18.4604492 C18.3857422,18.4718425 18.3863118,18.4843749 18.3874512,18.4980469 C18.3885905,18.5117188 18.3891602,18.5242512 18.3891602,18.5356445 L18.3891602,21 L17.4013672,21 L17.4013672,18.6518555 C17.4013672,18.528808 17.3888348,18.4274093 17.3637695,18.3476562 C17.3387043,18.2679032 17.3022463,18.2052411 17.2543945,18.159668 C17.2065427,18.1140948 17.1478682,18.0821941 17.0783691,18.0639648 C17.0088701,18.0457356 16.9308273,18.0366211 16.8442383,18.0366211 C16.6984042,18.0366211 16.5753586,18.0673825 16.4750977,18.1289062 C16.3748367,18.19043 16.2950849,18.2758784 16.2358398,18.3852539 L16.2358398,21 L15.2480469,21 L15.2480469,17.3017578 L16.1743164,17.3017578 Z" id="mp3" fill-opacity="0.87" fill="#FFFFFF" sketch:type="MSShapeGroup"></path>
            </g>
        </g>
    </g>
</svg>