<?xml version="1.0" encoding="UTF-8" standalone="no"?>
<svg width="24px" height="24px" viewBox="0 0 24 24" version="1.1" xmlns="http://www.w3.org/2000/svg" xmlns:xlink="http://www.w3.org/1999/xlink" xmlns:sketch="http://www.bohemiancoding.com/sketch/ns">
    <!-- Generator: Sketch 3.3.3 (12081) - http://www.bohemiancoding.com/sketch -->
    <title>ic_list_doc</title>
    <desc>Created with Sketch.</desc>
    <defs></defs>
    <g id="UI" stroke="none" stroke-width="1" fill="none" fill-rule="evenodd" sketch:type="MSPage">
        <g id="assets" sketch:type="MSArtboardGroup" transform="translate(-43.000000, -195.000000)">
            <g id="ic_list_doc" sketch:type="MSLayerGroup" transform="translate(43.000000, 195.000000)">
                <rect id="bounds" sketch:type="MSShapeGroup" x="0" y="0" width="24" height="24"></rect>
                <path d="M3.60355442,23 L3.60355442,23 L19.3964456,23 C19.7278522,23 20,22.7284426 20,22.3973836 L20,5.57787152 L20.3375829,6.32700673 L14.0295032,0.749135212 L14.6919203,1 L3.60744048,1 C3.26946656,1 3,1.26720273 3,1.59329362 L3,22.4067064 C3,22.7301845 3.27097392,23 3.60355442,23 L3.60355442,23 Z M3.60355442,24 C2.71793577,24 2,23.2817277 2,22.4067064 L2,1.59329362 C2,0.713341853 2.71873759,0 3.60744048,0 L14.6919203,0 L21,5.57787152 L21,22.3973836 C21,23.2824842 20.2783785,24 19.3964456,24 L3.60355442,24 L3.60355442,24 Z" id="Shape" fill="#8F8F8F" sketch:type="MSShapeGroup"></path>
                <path d="M6.5,9 L16.5,9 C16.7761424,9 17,8.77614237 17,8.5 C17,8.22385763 16.7761424,8 16.5,8 L6.5,8 C6.22385763,8 6,8.22385763 6,8.5 C6,8.77614237 6.22385763,9 6.5,9 L6.5,9 Z" id="Shape" fill="#8F8F8F" sketch:type="MSShapeGroup"></path>
                <path d="M6.5,12 L16.5,12 C16.7761424,12 17,11.7761424 17,11.5 C17,11.2238576 16.7761424,11 16.5,11 L6.5,11 C6.22385763,11 6,11.2238576 6,11.5 C6,11.7761424 6.22385763,12 6.5,12 L6.5,12 Z" id="Shape" fill="#8F8F8F" sketch:type="MSShapeGroup"></path>
                <rect id="Rectangle-179" fill="#8F8F8F" sketch:type="MSShapeGroup" x="0" y="14" width="24" height="10" rx="2"></rect>
                <path d="M4.5078125,22 L4.5078125,16.3125 L6.2578125,16.3125 C6.64062691,16.3125 6.99153486,16.3782546 7.31054688,16.5097656 C7.62955889,16.6412767 7.90299365,16.8261707 8.13085938,17.0644531 C8.3587251,17.3027356 8.5364577,17.58854 8.6640625,17.921875 C8.7916673,18.25521 8.85546875,18.624998 8.85546875,19.03125 L8.85546875,19.2890625 C8.85546875,19.6953145 8.79231834,20.0644515 8.66601562,20.3964844 C8.53971291,20.7285173 8.36132928,21.0136707 8.13085938,21.2519531 C7.90038947,21.4902356 7.6250016,21.6744785 7.3046875,21.8046875 C6.9843734,21.9348965 6.63151234,22 6.24609375,22 L4.5078125,22 Z M5.6796875,17.2617188 L5.6796875,21.0585938 L6.24609375,21.0585938 C6.70963773,21.0585938 7.06249879,20.9056005 7.3046875,20.5996094 C7.54687621,20.2936183 7.66796875,19.8567737 7.66796875,19.2890625 L7.66796875,19.0234375 C7.66796875,18.4453096 7.54817828,18.0071629 7.30859375,17.7089844 C7.06900922,17.4108058 6.7187523,17.2617188 6.2578125,17.2617188 L5.6796875,17.2617188 Z M14.3789062,19.2851562 C14.3789062,19.7200543 14.3203131,20.1100243 14.203125,20.4550781 C14.0859369,20.8001319 13.921225,21.0924467 13.7089844,21.3320312 C13.4967437,21.5716158 13.242189,21.7558587 12.9453125,21.8847656 C12.648436,22.0136725 12.3216164,22.078125 11.9648438,22.078125 C11.6080711,22.078125 11.2812515,22.0136725 10.984375,21.8847656 C10.6874985,21.7558587 10.4316417,21.5716158 10.2167969,21.3320312 C10.0019521,21.0924467 9.83463602,20.8001319 9.71484375,20.4550781 C9.59505148,20.1100243 9.53515625,19.7200543 9.53515625,19.2851562 L9.53515625,19.0351562 C9.53515625,18.6028624 9.59440045,18.2135434 9.71289062,17.8671875 C9.8313808,17.5208316 9.99739477,17.2265637 10.2109375,16.984375 C10.4244802,16.7421863 10.679686,16.5566413 10.9765625,16.4277344 C11.273439,16.2988275 11.6002586,16.234375 11.9570312,16.234375 C12.3138039,16.234375 12.6406235,16.2988275 12.9375,16.4277344 C13.2343765,16.5566413 13.4895823,16.7421863 13.703125,16.984375 C13.9166677,17.2265637 14.0826817,17.5208316 14.2011719,17.8671875 C14.3196621,18.2135434 14.3789062,18.6028624 14.3789062,19.0351562 L14.3789062,19.2851562 Z M13.1914062,19.0273438 C13.1914062,18.4309866 13.0846365,17.9778661 12.8710938,17.6679688 C12.657551,17.3580714 12.3528666,17.203125 11.9570312,17.203125 C11.5611959,17.203125 11.2565115,17.3580714 11.0429688,17.6679688 C10.829426,17.9778661 10.7226562,18.4309866 10.7226562,19.0273438 L10.7226562,19.2851562 C10.7226562,19.5820327 10.7506508,19.8443999 10.8066406,20.0722656 C10.8626305,20.3001313 10.9433588,20.4915357 11.0488281,20.6464844 C11.1542974,20.8014331 11.2838534,20.9186194 11.4375,20.9980469 C11.5911466,21.0774744 11.7669261,21.1171875 11.9648438,21.1171875 C12.3606791,21.1171875 12.6640614,20.9609391 12.875,20.6484375 C13.0859386,20.3359359 13.1914062,19.8815134 13.1914062,19.2851562 L13.1914062,19.0273438 Z M19.6953125,20.1054688 C19.6744791,20.3945327 19.6093755,20.660155 19.5,20.9023438 C19.3906245,21.1445325 19.2395843,21.3522127 19.046875,21.5253906 C18.8541657,21.6985686 18.6204441,21.8339839 18.3457031,21.9316406 C18.0709622,22.0292974 17.7578143,22.078125 17.40625,22.078125 C17.0416648,22.078125 16.7141942,22.0149746 16.4238281,21.8886719 C16.1334621,21.7623692 15.8873708,21.5807304 15.6855469,21.34375 C15.4837229,21.1067696 15.3287766,20.8196631 15.2207031,20.4824219 C15.1126297,20.1451806 15.0585938,19.7669292 15.0585938,19.3476562 L15.0585938,18.9726562 C15.0585938,18.5533833 15.1145828,18.1744809 15.2265625,17.8359375 C15.3385422,17.4973941 15.4967438,17.2096366 15.7011719,16.9726562 C15.9056,16.7356759 16.1536444,16.5533861 16.4453125,16.4257812 C16.7369806,16.2981764 17.0624982,16.234375 17.421875,16.234375 C17.7760434,16.234375 18.0891913,16.2845047 18.3613281,16.3847656 C18.6334649,16.4850265 18.8645824,16.6243481 19.0546875,16.8027344 C19.2447926,16.9811207 19.3932286,17.1933581 19.5,17.4394531 C19.6067714,17.6855481 19.674479,17.9531236 19.703125,18.2421875 L18.53125,18.2421875 C18.5182291,18.0729158 18.4889325,17.9231777 18.4433594,17.7929688 C18.3977862,17.6627598 18.3320317,17.5533859 18.2460938,17.4648438 C18.1601558,17.3763016 18.0494798,17.309245 17.9140625,17.2636719 C17.7786452,17.2180987 17.6145843,17.1953125 17.421875,17.1953125 C17.0260397,17.1953125 16.7311208,17.3391913 16.5371094,17.6269531 C16.343098,17.914715 16.2460938,18.3606741 16.2460938,18.9648438 L16.2460938,19.3476562 C16.2460938,19.6419286 16.2675779,19.8997385 16.3105469,20.1210938 C16.3535158,20.342449 16.4212235,20.527343 16.5136719,20.6757812 C16.6061203,20.8242195 16.7259107,20.9355465 16.8730469,21.0097656 C17.020183,21.0839847 17.1979156,21.1210938 17.40625,21.1210938 C17.5911468,21.1210938 17.7506504,21.1002606 17.8847656,21.0585938 C18.0188809,21.0169269 18.1308589,20.9537765 18.2207031,20.8691406 C18.3105473,20.7845048 18.3802081,20.6783861 18.4296875,20.5507812 C18.4791669,20.4231764 18.5104166,20.2747404 18.5234375,20.1054688 L19.6953125,20.1054688 Z" id="DOC" fill-opacity="0.87" fill="#FFFFFF" sketch:type="MSShapeGroup"></path>
            </g>
        </g>
    </g>
</svg>