<?xml version="1.0" encoding="UTF-8" standalone="no"?>
<svg width="24px" height="24px" viewBox="0 0 24 24" version="1.1" xmlns="http://www.w3.org/2000/svg" xmlns:xlink="http://www.w3.org/1999/xlink" xmlns:sketch="http://www.bohemiancoding.com/sketch/ns">
    <!-- Generator: Sketch 3.3.3 (12081) - http://www.bohemiancoding.com/sketch -->
    <title>ic_list_xls</title>
    <desc>Created with Sketch.</desc>
    <defs></defs>
    <g id="UI" stroke="none" stroke-width="1" fill="none" fill-rule="evenodd" sketch:type="MSPage">
        <g id="assets" sketch:type="MSArtboardGroup" transform="translate(-43.000000, -225.000000)">
            <g id="ic_list_xls" sketch:type="MSLayerGroup" transform="translate(43.000000, 225.000000)">
                <rect id="bounds" sketch:type="MSShapeGroup" x="0" y="0" width="24" height="24"></rect>
                <path d="M3.60355442,23 L3.60355442,23 L19.3964456,23 C19.7278522,23 20,22.7284426 20,22.3973836 L20,5.57787152 L20.3375829,6.32700673 L14.0295032,0.749135212 L14.6919203,1 L3.60744048,1 C3.26946656,1 3,1.26720273 3,1.59329362 L3,22.4067064 C3,22.7301845 3.27097392,23 3.60355442,23 L3.60355442,23 Z M3.60355442,24 C2.71793577,24 2,23.2817277 2,22.4067064 L2,1.59329362 C2,0.713341853 2.71873759,0 3.60744048,0 L14.6919203,0 L21,5.57787152 L21,22.3973836 C21,23.2824842 20.2783785,24 19.3964456,24 L3.60355442,24 L3.60355442,24 Z" id="Shape" fill="#8F8F8F" sketch:type="MSShapeGroup"></path>
                <path d="M6.5,9 L16.5,9 C16.7761424,9 17,8.77614237 17,8.5 C17,8.22385763 16.7761424,8 16.5,8 L6.5,8 C6.22385763,8 6,8.22385763 6,8.5 C6,8.77614237 6.22385763,9 6.5,9 L6.5,9 Z" id="Shape" fill="#8F8F8F" sketch:type="MSShapeGroup"></path>
                <path d="M6.5,11 L8.5,11 C8.77614237,11 9,10.7761424 9,10.5 C9,10.2238576 8.77614237,10 8.5,10 L6.5,10 C6.22385763,10 6,10.2238576 6,10.5 C6,10.7761424 6.22385763,11 6.5,11 L6.5,11 Z" id="Shape" fill="#8F8F8F" sketch:type="MSShapeGroup"></path>
                <path d="M10.5,11 L12.5,11 C12.7761424,11 13,10.7761424 13,10.5 C13,10.2238576 12.7761424,10 12.5,10 L10.5,10 C10.2238576,10 10,10.2238576 10,10.5 C10,10.7761424 10.2238576,11 10.5,11 L10.5,11 Z" id="Shape" fill="#8F8F8F" sketch:type="MSShapeGroup"></path>
                <path d="M14.5,11 L16.5,11 C16.7761424,11 17,10.7761424 17,10.5 C17,10.2238576 16.7761424,10 16.5,10 L14.5,10 C14.2238576,10 14,10.2238576 14,10.5 C14,10.7761424 14.2238576,11 14.5,11 L14.5,11 Z" id="Shape" fill="#8F8F8F" sketch:type="MSShapeGroup"></path>
                <path d="M6.5,13 L8.5,13 C8.77614237,13 9,12.7761424 9,12.5 C9,12.2238576 8.77614237,12 8.5,12 L6.5,12 C6.22385763,12 6,12.2238576 6,12.5 C6,12.7761424 6.22385763,13 6.5,13 L6.5,13 Z" id="Shape" fill="#8F8F8F" sketch:type="MSShapeGroup"></path>
                <path d="M10.5,13 L12.5,13 C12.7761424,13 13,12.7761424 13,12.5 C13,12.2238576 12.7761424,12 12.5,12 L10.5,12 C10.2238576,12 10,12.2238576 10,12.5 C10,12.7761424 10.2238576,13 10.5,13 L10.5,13 Z" id="Shape" fill="#8F8F8F" sketch:type="MSShapeGroup"></path>
                <path d="M14.5,13 L16.5,13 C16.7761424,13 17,12.7761424 17,12.5 C17,12.2238576 16.7761424,12 16.5,12 L14.5,12 C14.2238576,12 14,12.2238576 14,12.5 C14,12.7761424 14.2238576,13 14.5,13 L14.5,13 Z" id="Shape" fill="#8F8F8F" sketch:type="MSShapeGroup"></path>
                <rect id="Rectangle-179" fill="#8F8F8F" sketch:type="MSShapeGroup" x="0" y="14" width="24" height="10" rx="2"></rect>
                <path d="M7.54296875,18.2734375 L8.609375,16.3125 L9.95703125,16.3125 L8.30078125,19.1328125 L10,22 L8.63671875,22 L7.54296875,20.0078125 L6.44921875,22 L5.0859375,22 L6.78515625,19.1328125 L5.12890625,16.3125 L6.4765625,16.3125 L7.54296875,18.2734375 Z M11.7617188,21.0585938 L14.25,21.0585938 L14.25,22 L10.5898438,22 L10.5898438,16.3125 L11.7617188,16.3125 L11.7617188,21.0585938 Z M17.8710938,20.5078125 C17.8710938,20.4088537 17.856771,20.3196619 17.828125,20.2402344 C17.799479,20.1608069 17.744141,20.0872399 17.6621094,20.0195312 C17.5800777,19.9518226 17.4667976,19.885417 17.3222656,19.8203125 C17.1777337,19.755208 16.9908866,19.6861983 16.7617188,19.6132812 C16.5013008,19.5299475 16.2558605,19.4361984 16.0253906,19.3320312 C15.7949207,19.2278641 15.5930998,19.1048184 15.4199219,18.9628906 C15.2467439,18.8209628 15.1100265,18.657553 15.0097656,18.4726562 C14.9095047,18.2877595 14.859375,18.0716158 14.859375,17.8242188 C14.859375,17.5872384 14.9108068,17.3704437 15.0136719,17.1738281 C15.116537,16.9772126 15.2610668,16.8098965 15.4472656,16.671875 C15.6334645,16.5338535 15.8548164,16.4264327 16.1113281,16.3496094 C16.3678398,16.2727861 16.649738,16.234375 16.9570312,16.234375 C17.272137,16.234375 17.5585925,16.2779944 17.8164062,16.3652344 C18.07422,16.4524744 18.2942699,16.574218 18.4765625,16.7304688 C18.6588551,16.8867195 18.7994787,17.0722646 18.8984375,17.2871094 C18.9973963,17.5019542 19.046875,17.7369779 19.046875,17.9921875 L17.875,17.9921875 C17.875,17.8723952 17.85612,17.7617193 17.8183594,17.6601562 C17.7805988,17.5585932 17.7226566,17.4713545 17.6445312,17.3984375 C17.5664059,17.3255205 17.4687506,17.2688804 17.3515625,17.2285156 C17.2343744,17.1881508 17.096355,17.1679688 16.9375,17.1679688 C16.7838534,17.1679688 16.6503912,17.1848957 16.5371094,17.21875 C16.4238276,17.2526043 16.3300785,17.2994789 16.2558594,17.359375 C16.1816403,17.4192711 16.1256512,17.4895829 16.0878906,17.5703125 C16.05013,17.6510421 16.03125,17.7369787 16.03125,17.828125 C16.03125,18.0156259 16.1269522,18.1725254 16.3183594,18.2988281 C16.5097666,18.4251308 16.7903627,18.5429682 17.1601562,18.6523438 C17.4700536,18.7486984 17.7428374,18.8554682 17.9785156,18.9726562 C18.2141939,19.0898443 18.4108065,19.2226555 18.5683594,19.3710938 C18.7259122,19.519532 18.8450517,19.686197 18.9257812,19.8710938 C19.0065108,20.0559905 19.046875,20.2656238 19.046875,20.5 C19.046875,20.7500013 18.9980474,20.9726553 18.9003906,21.1679688 C18.8027339,21.3632822 18.6640634,21.5279941 18.484375,21.6621094 C18.3046866,21.7962246 18.0878919,21.8990882 17.8339844,21.9707031 C17.5800769,22.0423181 17.2968766,22.078125 16.984375,22.078125 C16.7968741,22.078125 16.6093759,22.0618491 16.421875,22.0292969 C16.2343741,21.9967446 16.0553394,21.9466149 15.8847656,21.8789062 C15.7141919,21.8111976 15.5559903,21.726563 15.4101562,21.625 C15.2643222,21.523437 15.1373703,21.4036465 15.0292969,21.265625 C14.9212234,21.1276035 14.8365888,20.970704 14.7753906,20.7949219 C14.7141924,20.6191397 14.6835938,20.4244802 14.6835938,20.2109375 L15.859375,20.2109375 C15.859375,20.3828134 15.8867185,20.5286452 15.9414062,20.6484375 C15.996094,20.7682298 16.0722651,20.865234 16.1699219,20.9394531 C16.2675786,21.0136722 16.385416,21.0677082 16.5234375,21.1015625 C16.661459,21.1354168 16.8151033,21.1523438 16.984375,21.1523438 C17.1354174,21.1523438 17.2669265,21.1360679 17.3789062,21.1035156 C17.490886,21.0709634 17.583333,21.026042 17.65625,20.96875 C17.729167,20.911458 17.7832029,20.8430994 17.8183594,20.7636719 C17.8535158,20.6842444 17.8710938,20.5989588 17.8710938,20.5078125 L17.8710938,20.5078125 Z" id="XLS" fill-opacity="0.87" fill="#FFFFFF" sketch:type="MSShapeGroup"></path>
            </g>
        </g>
    </g>
</svg>