<?xml version="1.0" encoding="UTF-8" standalone="no"?>
<svg width="24px" height="24px" viewBox="0 0 24 24" version="1.1" xmlns="http://www.w3.org/2000/svg" xmlns:xlink="http://www.w3.org/1999/xlink" xmlns:sketch="http://www.bohemiancoding.com/sketch/ns">
    <!-- Generator: Sketch 3.3.3 (12081) - http://www.bohemiancoding.com/sketch -->
    <title>ic_list_zip</title>
    <desc>Created with Sketch.</desc>
    <defs></defs>
    <g id="UI" stroke="none" stroke-width="1" fill="none" fill-rule="evenodd" sketch:type="MSPage">
        <g id="assets" sketch:type="MSArtboardGroup" transform="translate(-180.000000, -195.000000)">
            <g id="ic_list_zip" sketch:type="MSLayerGroup" transform="translate(180.000000, 195.000000)">
                <rect id="bounds" sketch:type="MSShapeGroup" x="0" y="0" width="24" height="24"></rect>
                <path d="M3.60355442,23 L3.60355442,23 L19.3964456,23 C19.7278522,23 20,22.7284426 20,22.3973836 L20,5.57787152 L20.3375829,6.32700673 L14.0295032,0.749135212 L14.6919203,1 L3.60744048,1 C3.26946656,1 3,1.26720273 3,1.59329362 L3,22.4067064 C3,22.7301845 3.27097392,23 3.60355442,23 L3.60355442,23 Z M3.60355442,24 C2.71793577,24 2,23.2817277 2,22.4067064 L2,1.59329362 C2,0.713341853 2.71873759,0 3.60744048,0 L14.6919203,0 L21,5.57787152 L21,22.3973836 C21,23.2824842 20.2783785,24 19.3964456,24 L3.60355442,24 L3.60355442,24 Z" id="Shape" fill="#8F8F8F" sketch:type="MSShapeGroup"></path>
                <rect id="Rectangle-179" fill="#8F8F8F" sketch:type="MSShapeGroup" x="0" y="14" width="24" height="10" rx="2"></rect>
                <g id="Group" transform="translate(6.000000, 2.000000)" sketch:type="MSShapeGroup">
                    <rect id="Rectangle-192" fill="#8F8F8F" x="0" y="3" width="6" height="6"></rect>
                    <path d="M0.7,2 L6.3,2 C6.57614237,2 6.8,1.77614237 6.8,1.5 C6.8,1.22385763 6.57614237,1 6.3,1 L0.7,1 C0.423857625,1 0.2,1.22385763 0.2,1.5 C0.2,1.77614237 0.423857625,2 0.7,2 L0.7,2 Z" id="Shape" fill="#979797"></path>
                    <path d="M0.7,11 L6.3,11 C6.57614237,11 6.8,10.7761424 6.8,10.5 C6.8,10.2238576 6.57614237,10 6.3,10 L0.7,10 C0.423857625,10 0.2,10.2238576 0.2,10.5 C0.2,10.7761424 0.423857625,11 0.7,11 L0.7,11 Z" id="Shape" fill="#979797"></path>
                    <path d="M6.02565833,1.65811389 L7.02565833,4.65811379 C7.11298222,4.92008545 7.39614221,5.06166544 7.65811386,4.97434155 C7.92008552,4.88701766 8.06166551,4.60385768 7.97434162,4.34188602 L6.97434162,1.34188611 C6.88701773,1.07991446 6.60385775,0.938334465 6.34188609,1.02565835 C6.07991443,1.11298224 5.93833444,1.39614223 6.02565833,1.65811389 L6.02565833,1.65811389 Z" id="Shape" fill="#979797"></path>
                    <path d="M7.02565833,7.34188611 L6.02565833,10.341886 C5.93833444,10.6038577 6.07991443,10.8870177 6.34188609,10.9743416 C6.60385775,11.0616654 6.88701773,10.9200855 6.97434162,10.6581138 L7.97434162,7.65811389 C8.06166551,7.39614223 7.92008552,7.11298224 7.65811386,7.02565835 C7.39614221,6.93833447 7.11298222,7.07991446 7.02565833,7.34188611 L7.02565833,7.34188611 Z" id="Shape" fill="#979797"></path>
                    <path d="M8,5.5 L8,6.5 C8,6.77614237 8.22385763,7 8.5,7 C8.77614237,7 9,6.77614237 9,6.5 L9,5.5 C9,5.22385763 8.77614237,5 8.5,5 C8.22385763,5 8,5.22385763 8,5.5 L8,5.5 Z" id="Shape" fill="#979797"></path>
                    <path d="M9,5.5 L9,6.5 C9,6.77614237 9.22385763,7 9.5,7 C9.77614237,7 10,6.77614237 10,6.5 L10,5.5 C10,5.22385763 9.77614237,5 9.5,5 C9.22385763,5 9,5.22385763 9,5.5 L9,5.5 Z" id="Shape" fill="#979797"></path>
                    <path d="M10,5.5 L10,6.5 C10,6.77614237 10.2238576,7 10.5,7 C10.7761424,7 11,6.77614237 11,6.5 L11,5.5 C11,5.22385763 10.7761424,5 10.5,5 C10.2238576,5 10,5.22385763 10,5.5 L10,5.5 Z" id="Shape" fill="#979797"></path>
                </g>
                <path d="M7.75,21.0585938 L10.6171875,21.0585938 L10.6171875,22 L6.28515625,22 L6.28515625,21.3125 L9.09765625,17.2617188 L6.2890625,17.2617188 L6.2890625,16.3125 L10.5546875,16.3125 L10.5546875,16.984375 L7.75,21.0585938 Z M12.6015625,22 L11.4296875,22 L11.4296875,16.3125 L12.6015625,16.3125 L12.6015625,22 Z M14.859375,19.9960938 L14.859375,22 L13.6875,22 L13.6875,16.3125 L15.90625,16.3125 C16.2421892,16.3125 16.5423164,16.3593745 16.8066406,16.453125 C17.0709649,16.5468755 17.294921,16.6777335 17.4785156,16.8457031 C17.6621103,17.0136727 17.8020829,17.2128895 17.8984375,17.4433594 C17.9947921,17.6738293 18.0429688,17.9244778 18.0429688,18.1953125 C18.0429688,18.4713555 17.9947921,18.720051 17.8984375,18.9414062 C17.8020829,19.1627615 17.6621103,19.3515617 17.4785156,19.5078125 C17.294921,19.6640633 17.0709649,19.7845048 16.8066406,19.8691406 C16.5423164,19.9537765 16.2421892,19.9960938 15.90625,19.9960938 L14.859375,19.9960938 Z M14.859375,19.046875 L15.90625,19.046875 C16.0729175,19.046875 16.2167963,19.0260419 16.3378906,18.984375 C16.458985,18.9427081 16.5579423,18.884766 16.6347656,18.8105469 C16.7115889,18.7363278 16.768229,18.6471359 16.8046875,18.5429688 C16.841146,18.4388016 16.859375,18.3255214 16.859375,18.203125 C16.859375,18.0807286 16.841146,17.9628912 16.8046875,17.8496094 C16.768229,17.7363276 16.7115889,17.6360681 16.6347656,17.5488281 C16.5579423,17.4615881 16.458985,17.3919273 16.3378906,17.3398438 C16.2167963,17.2877602 16.0729175,17.2617188 15.90625,17.2617188 L14.859375,17.2617188 L14.859375,19.046875 Z" id="ZIP" fill-opacity="0.87" fill="#FFFFFF" sketch:type="MSShapeGroup"></path>
            </g>
        </g>
    </g>
</svg>