<?xml version="1.0" encoding="UTF-8" standalone="no"?>
<svg width="24px" height="24px" viewBox="0 0 24 24" version="1.1" xmlns="http://www.w3.org/2000/svg" xmlns:xlink="http://www.w3.org/1999/xlink" xmlns:sketch="http://www.bohemiancoding.com/sketch/ns">
    <!-- Generator: Sketch 3.3.3 (12081) - http://www.bohemiancoding.com/sketch -->
    <title>ic_list_waw</title>
    <desc>Created with Sketch.</desc>
    <defs></defs>
    <g id="UI" stroke="none" stroke-width="1" fill="none" fill-rule="evenodd" sketch:type="MSPage">
        <g id="assets" sketch:type="MSArtboardGroup" transform="translate(-342.000000, -225.000000)">
            <g id="ic_list_waw" sketch:type="MSLayerGroup" transform="translate(342.000000, 225.000000)">
                <rect id="bounds" sketch:type="MSShapeGroup" x="0" y="0" width="24" height="24"></rect>
                <path d="M3.60355442,23 L3.60355442,23 L19.3964456,23 C19.7278522,23 20,22.7284426 20,22.3973836 L20,5.57787152 L20.3375829,6.32700673 L14.0295032,0.749135212 L14.6919203,1 L3.60744048,1 C3.26946656,1 3,1.26720273 3,1.59329362 L3,22.4067064 C3,22.7301845 3.27097392,23 3.60355442,23 L3.60355442,23 Z M3.60355442,24 C2.71793577,24 2,23.2817277 2,22.4067064 L2,1.59329362 C2,0.713341853 2.71873759,0 3.60744048,0 L14.6919203,0 L21,5.57787152 L21,22.3973836 C21,23.2824842 20.2783785,24 19.3964456,24 L3.60355442,24 L3.60355442,24 Z" id="Shape" fill="#8F8F8F" sketch:type="MSShapeGroup"></path>
                <rect id="Rectangle-179" fill="#8F8F8F" sketch:type="MSShapeGroup" x="0" y="14" width="24" height="10" rx="2"></rect>
                <ellipse id="Oval-29" fill="#8F8F8F" sketch:type="MSShapeGroup" cx="8" cy="11.5" rx="2" ry="1.5"></ellipse>
                <ellipse id="Oval-29" fill="#8F8F8F" sketch:type="MSShapeGroup" cx="13" cy="10.5" rx="2" ry="1.5"></ellipse>
                <path d="M9,4.5 L9,11.5 C9,11.7761424 9.22385763,12 9.5,12 C9.77614237,12 10,11.7761424 10,11.5 L10,4.5 C10,4.22385763 9.77614237,4 9.5,4 C9.22385763,4 9,4.22385763 9,4.5 L9,4.5 Z" id="Shape" fill="#8F8F8F" sketch:type="MSShapeGroup"></path>
                <path d="M14,3.5 L14,10.5 C14,10.7761424 14.2238576,11 14.5,11 C14.7761424,11 15,10.7761424 15,10.5 L15,3.5 C15,3.22385763 14.7761424,3 14.5,3 C14.2238576,3 14,3.22385763 14,3.5 L14,3.5 Z" id="Shape" fill="#8F8F8F" sketch:type="MSShapeGroup"></path>
                <path d="M9.59805807,4.99029034 L14.5980581,3.99029034 C14.8688379,3.93613436 15.0444463,3.67272181 14.9902903,3.40194193 C14.9361344,3.13116206 14.6727218,2.95555369 14.4019419,3.00970966 L9.40194193,4.00970966 C9.13116206,4.06386564 8.95555369,4.32727819 9.00970966,4.59805807 C9.06386564,4.86883794 9.32727819,5.04444631 9.59805807,4.99029034 L9.59805807,4.99029034 Z" id="Shape" fill="#8F8F8F" sketch:type="MSShapeGroup"></path>
                <path d="M9.59805807,6.99029034 L14.5980581,5.99029034 C14.8688379,5.93613436 15.0444463,5.67272181 14.9902903,5.40194193 C14.9361344,5.13116206 14.6727218,4.95555369 14.4019419,5.00970966 L9.40194193,6.00970966 C9.13116206,6.06386564 8.95555369,6.32727819 9.00970966,6.59805807 C9.06386564,6.86883794 9.32727819,7.04444631 9.59805807,6.99029034 L9.59805807,6.99029034 Z" id="Shape" fill="#8F8F8F" sketch:type="MSShapeGroup"></path>
                <path d="M6.9375,20.359375 L7.703125,16.3125 L8.87109375,16.3125 L7.609375,22 L6.4296875,22 L5.50390625,18.1953125 L4.578125,22 L3.3984375,22 L2.13671875,16.3125 L3.3046875,16.3125 L4.07421875,20.3515625 L5.01171875,16.3125 L6.00390625,16.3125 L6.9375,20.359375 Z M12.546875,20.828125 L10.4921875,20.828125 L10.1015625,22 L8.85546875,22 L10.9726562,16.3125 L12.0585938,16.3125 L14.1875,22 L12.9414062,22 L12.546875,20.828125 Z M10.8085938,19.8789062 L12.2304688,19.8789062 L11.515625,17.75 L10.8085938,19.8789062 Z M18.9960938,20.359375 L19.7617188,16.3125 L20.9296875,16.3125 L19.6679688,22 L18.4882812,22 L17.5625,18.1953125 L16.6367188,22 L15.4570313,22 L14.1953125,16.3125 L15.3632813,16.3125 L16.1328125,20.3515625 L17.0703125,16.3125 L18.0625,16.3125 L18.9960938,20.359375 Z" id="mp3" fill-opacity="0.87" fill="#FFFFFF" sketch:type="MSShapeGroup"></path>
            </g>
        </g>
    </g>
</svg>