<?xml version="1.0" encoding="UTF-8" standalone="no"?>
<svg width="24px" height="24px" viewBox="0 0 24 24" version="1.1" xmlns="http://www.w3.org/2000/svg" xmlns:xlink="http://www.w3.org/1999/xlink" xmlns:sketch="http://www.bohemiancoding.com/sketch/ns">
    <!-- Generator: Sketch 3.3.3 (12081) - http://www.bohemiancoding.com/sketch -->
    <title>ic_list_bz2</title>
    <desc>Created with Sketch.</desc>
    <defs></defs>
    <g id="UI" stroke="none" stroke-width="1" fill="none" fill-rule="evenodd" sketch:type="MSPage">
        <g id="assets" sketch:type="MSArtboardGroup" transform="translate(-279.000000, -195.000000)">
            <g id="ic_list_bz2" sketch:type="MSLayerGroup" transform="translate(279.000000, 195.000000)">
                <rect id="bounds" sketch:type="MSShapeGroup" x="0" y="0" width="24" height="24"></rect>
                <path d="M3.60355442,23 L3.60355442,23 L19.3964456,23 C19.7278522,23 20,22.7284426 20,22.3973836 L20,5.57787152 L20.3375829,6.32700673 L14.0295032,0.749135212 L14.6919203,1 L3.60744048,1 C3.26946656,1 3,1.26720273 3,1.59329362 L3,22.4067064 C3,22.7301845 3.27097392,23 3.60355442,23 L3.60355442,23 Z M3.60355442,24 C2.71793577,24 2,23.2817277 2,22.4067064 L2,1.59329362 C2,0.713341853 2.71873759,0 3.60744048,0 L14.6919203,0 L21,5.57787152 L21,22.3973836 C21,23.2824842 20.2783785,24 19.3964456,24 L3.60355442,24 L3.60355442,24 Z" id="Shape" fill="#8F8F8F" sketch:type="MSShapeGroup"></path>
                <g id="Group" transform="translate(6.000000, 2.000000)" sketch:type="MSShapeGroup">
                    <rect id="Rectangle-192" fill="#8F8F8F" x="0" y="3" width="6" height="6"></rect>
                    <path d="M0.7,2 L6.3,2 C6.57614237,2 6.8,1.77614237 6.8,1.5 C6.8,1.22385763 6.57614237,1 6.3,1 L0.7,1 C0.423857625,1 0.2,1.22385763 0.2,1.5 C0.2,1.77614237 0.423857625,2 0.7,2 L0.7,2 Z" id="Shape" fill="#979797"></path>
                    <path d="M0.7,11 L6.3,11 C6.57614237,11 6.8,10.7761424 6.8,10.5 C6.8,10.2238576 6.57614237,10 6.3,10 L0.7,10 C0.423857625,10 0.2,10.2238576 0.2,10.5 C0.2,10.7761424 0.423857625,11 0.7,11 L0.7,11 Z" id="Shape" fill="#979797"></path>
                    <path d="M6.02565833,1.65811389 L7.02565833,4.65811379 C7.11298222,4.92008545 7.39614221,5.06166544 7.65811386,4.97434155 C7.92008552,4.88701766 8.06166551,4.60385768 7.97434162,4.34188602 L6.97434162,1.34188611 C6.88701773,1.07991446 6.60385775,0.938334465 6.34188609,1.02565835 C6.07991443,1.11298224 5.93833444,1.39614223 6.02565833,1.65811389 L6.02565833,1.65811389 Z" id="Shape" fill="#979797"></path>
                    <path d="M7.02565833,7.34188611 L6.02565833,10.341886 C5.93833444,10.6038577 6.07991443,10.8870177 6.34188609,10.9743416 C6.60385775,11.0616654 6.88701773,10.9200855 6.97434162,10.6581138 L7.97434162,7.65811389 C8.06166551,7.39614223 7.92008552,7.11298224 7.65811386,7.02565835 C7.39614221,6.93833447 7.11298222,7.07991446 7.02565833,7.34188611 L7.02565833,7.34188611 Z" id="Shape" fill="#979797"></path>
                    <path d="M8,5.5 L8,6.5 C8,6.77614237 8.22385763,7 8.5,7 C8.77614237,7 9,6.77614237 9,6.5 L9,5.5 C9,5.22385763 8.77614237,5 8.5,5 C8.22385763,5 8,5.22385763 8,5.5 L8,5.5 Z" id="Shape" fill="#979797"></path>
                    <path d="M9,5.5 L9,6.5 C9,6.77614237 9.22385763,7 9.5,7 C9.77614237,7 10,6.77614237 10,6.5 L10,5.5 C10,5.22385763 9.77614237,5 9.5,5 C9.22385763,5 9,5.22385763 9,5.5 L9,5.5 Z" id="Shape" fill="#979797"></path>
                    <path d="M10,5.5 L10,6.5 C10,6.77614237 10.2238576,7 10.5,7 C10.7761424,7 11,6.77614237 11,6.5 L11,5.5 C11,5.22385763 10.7761424,5 10.5,5 C10.2238576,5 10,5.22385763 10,5.5 L10,5.5 Z" id="Shape" fill="#979797"></path>
                </g>
                <rect id="Rectangle-179" fill="#8F8F8F" sketch:type="MSShapeGroup" x="0" y="14" width="24" height="10" rx="2"></rect>
                <path d="M4.5078125,22 L4.5078125,16.3125 L6.5,16.3125 C6.83073082,16.3125 7.12630078,16.3437497 7.38671875,16.40625 C7.64713672,16.4687503 7.86783764,16.5644525 8.04882812,16.6933594 C8.22981861,16.8222663 8.36783807,16.984374 8.46289062,17.1796875 C8.55794318,17.375001 8.60546875,17.6054674 8.60546875,17.8710938 C8.60546875,18.0013027 8.58919287,18.1263015 8.55664062,18.2460938 C8.52408838,18.365886 8.47460971,18.4778641 8.40820312,18.5820312 C8.34179654,18.6861984 8.25781301,18.7805985 8.15625,18.8652344 C8.05468699,18.9498702 7.93359445,19.019531 7.79296875,19.0742188 C7.95963625,19.1158856 8.10221295,19.179036 8.22070312,19.2636719 C8.3391933,19.3483077 8.43684857,19.446614 8.51367188,19.5585938 C8.59049518,19.6705735 8.6464842,19.7923171 8.68164062,19.9238281 C8.71679705,20.0553392 8.734375,20.1901035 8.734375,20.328125 C8.734375,20.8802111 8.5566424,21.2968736 8.20117188,21.578125 C7.84570135,21.8593764 7.33984703,22 6.68359375,22 L4.5078125,22 Z M5.6796875,19.5234375 L5.6796875,21.0585938 L6.68359375,21.0585938 C6.83463617,21.0585938 6.9648432,21.0397137 7.07421875,21.0019531 C7.1835943,20.9641925 7.27473922,20.9121097 7.34765625,20.8457031 C7.42057328,20.7792965 7.4746092,20.7011723 7.50976562,20.6113281 C7.54492205,20.5214839 7.5625,20.4231776 7.5625,20.3164062 C7.5625,20.1940098 7.54687516,20.0839849 7.515625,19.9863281 C7.48437484,19.8886714 7.43554721,19.8053389 7.36914062,19.7363281 C7.30273404,19.6673174 7.21614637,19.6145835 7.109375,19.578125 C7.00260363,19.5416665 6.87500074,19.5234375 6.7265625,19.5234375 L5.6796875,19.5234375 Z M5.6796875,18.6953125 L6.546875,18.6953125 C6.84635566,18.6901041 7.06900969,18.6269537 7.21484375,18.5058594 C7.36067781,18.384765 7.43359375,18.2122407 7.43359375,17.9882812 C7.43359375,17.7304675 7.35872471,17.5449224 7.20898438,17.4316406 C7.05924404,17.3183588 6.82291828,17.2617188 6.5,17.2617188 L5.6796875,17.2617188 L5.6796875,18.6953125 Z M10.8554688,21.0585938 L13.7226562,21.0585938 L13.7226562,22 L9.390625,22 L9.390625,21.3125 L12.203125,17.2617188 L9.39453125,17.2617188 L9.39453125,16.3125 L13.6601562,16.3125 L13.6601562,16.984375 L10.8554688,21.0585938 Z M18.2382812,22 L14.3398438,22 L14.3398438,21.2265625 L16.1796875,19.265625 C16.317709,19.1145826 16.4342443,18.9765631 16.5292969,18.8515625 C16.6243494,18.7265619 16.7011716,18.6119797 16.7597656,18.5078125 C16.8183597,18.4036453 16.8600259,18.3066411 16.8847656,18.2167969 C16.9095053,18.1269527 16.921875,18.040365 16.921875,17.9570312 C16.921875,17.7044258 16.8580736,17.5058601 16.7304688,17.3613281 C16.6028639,17.2167962 16.4205741,17.1445312 16.1835938,17.1445312 C16.0507806,17.1445312 15.9329432,17.1686196 15.8300781,17.2167969 C15.727213,17.2649742 15.6412764,17.3313798 15.5722656,17.4160156 C15.5032549,17.5006515 15.450521,17.6015619 15.4140625,17.71875 C15.377604,17.8359381 15.359375,17.963541 15.359375,18.1015625 L14.2265625,18.1015625 C14.2265625,17.8463529 14.272135,17.6054699 14.3632812,17.3789062 C14.4544275,17.1523426 14.5859366,16.9544279 14.7578125,16.7851562 C14.9296884,16.6158846 15.1373686,16.4817713 15.3808594,16.3828125 C15.6243502,16.2838537 15.898436,16.234375 16.203125,16.234375 C16.5026057,16.234375 16.767577,16.271484 16.9980469,16.3457031 C17.2285168,16.4199222 17.4218742,16.526041 17.578125,16.6640625 C17.7343758,16.802084 17.8528642,16.9713532 17.9335938,17.171875 C18.0143233,17.3723968 18.0546875,17.597655 18.0546875,17.8476562 C18.0546875,18.0377614 18.0247399,18.2213533 17.9648438,18.3984375 C17.9049476,18.5755217 17.820313,18.7526033 17.7109375,18.9296875 C17.601562,19.1067717 17.4694018,19.2858064 17.3144531,19.4667969 C17.1595044,19.6477874 16.9869801,19.8359365 16.796875,20.03125 L15.7929688,21.0898438 L18.2382812,21.0898438 L18.2382812,22 Z" id="BZ2" fill-opacity="0.87" fill="#FFFFFF" sketch:type="MSShapeGroup"></path>
            </g>
        </g>
    </g>
</svg>