<?xml version="1.0" encoding="UTF-8" standalone="no"?>
<svg width="24px" height="24px" viewBox="0 0 24 24" version="1.1" xmlns="http://www.w3.org/2000/svg" xmlns:xlink="http://www.w3.org/1999/xlink" xmlns:sketch="http://www.bohemiancoding.com/sketch/ns">
    <!-- Generator: Sketch 3.3.3 (12081) - http://www.bohemiancoding.com/sketch -->
    <title>ic_list_ico</title>
    <desc>Created with Sketch.</desc>
    <defs></defs>
    <g id="UI" stroke="none" stroke-width="1" fill="none" fill-rule="evenodd" sketch:type="MSPage">
        <g id="assets" sketch:type="MSArtboardGroup" transform="translate(-465.000000, -195.000000)">
            <g id="ic_list_ico" sketch:type="MSLayerGroup" transform="translate(465.000000, 195.000000)">
                <rect id="bounds" sketch:type="MSShapeGroup" x="0" y="0" width="24" height="24"></rect>
                <path d="M3.60355442,23 L3.60355442,23 L19.3964456,23 C19.7278522,23 20,22.7284426 20,22.3973836 L20,5.57787152 L20.3375829,6.32700673 L14.0295032,0.749135212 L14.6919203,1 L3.60744048,1 C3.26946656,1 3,1.26720273 3,1.59329362 L3,22.4067064 C3,22.7301845 3.27097392,23 3.60355442,23 L3.60355442,23 Z M3.60355442,24 C2.71793577,24 2,23.2817277 2,22.4067064 L2,1.59329362 C2,0.713341853 2.71873759,0 3.60744048,0 L14.6919203,0 L21,5.57787152 L21,22.3973836 C21,23.2824842 20.2783785,24 19.3964456,24 L3.60355442,24 L3.60355442,24 Z" id="Shape" fill="#8F8F8F" sketch:type="MSShapeGroup"></path>
                <rect id="Rectangle-179" fill="#8F8F8F" sketch:type="MSShapeGroup" x="0" y="14" width="24" height="10" rx="2"></rect>
                <path d="M4,12.1067209 C4,12.1067209 7.73908615,8 9.61408615,8 C11.4890862,8 14.0404234,10.0485101 16.1280422,10.0485101 C18.215661,10.0485101 19,8 19,8 L19,13 L4,13 L4,12.1067209 Z" id="Path-13" fill="#8F8F8F" sketch:type="MSShapeGroup"></path>
                <circle id="Oval-33" fill="#8F8F8F" sketch:type="MSShapeGroup" cx="14.5" cy="5.5" r="2.5"></circle>
                <path d="M6.75390625,22 L5.58203125,22 L5.58203125,16.3125 L6.75390625,16.3125 L6.75390625,22 Z M12.3046875,20.1054688 C12.2838541,20.3945327 12.2187505,20.660155 12.109375,20.9023438 C11.9999995,21.1445325 11.8489593,21.3522127 11.65625,21.5253906 C11.4635407,21.6985686 11.2298191,21.8339839 10.9550781,21.9316406 C10.6803372,22.0292974 10.3671893,22.078125 10.015625,22.078125 C9.65103984,22.078125 9.32356916,22.0149746 9.03320312,21.8886719 C8.74283709,21.7623692 8.4967458,21.5807304 8.29492188,21.34375 C8.09309795,21.1067696 7.93815158,20.8196631 7.83007812,20.4824219 C7.72200467,20.1451806 7.66796875,19.7669292 7.66796875,19.3476562 L7.66796875,18.9726562 C7.66796875,18.5533833 7.72395777,18.1744809 7.8359375,17.8359375 C7.94791723,17.4973941 8.10611877,17.2096366 8.31054688,16.9726562 C8.51497498,16.7356759 8.76301937,16.5533861 9.0546875,16.4257812 C9.34635563,16.2981764 9.6718732,16.234375 10.03125,16.234375 C10.3854184,16.234375 10.6985663,16.2845047 10.9707031,16.3847656 C11.2428399,16.4850265 11.4739574,16.6243481 11.6640625,16.8027344 C11.8541676,16.9811207 12.0026036,17.1933581 12.109375,17.4394531 C12.2161464,17.6855481 12.283854,17.9531236 12.3125,18.2421875 L11.140625,18.2421875 C11.1276041,18.0729158 11.0983075,17.9231777 11.0527344,17.7929688 C11.0071612,17.6627598 10.9414067,17.5533859 10.8554688,17.4648438 C10.7695308,17.3763016 10.6588548,17.309245 10.5234375,17.2636719 C10.3880202,17.2180987 10.2239593,17.1953125 10.03125,17.1953125 C9.63541469,17.1953125 9.34049576,17.3391913 9.14648438,17.6269531 C8.95247299,17.914715 8.85546875,18.3606741 8.85546875,18.9648438 L8.85546875,19.3476562 C8.85546875,19.6419286 8.87695291,19.8997385 8.91992188,20.1210938 C8.96289084,20.342449 9.0305985,20.527343 9.12304688,20.6757812 C9.21549525,20.8242195 9.33528572,20.9355465 9.48242188,21.0097656 C9.62955803,21.0839847 9.80729063,21.1210938 10.015625,21.1210938 C10.2005218,21.1210938 10.3600254,21.1002606 10.4941406,21.0585938 C10.6282559,21.0169269 10.7402339,20.9537765 10.8300781,20.8691406 C10.9199223,20.7845048 10.9895831,20.6783861 11.0390625,20.5507812 C11.0885419,20.4231764 11.1197916,20.2747404 11.1328125,20.1054688 L12.3046875,20.1054688 Z M17.7460938,19.2851562 C17.7460938,19.7200543 17.6875006,20.1100243 17.5703125,20.4550781 C17.4531244,20.8001319 17.2884125,21.0924467 17.0761719,21.3320312 C16.8639312,21.5716158 16.6093765,21.7558587 16.3125,21.8847656 C16.0156235,22.0136725 15.6888039,22.078125 15.3320312,22.078125 C14.9752586,22.078125 14.648439,22.0136725 14.3515625,21.8847656 C14.054686,21.7558587 13.7988292,21.5716158 13.5839844,21.3320312 C13.3691396,21.0924467 13.2018235,20.8001319 13.0820312,20.4550781 C12.962239,20.1100243 12.9023438,19.7200543 12.9023438,19.2851562 L12.9023438,19.0351562 C12.9023438,18.6028624 12.9615879,18.2135434 13.0800781,17.8671875 C13.1985683,17.5208316 13.3645823,17.2265637 13.578125,16.984375 C13.7916677,16.7421863 14.0468735,16.5566413 14.34375,16.4277344 C14.6406265,16.2988275 14.9674461,16.234375 15.3242188,16.234375 C15.6809914,16.234375 16.007811,16.2988275 16.3046875,16.4277344 C16.601564,16.5566413 16.8567698,16.7421863 17.0703125,16.984375 C17.2838552,17.2265637 17.4498692,17.5208316 17.5683594,17.8671875 C17.6868496,18.2135434 17.7460938,18.6028624 17.7460938,19.0351562 L17.7460938,19.2851562 Z M16.5585938,19.0273438 C16.5585938,18.4309866 16.451824,17.9778661 16.2382812,17.6679688 C16.0247385,17.3580714 15.7200541,17.203125 15.3242188,17.203125 C14.9283834,17.203125 14.623699,17.3580714 14.4101562,17.6679688 C14.1966135,17.9778661 14.0898438,18.4309866 14.0898438,19.0273438 L14.0898438,19.2851562 C14.0898438,19.5820327 14.1178383,19.8443999 14.1738281,20.0722656 C14.229818,20.3001313 14.3105463,20.4915357 14.4160156,20.6464844 C14.5214849,20.8014331 14.6510409,20.9186194 14.8046875,20.9980469 C14.9583341,21.0774744 15.1341136,21.1171875 15.3320312,21.1171875 C15.7278666,21.1171875 16.0312489,20.9609391 16.2421875,20.6484375 C16.4531261,20.3359359 16.5585938,19.8815134 16.5585938,19.2851562 L16.5585938,19.0273438 Z" id="mp3" fill-opacity="0.87" fill="#FFFFFF" sketch:type="MSShapeGroup"></path>
            </g>
        </g>
    </g>
</svg>