<?xml version="1.0" encoding="UTF-8" standalone="no"?>
<svg width="24px" height="24px" viewBox="0 0 24 24" version="1.1" xmlns="http://www.w3.org/2000/svg" xmlns:xlink="http://www.w3.org/1999/xlink" xmlns:sketch="http://www.bohemiancoding.com/sketch/ns">
    <!-- Generator: Sketch 3.3.3 (12081) - http://www.bohemiancoding.com/sketch -->
    <title>ic_list_css</title>
    <desc>Created with Sketch.</desc>
    <defs></defs>
    <g id="UI" stroke="none" stroke-width="1" fill="none" fill-rule="evenodd" sketch:type="MSPage">
        <g id="assets" sketch:type="MSArtboardGroup" transform="translate(-245.000000, -225.000000)">
            <g id="ic_list_css" sketch:type="MSLayerGroup" transform="translate(245.000000, 225.000000)">
                <rect id="bounds" sketch:type="MSShapeGroup" x="0" y="0" width="24" height="24"></rect>
                <path d="M3.60355442,23 L3.60355442,23 L19.3964456,23 C19.7278522,23 20,22.7284426 20,22.3973836 L20,5.57787152 L20.3375829,6.32700673 L14.0295032,0.749135212 L14.6919203,1 L3.60744048,1 C3.26946656,1 3,1.26720273 3,1.59329362 L3,22.4067064 C3,22.7301845 3.27097392,23 3.60355442,23 L3.60355442,23 Z M3.60355442,24 C2.71793577,24 2,23.2817277 2,22.4067064 L2,1.59329362 C2,0.713341853 2.71873759,0 3.60744048,0 L14.6919203,0 L21,5.57787152 L21,22.3973836 C21,23.2824842 20.2783785,24 19.3964456,24 L3.60355442,24 L3.60355442,24 Z" id="Shape" fill="#8F8F8F" sketch:type="MSShapeGroup"></path>
                <rect id="Rectangle-179" fill="#8F8F8F" sketch:type="MSShapeGroup" x="0" y="14" width="24" height="10" rx="2"></rect>
                <path d="M9.04643262,13 C8.6576047,12.9012088 8.33295713,12.7717603 8.07248018,12.6116505 C7.81200323,12.4515407 7.6024923,12.2684391 7.44394111,12.0623403 C7.28538992,11.8562415 7.17308451,11.6314098 7.10702152,11.3878385 C7.04095852,11.1442672 7.00792752,10.887925 7.00792752,10.6188043 L7.00792752,9.5815023 C7.00792752,9.26128268 6.92865311,9.00579213 6.77010193,8.81502299 C6.61155074,8.62425386 6.35485266,8.52887072 6,8.52887072 L6,7.47112928 C6.17742633,7.47112928 6.33031268,7.44643186 6.45866365,7.39703628 C6.58701461,7.3476407 6.69177007,7.27695498 6.77293318,7.18497701 C6.85409629,7.09299903 6.9135521,6.98228646 6.95130238,6.85283597 C6.98905266,6.72338549 7.00792752,6.57690424 7.00792752,6.41338784 L7.00792752,5.37608585 C7.00792752,5.1069651 7.04095852,4.85062292 7.10702152,4.60705161 C7.17308451,4.3634803 7.28538992,4.13864862 7.44394111,3.93254982 C7.6024923,3.72645102 7.81200323,3.5442011 8.07248018,3.38579458 C8.33295713,3.22738807 8.6576047,3.09879116 9.04643262,3 L9.36353341,3.82268779 C9.18988211,3.88059985 9.04643318,3.95980192 8.93318233,4.06029637 C8.81993148,4.16079083 8.72933216,4.27831648 8.66138165,4.41287685 C8.59343114,4.54743723 8.546244,4.69647338 8.5198188,4.85998978 C8.4933936,5.02350618 8.4801812,5.19553648 8.4801812,5.37608585 L8.4801812,6.41338784 C8.4801812,6.75404701 8.39996305,7.06233894 8.23952435,7.33827287 C8.07908565,7.6142068 7.82144383,7.83392867 7.46659117,7.99744507 C7.8176688,8.16096147 8.07436687,8.38153498 8.23669309,8.6591722 C8.39901931,8.93680943 8.4801812,9.24424972 8.4801812,9.5815023 L8.4801812,10.6188043 C8.4801812,10.7993537 8.4933936,10.971384 8.5198188,11.1349004 C8.546244,11.2984168 8.59343114,11.4474529 8.66138165,11.5820133 C8.72933216,11.7165737 8.81993148,11.8349509 8.93318233,11.9371487 C9.04643318,12.0393464 9.18988211,12.1176969 9.36353341,12.1722024 L9.04643262,13 Z M12.6364666,12.1722024 C12.8063429,12.1176969 12.9479043,12.0393464 13.0611552,11.9371487 C13.174406,11.8349509 13.2650053,11.7165737 13.3329558,11.5820133 C13.4009063,11.4474529 13.4490372,11.2984168 13.4773499,11.1349004 C13.5056627,10.971384 13.5198188,10.7993537 13.5198188,10.6188043 L13.5198188,9.5815023 C13.5198188,9.41117271 13.5396374,9.24765876 13.5792752,9.09095554 C13.618913,8.93425232 13.6812,8.78777108 13.7661382,8.65150741 C13.8510763,8.51524374 13.958663,8.39260828 14.0889015,8.28359734 C14.2191399,8.17458641 14.3748575,8.08090654 14.5560589,8.00255493 C14.1936562,7.84585171 13.9303519,7.62783311 13.7661382,7.34849259 C13.6019244,7.06915207 13.5198188,6.7574536 13.5198188,6.41338784 L13.5198188,5.37608585 C13.5198188,5.19553648 13.5056627,5.02350618 13.4773499,4.85998978 C13.4490372,4.69647338 13.4009063,4.54743723 13.3329558,4.41287685 C13.2650053,4.27831648 13.174406,4.16079083 13.0611552,4.06029637 C12.9479043,3.95980192 12.8063429,3.88059985 12.6364666,3.82268779 L12.9535674,3 C13.3423953,3.09879116 13.6670429,3.22738807 13.9275198,3.38579458 C14.1879968,3.5442011 14.3975077,3.72645102 14.5560589,3.93254982 C14.7146101,4.13864862 14.8269155,4.3634803 14.8929785,4.60705161 C14.9590415,4.85062292 14.9920725,5.1069651 14.9920725,5.37608585 L14.9920725,6.41338784 C14.9920725,6.57690424 15.0109473,6.72338549 15.0486976,6.85283597 C15.0864479,6.98228646 15.1459037,7.09299903 15.2270668,7.18497701 C15.3082299,7.27695498 15.4129854,7.3476407 15.5413364,7.39703628 C15.6696873,7.44643186 15.8225737,7.47112928 16,7.47112928 L16,8.52887072 C15.8225737,8.52887072 15.6696873,8.55356814 15.5413364,8.60296372 C15.4129854,8.6523593 15.3082299,8.72304502 15.2270668,8.81502299 C15.1459037,8.90700097 15.0864479,9.01771354 15.0486976,9.14716403 C15.0109473,9.27661451 14.9920725,9.42139249 14.9920725,9.5815023 L14.9920725,10.6188043 C14.9920725,10.887925 14.9590415,11.1442672 14.8929785,11.3878385 C14.8269155,11.6314098 14.7146101,11.8562415 14.5560589,12.0623403 C14.3975077,12.2684391 14.1879968,12.4515407 13.9275198,12.6116505 C13.6670429,12.7717603 13.3423953,12.9012088 12.9535674,13 L12.6364666,12.1722024 Z" id="{-}" fill="#8F8F8F" sketch:type="MSShapeGroup"></path>
                <path d="M8.97265625,20.1054688 C8.95182281,20.3945327 8.8867193,20.660155 8.77734375,20.9023438 C8.6679682,21.1445325 8.51692805,21.3522127 8.32421875,21.5253906 C8.13150945,21.6985686 7.89778783,21.8339839 7.62304688,21.9316406 C7.34830592,22.0292974 7.03515801,22.078125 6.68359375,22.078125 C6.31900859,22.078125 5.99153791,22.0149746 5.70117188,21.8886719 C5.41080584,21.7623692 5.16471455,21.5807304 4.96289062,21.34375 C4.7610667,21.1067696 4.60612033,20.8196631 4.49804688,20.4824219 C4.38997342,20.1451806 4.3359375,19.7669292 4.3359375,19.3476562 L4.3359375,18.9726562 C4.3359375,18.5533833 4.39192652,18.1744809 4.50390625,17.8359375 C4.61588598,17.4973941 4.77408752,17.2096366 4.97851562,16.9726562 C5.18294373,16.7356759 5.43098812,16.5533861 5.72265625,16.4257812 C6.01432438,16.2981764 6.33984195,16.234375 6.69921875,16.234375 C7.05338719,16.234375 7.3665351,16.2845047 7.63867188,16.3847656 C7.91080865,16.4850265 8.14192613,16.6243481 8.33203125,16.8027344 C8.52213637,16.9811207 8.67057238,17.1933581 8.77734375,17.4394531 C8.88411512,17.6855481 8.95182277,17.9531236 8.98046875,18.2421875 L7.80859375,18.2421875 C7.79557285,18.0729158 7.76627627,17.9231777 7.72070312,17.7929688 C7.67512998,17.6627598 7.60937543,17.5533859 7.5234375,17.4648438 C7.43749957,17.3763016 7.32682359,17.309245 7.19140625,17.2636719 C7.05598891,17.2180987 6.89192805,17.1953125 6.69921875,17.1953125 C6.30338344,17.1953125 6.00846451,17.3391913 5.81445312,17.6269531 C5.62044174,17.914715 5.5234375,18.3606741 5.5234375,18.9648438 L5.5234375,19.3476562 C5.5234375,19.6419286 5.54492166,19.8997385 5.58789062,20.1210938 C5.63085959,20.342449 5.69856725,20.527343 5.79101562,20.6757812 C5.883464,20.8242195 6.00325447,20.9355465 6.15039062,21.0097656 C6.29752678,21.0839847 6.47525938,21.1210938 6.68359375,21.1210938 C6.86849051,21.1210938 7.02799412,21.1002606 7.16210938,21.0585938 C7.29622463,21.0169269 7.40820268,20.9537765 7.49804688,20.8691406 C7.58789107,20.7845048 7.65755184,20.6783861 7.70703125,20.5507812 C7.75651066,20.4231764 7.78776035,20.2747404 7.80078125,20.1054688 L8.97265625,20.1054688 Z M12.6914062,20.5078125 C12.6914062,20.4088537 12.6770835,20.3196619 12.6484375,20.2402344 C12.6197915,20.1608069 12.5644535,20.0872399 12.4824219,20.0195312 C12.4003902,19.9518226 12.2871101,19.885417 12.1425781,19.8203125 C11.9980462,19.755208 11.8111991,19.6861983 11.5820312,19.6132812 C11.3216133,19.5299475 11.076173,19.4361984 10.8457031,19.3320312 C10.6152332,19.2278641 10.4134123,19.1048184 10.2402344,18.9628906 C10.0670564,18.8209628 9.93033904,18.657553 9.83007812,18.4726562 C9.72981721,18.2877595 9.6796875,18.0716158 9.6796875,17.8242188 C9.6796875,17.5872384 9.73111928,17.3704437 9.83398438,17.1738281 C9.93684947,16.9772126 10.0813793,16.8098965 10.2675781,16.671875 C10.453777,16.5338535 10.6751289,16.4264327 10.9316406,16.3496094 C11.1881523,16.2727861 11.4700505,16.234375 11.7773438,16.234375 C12.0924495,16.234375 12.378905,16.2779944 12.6367188,16.3652344 C12.8945325,16.4524744 13.1145824,16.574218 13.296875,16.7304688 C13.4791676,16.8867195 13.6197912,17.0722646 13.71875,17.2871094 C13.8177088,17.5019542 13.8671875,17.7369779 13.8671875,17.9921875 L12.6953125,17.9921875 C12.6953125,17.8723952 12.6764325,17.7617193 12.6386719,17.6601562 C12.6009113,17.5585932 12.5429691,17.4713545 12.4648438,17.3984375 C12.3867184,17.3255205 12.2890631,17.2688804 12.171875,17.2285156 C12.0546869,17.1881508 11.9166675,17.1679688 11.7578125,17.1679688 C11.6041659,17.1679688 11.4707037,17.1848957 11.3574219,17.21875 C11.2441401,17.2526043 11.150391,17.2994789 11.0761719,17.359375 C11.0019528,17.4192711 10.9459637,17.4895829 10.9082031,17.5703125 C10.8704425,17.6510421 10.8515625,17.7369787 10.8515625,17.828125 C10.8515625,18.0156259 10.9472647,18.1725254 11.1386719,18.2988281 C11.3300791,18.4251308 11.6106752,18.5429682 11.9804688,18.6523438 C12.2903661,18.7486984 12.5631499,18.8554682 12.7988281,18.9726562 C13.0345064,19.0898443 13.231119,19.2226555 13.3886719,19.3710938 C13.5462247,19.519532 13.6653642,19.686197 13.7460938,19.8710938 C13.8268233,20.0559905 13.8671875,20.2656238 13.8671875,20.5 C13.8671875,20.7500013 13.8183599,20.9726553 13.7207031,21.1679688 C13.6230464,21.3632822 13.4843759,21.5279941 13.3046875,21.6621094 C13.1249991,21.7962246 12.9082044,21.8990882 12.6542969,21.9707031 C12.4003894,22.0423181 12.1171891,22.078125 11.8046875,22.078125 C11.6171866,22.078125 11.4296884,22.0618491 11.2421875,22.0292969 C11.0546866,21.9967446 10.8756519,21.9466149 10.7050781,21.8789062 C10.5345044,21.8111976 10.3763028,21.726563 10.2304688,21.625 C10.0846347,21.523437 9.95768283,21.4036465 9.84960938,21.265625 C9.74153592,21.1276035 9.65690135,20.970704 9.59570312,20.7949219 C9.5345049,20.6191397 9.50390625,20.4244802 9.50390625,20.2109375 L10.6796875,20.2109375 C10.6796875,20.3828134 10.707031,20.5286452 10.7617188,20.6484375 C10.8164065,20.7682298 10.8925776,20.865234 10.9902344,20.9394531 C11.0878911,21.0136722 11.2057285,21.0677082 11.34375,21.1015625 C11.4817715,21.1354168 11.6354158,21.1523438 11.8046875,21.1523438 C11.9557299,21.1523438 12.087239,21.1360679 12.1992188,21.1035156 C12.3111985,21.0709634 12.4036455,21.026042 12.4765625,20.96875 C12.5494795,20.911458 12.6035154,20.8430994 12.6386719,20.7636719 C12.6738283,20.6842444 12.6914062,20.5989588 12.6914062,20.5078125 L12.6914062,20.5078125 Z M17.609375,20.5078125 C17.609375,20.4088537 17.5950522,20.3196619 17.5664062,20.2402344 C17.5377603,20.1608069 17.4824223,20.0872399 17.4003906,20.0195312 C17.318359,19.9518226 17.2050788,19.885417 17.0605469,19.8203125 C16.9160149,19.755208 16.7291678,19.6861983 16.5,19.6132812 C16.239582,19.5299475 15.9941418,19.4361984 15.7636719,19.3320312 C15.533202,19.2278641 15.3313811,19.1048184 15.1582031,18.9628906 C14.9850252,18.8209628 14.8483078,18.657553 14.7480469,18.4726562 C14.647786,18.2877595 14.5976562,18.0716158 14.5976562,17.8242188 C14.5976562,17.5872384 14.649088,17.3704437 14.7519531,17.1738281 C14.8548182,16.9772126 14.999348,16.8098965 15.1855469,16.671875 C15.3717457,16.5338535 15.5930977,16.4264327 15.8496094,16.3496094 C16.1061211,16.2727861 16.3880193,16.234375 16.6953125,16.234375 C17.0104182,16.234375 17.2968737,16.2779944 17.5546875,16.3652344 C17.8125013,16.4524744 18.0325512,16.574218 18.2148438,16.7304688 C18.3971363,16.8867195 18.5377599,17.0722646 18.6367188,17.2871094 C18.7356776,17.5019542 18.7851562,17.7369779 18.7851562,17.9921875 L17.6132812,17.9921875 C17.6132812,17.8723952 17.5944012,17.7617193 17.5566406,17.6601562 C17.51888,17.5585932 17.4609379,17.4713545 17.3828125,17.3984375 C17.3046871,17.3255205 17.2070318,17.2688804 17.0898438,17.2285156 C16.9726557,17.1881508 16.8346362,17.1679688 16.6757812,17.1679688 C16.5221346,17.1679688 16.3886724,17.1848957 16.2753906,17.21875 C16.1621088,17.2526043 16.0683597,17.2994789 15.9941406,17.359375 C15.9199215,17.4192711 15.8639325,17.4895829 15.8261719,17.5703125 C15.7884113,17.6510421 15.7695312,17.7369787 15.7695312,17.828125 C15.7695312,18.0156259 15.8652334,18.1725254 16.0566406,18.2988281 C16.2480478,18.4251308 16.528644,18.5429682 16.8984375,18.6523438 C17.2083349,18.7486984 17.4811186,18.8554682 17.7167969,18.9726562 C17.9524751,19.0898443 18.1490878,19.2226555 18.3066406,19.3710938 C18.4641935,19.519532 18.5833329,19.686197 18.6640625,19.8710938 C18.7447921,20.0559905 18.7851562,20.2656238 18.7851562,20.5 C18.7851562,20.7500013 18.7363286,20.9726553 18.6386719,21.1679688 C18.5410151,21.3632822 18.4023446,21.5279941 18.2226562,21.6621094 C18.0429679,21.7962246 17.8261731,21.8990882 17.5722656,21.9707031 C17.3183581,22.0423181 17.0351578,22.078125 16.7226562,22.078125 C16.5351553,22.078125 16.3476572,22.0618491 16.1601562,22.0292969 C15.9726553,21.9967446 15.7936206,21.9466149 15.6230469,21.8789062 C15.4524731,21.8111976 15.2942716,21.726563 15.1484375,21.625 C15.0026034,21.523437 14.8756516,21.4036465 14.7675781,21.265625 C14.6595047,21.1276035 14.5748701,20.970704 14.5136719,20.7949219 C14.4524737,20.6191397 14.421875,20.4244802 14.421875,20.2109375 L15.5976562,20.2109375 C15.5976562,20.3828134 15.6249997,20.5286452 15.6796875,20.6484375 C15.7343753,20.7682298 15.8105464,20.865234 15.9082031,20.9394531 C16.0058599,21.0136722 16.1236972,21.0677082 16.2617188,21.1015625 C16.3997403,21.1354168 16.5533846,21.1523438 16.7226562,21.1523438 C16.8736987,21.1523438 17.0052078,21.1360679 17.1171875,21.1035156 C17.2291672,21.0709634 17.3216142,21.026042 17.3945312,20.96875 C17.4674483,20.911458 17.5214842,20.8430994 17.5566406,20.7636719 C17.5917971,20.6842444 17.609375,20.5989588 17.609375,20.5078125 L17.609375,20.5078125 Z" id="CSS" fill-opacity="0.87" fill="#FFFFFF" sketch:type="MSShapeGroup"></path>
            </g>
        </g>
    </g>
</svg>