<?xml version="1.0" encoding="UTF-8" standalone="no"?>
<svg width="24px" height="24px" viewBox="0 0 24 24" version="1.1" xmlns="http://www.w3.org/2000/svg" xmlns:xlink="http://www.w3.org/1999/xlink" xmlns:sketch="http://www.bohemiancoding.com/sketch/ns">
    <!-- Generator: Sketch 3.3.3 (12081) - http://www.bohemiancoding.com/sketch -->
    <title>ic_list_png</title>
    <desc>Created with Sketch.</desc>
    <defs></defs>
    <g id="UI" stroke="none" stroke-width="1" fill="none" fill-rule="evenodd" sketch:type="MSPage">
        <g id="assets" sketch:type="MSArtboardGroup" transform="translate(-311.000000, -195.000000)">
            <g id="ic_list_png" sketch:type="MSLayerGroup" transform="translate(311.000000, 195.000000)">
                <rect id="bounds" sketch:type="MSShapeGroup" x="0" y="0" width="24" height="24"></rect>
                <path d="M3.60355442,23 L3.60355442,23 L19.3964456,23 C19.7278522,23 20,22.7284426 20,22.3973836 L20,5.57787152 L20.3375829,6.32700673 L14.0295032,0.749135212 L14.6919203,1 L3.60744048,1 C3.26946656,1 3,1.26720273 3,1.59329362 L3,22.4067064 C3,22.7301845 3.27097392,23 3.60355442,23 L3.60355442,23 Z M3.60355442,24 C2.71793577,24 2,23.2817277 2,22.4067064 L2,1.59329362 C2,0.713341853 2.71873759,0 3.60744048,0 L14.6919203,0 L21,5.57787152 L21,22.3973836 C21,23.2824842 20.2783785,24 19.3964456,24 L3.60355442,24 L3.60355442,24 Z" id="Shape" fill="#8F8F8F" sketch:type="MSShapeGroup"></path>
                <rect id="Rectangle-179" fill="#8F8F8F" sketch:type="MSShapeGroup" x="0" y="14" width="24" height="10" rx="2"></rect>
                <path d="M4,12.1067209 C4,12.1067209 7.73908615,8 9.61408615,8 C11.4890862,8 14.0404234,10.0485101 16.1280422,10.0485101 C18.215661,10.0485101 19,8 19,8 L19,13 L4,13 L4,12.1067209 Z" id="Path-13" fill="#8F8F8F" sketch:type="MSShapeGroup"></path>
                <circle id="Oval-33" fill="#8F8F8F" sketch:type="MSShapeGroup" cx="14.5" cy="5.5" r="2.5"></circle>
                <path d="M5.6796875,19.9960938 L5.6796875,22 L4.5078125,22 L4.5078125,16.3125 L6.7265625,16.3125 C7.06250168,16.3125 7.36262889,16.3593745 7.62695312,16.453125 C7.89127736,16.5468755 8.11523346,16.6777335 8.29882812,16.8457031 C8.48242279,17.0136727 8.62239535,17.2128895 8.71875,17.4433594 C8.81510465,17.6738293 8.86328125,17.9244778 8.86328125,18.1953125 C8.86328125,18.4713555 8.81510465,18.720051 8.71875,18.9414062 C8.62239535,19.1627615 8.48242279,19.3515617 8.29882812,19.5078125 C8.11523346,19.6640633 7.89127736,19.7845048 7.62695312,19.8691406 C7.36262889,19.9537765 7.06250168,19.9960938 6.7265625,19.9960938 L5.6796875,19.9960938 Z M5.6796875,19.046875 L6.7265625,19.046875 C6.89323,19.046875 7.03710877,19.0260419 7.15820312,18.984375 C7.27929748,18.9427081 7.37825482,18.884766 7.45507812,18.8105469 C7.53190143,18.7363278 7.58854148,18.6471359 7.625,18.5429688 C7.66145852,18.4388016 7.6796875,18.3255214 7.6796875,18.203125 C7.6796875,18.0807286 7.66145852,17.9628912 7.625,17.8496094 C7.58854148,17.7363276 7.53190143,17.6360681 7.45507812,17.5488281 C7.37825482,17.4615881 7.27929748,17.3919273 7.15820312,17.3398438 C7.03710877,17.2877602 6.89323,17.2617188 6.7265625,17.2617188 L5.6796875,17.2617188 L5.6796875,19.046875 Z M14.2929688,22 L13.1210938,22 L10.8398438,18.2578125 L10.8398438,22 L9.66796875,22 L9.66796875,16.3125 L10.8398438,16.3125 L13.125,20.0625 L13.125,16.3125 L14.2929688,16.3125 L14.2929688,22 Z M19.8164062,21.28125 C19.7486976,21.3619796 19.6562506,21.4485672 19.5390625,21.5410156 C19.4218744,21.633464 19.2747405,21.7194006 19.0976562,21.7988281 C18.920572,21.8782556 18.7115897,21.9446612 18.4707031,21.9980469 C18.2298165,22.0514326 17.9531266,22.078125 17.640625,22.078125 C17.2734357,22.078125 16.9381526,22.0175787 16.6347656,21.8964844 C16.3313787,21.77539 16.0716157,21.5976574 15.8554688,21.3632812 C15.6393218,21.1289051 15.4720058,20.8411475 15.3535156,20.5 C15.2350254,20.1588525 15.1757812,19.7682314 15.1757812,19.328125 L15.1757812,18.9921875 C15.1757812,18.5520811 15.2324213,18.160809 15.3457031,17.8183594 C15.4589849,17.4759097 15.6191396,17.1875012 15.8261719,16.953125 C16.0332042,16.7187488 16.2838527,16.5403652 16.578125,16.4179688 C16.8723973,16.2955723 17.199217,16.234375 17.5585938,16.234375 C17.9283873,16.234375 18.2480455,16.2805985 18.5175781,16.3730469 C18.7871107,16.4654953 19.0123689,16.5950512 19.1933594,16.7617188 C19.3743499,16.9283862 19.5156245,17.127603 19.6171875,17.359375 C19.7187505,17.591147 19.7851561,17.8450507 19.8164062,18.1210938 L18.6757812,18.1210938 C18.6523436,17.9778639 18.6158857,17.8483079 18.5664062,17.7324219 C18.5169268,17.6165359 18.4492192,17.5175785 18.3632812,17.4355469 C18.2773433,17.3535152 18.1712246,17.2903648 18.0449219,17.2460938 C17.9186192,17.2018227 17.76823,17.1796875 17.59375,17.1796875 C17.1927063,17.1796875 16.8880219,17.3313787 16.6796875,17.6347656 C16.4713531,17.9381526 16.3671875,18.3880179 16.3671875,18.984375 L16.3671875,19.328125 C16.3671875,19.9244821 16.4804676,20.3749985 16.7070312,20.6796875 C16.9335949,20.9843765 17.2656228,21.1367188 17.703125,21.1367188 C17.8437507,21.1367188 17.9661453,21.1276043 18.0703125,21.109375 C18.1744797,21.0911457 18.2636715,21.0683595 18.3378906,21.0410156 C18.4121097,21.0136717 18.4739581,20.9837241 18.5234375,20.9511719 C18.5729169,20.9186196 18.6132811,20.8867189 18.6445312,20.8554688 L18.6445312,19.875 L17.578125,19.875 L17.578125,19.0117188 L19.8164062,19.0117188 L19.8164062,21.28125 Z" id="mp3" fill-opacity="0.87" fill="#FFFFFF" sketch:type="MSShapeGroup"></path>
            </g>
        </g>
    </g>
</svg>