<?xml version="1.0" encoding="UTF-8" standalone="no"?>
<svg width="24px" height="24px" viewBox="0 0 24 24" version="1.1" xmlns="http://www.w3.org/2000/svg" xmlns:xlink="http://www.w3.org/1999/xlink" xmlns:sketch="http://www.bohemiancoding.com/sketch/ns">
    <!-- Generator: Sketch 3.3.3 (12081) - http://www.bohemiancoding.com/sketch -->
    <title>ic_list_bmp</title>
    <desc>Created with Sketch.</desc>
    <defs></defs>
    <g id="UI" stroke="none" stroke-width="1" fill="none" fill-rule="evenodd" sketch:type="MSPage">
        <g id="assets" sketch:type="MSArtboardGroup" transform="translate(-435.000000, -195.000000)">
            <g id="ic_list_bmp" sketch:type="MSLayerGroup" transform="translate(435.000000, 195.000000)">
                <rect id="bounds" sketch:type="MSShapeGroup" x="0" y="0" width="24" height="24"></rect>
                <path d="M3.60355442,23 L3.60355442,23 L19.3964456,23 C19.7278522,23 20,22.7284426 20,22.3973836 L20,5.57787152 L20.3375829,6.32700673 L14.0295032,0.749135212 L14.6919203,1 L3.60744048,1 C3.26946656,1 3,1.26720273 3,1.59329362 L3,22.4067064 C3,22.7301845 3.27097392,23 3.60355442,23 L3.60355442,23 Z M3.60355442,24 C2.71793577,24 2,23.2817277 2,22.4067064 L2,1.59329362 C2,0.713341853 2.71873759,0 3.60744048,0 L14.6919203,0 L21,5.57787152 L21,22.3973836 C21,23.2824842 20.2783785,24 19.3964456,24 L3.60355442,24 L3.60355442,24 Z" id="Shape" fill="#8F8F8F" sketch:type="MSShapeGroup"></path>
                <rect id="Rectangle-179" fill="#8F8F8F" sketch:type="MSShapeGroup" x="0" y="14" width="24" height="10" rx="2"></rect>
                <path d="M4,12.1067209 C4,12.1067209 7.73908615,8 9.61408615,8 C11.4890862,8 14.0404234,10.0485101 16.1280422,10.0485101 C18.215661,10.0485101 19,8 19,8 L19,13 L4,13 L4,12.1067209 Z" id="Path-13" fill="#8F8F8F" sketch:type="MSShapeGroup"></path>
                <circle id="Oval-33" fill="#8F8F8F" sketch:type="MSShapeGroup" cx="14.5" cy="5.5" r="2.5"></circle>
                <path d="M4.5078125,22 L4.5078125,16.3125 L6.5,16.3125 C6.83073082,16.3125 7.12630078,16.3437497 7.38671875,16.40625 C7.64713672,16.4687503 7.86783764,16.5644525 8.04882812,16.6933594 C8.22981861,16.8222663 8.36783807,16.984374 8.46289062,17.1796875 C8.55794318,17.375001 8.60546875,17.6054674 8.60546875,17.8710938 C8.60546875,18.0013027 8.58919287,18.1263015 8.55664062,18.2460938 C8.52408838,18.365886 8.47460971,18.4778641 8.40820312,18.5820312 C8.34179654,18.6861984 8.25781301,18.7805985 8.15625,18.8652344 C8.05468699,18.9498702 7.93359445,19.019531 7.79296875,19.0742188 C7.95963625,19.1158856 8.10221295,19.179036 8.22070312,19.2636719 C8.3391933,19.3483077 8.43684857,19.446614 8.51367188,19.5585938 C8.59049518,19.6705735 8.6464842,19.7923171 8.68164062,19.9238281 C8.71679705,20.0553392 8.734375,20.1901035 8.734375,20.328125 C8.734375,20.8802111 8.5566424,21.2968736 8.20117188,21.578125 C7.84570135,21.8593764 7.33984703,22 6.68359375,22 L4.5078125,22 Z M5.6796875,19.5234375 L5.6796875,21.0585938 L6.68359375,21.0585938 C6.83463617,21.0585938 6.9648432,21.0397137 7.07421875,21.0019531 C7.1835943,20.9641925 7.27473922,20.9121097 7.34765625,20.8457031 C7.42057328,20.7792965 7.4746092,20.7011723 7.50976562,20.6113281 C7.54492205,20.5214839 7.5625,20.4231776 7.5625,20.3164062 C7.5625,20.1940098 7.54687516,20.0839849 7.515625,19.9863281 C7.48437484,19.8886714 7.43554721,19.8053389 7.36914062,19.7363281 C7.30273404,19.6673174 7.21614637,19.6145835 7.109375,19.578125 C7.00260363,19.5416665 6.87500074,19.5234375 6.7265625,19.5234375 L5.6796875,19.5234375 Z M5.6796875,18.6953125 L6.546875,18.6953125 C6.84635566,18.6901041 7.06900969,18.6269537 7.21484375,18.5058594 C7.36067781,18.384765 7.43359375,18.2122407 7.43359375,17.9882812 C7.43359375,17.7304675 7.35872471,17.5449224 7.20898438,17.4316406 C7.05924404,17.3183588 6.82291828,17.2617188 6.5,17.2617188 L5.6796875,17.2617188 L5.6796875,18.6953125 Z M11.1445312,16.3125 L12.6054688,20.4375 L14.0585938,16.3125 L15.5976562,16.3125 L15.5976562,22 L14.421875,22 L14.421875,20.4453125 L14.5390625,17.7617188 L13.0039062,22 L12.1992188,22 L10.6679688,17.765625 L10.7851562,20.4453125 L10.7851562,22 L9.61328125,22 L9.61328125,16.3125 L11.1445312,16.3125 Z M17.7929688,19.9960938 L17.7929688,22 L16.6210938,22 L16.6210938,16.3125 L18.8398438,16.3125 C19.1757829,16.3125 19.4759101,16.3593745 19.7402344,16.453125 C20.0045586,16.5468755 20.2285147,16.6777335 20.4121094,16.8457031 C20.595704,17.0136727 20.7356766,17.2128895 20.8320312,17.4433594 C20.9283859,17.6738293 20.9765625,17.9244778 20.9765625,18.1953125 C20.9765625,18.4713555 20.9283859,18.720051 20.8320312,18.9414062 C20.7356766,19.1627615 20.595704,19.3515617 20.4121094,19.5078125 C20.2285147,19.6640633 20.0045586,19.7845048 19.7402344,19.8691406 C19.4759101,19.9537765 19.1757829,19.9960938 18.8398438,19.9960938 L17.7929688,19.9960938 Z M17.7929688,19.046875 L18.8398438,19.046875 C19.0065113,19.046875 19.15039,19.0260419 19.2714844,18.984375 C19.3925787,18.9427081 19.4915361,18.884766 19.5683594,18.8105469 C19.6451827,18.7363278 19.7018227,18.6471359 19.7382812,18.5429688 C19.7747398,18.4388016 19.7929688,18.3255214 19.7929688,18.203125 C19.7929688,18.0807286 19.7747398,17.9628912 19.7382812,17.8496094 C19.7018227,17.7363276 19.6451827,17.6360681 19.5683594,17.5488281 C19.4915361,17.4615881 19.3925787,17.3919273 19.2714844,17.3398438 C19.15039,17.2877602 19.0065113,17.2617188 18.8398438,17.2617188 L17.7929688,17.2617188 L17.7929688,19.046875 Z" id="mp3" fill-opacity="0.87" fill="#FFFFFF" sketch:type="MSShapeGroup"></path>
            </g>
        </g>
    </g>
</svg>