<?xml version="1.0" encoding="UTF-8" standalone="no"?>
<svg width="24px" height="24px" viewBox="0 0 24 24" version="1.1" xmlns="http://www.w3.org/2000/svg" xmlns:xlink="http://www.w3.org/1999/xlink" xmlns:sketch="http://www.bohemiancoding.com/sketch/ns">
    <!-- Generator: Sketch 3.3.3 (12081) - http://www.bohemiancoding.com/sketch -->
    <title>ic_list_gif</title>
    <desc>Created with Sketch.</desc>
    <defs></defs>
    <g id="UI" stroke="none" stroke-width="1" fill="none" fill-rule="evenodd" sketch:type="MSPage">
        <g id="assets" sketch:type="MSArtboardGroup" transform="translate(-405.000000, -195.000000)">
            <g id="ic_list_gif" sketch:type="MSLayerGroup" transform="translate(405.000000, 195.000000)">
                <rect id="bounds" sketch:type="MSShapeGroup" x="0" y="0" width="24" height="24"></rect>
                <path d="M3.60355442,23 L3.60355442,23 L19.3964456,23 C19.7278522,23 20,22.7284426 20,22.3973836 L20,5.57787152 L20.3375829,6.32700673 L14.0295032,0.749135212 L14.6919203,1 L3.60744048,1 C3.26946656,1 3,1.26720273 3,1.59329362 L3,22.4067064 C3,22.7301845 3.27097392,23 3.60355442,23 L3.60355442,23 Z M3.60355442,24 C2.71793577,24 2,23.2817277 2,22.4067064 L2,1.59329362 C2,0.713341853 2.71873759,0 3.60744048,0 L14.6919203,0 L21,5.57787152 L21,22.3973836 C21,23.2824842 20.2783785,24 19.3964456,24 L3.60355442,24 L3.60355442,24 Z" id="Shape" fill="#8F8F8F" sketch:type="MSShapeGroup"></path>
                <rect id="Rectangle-179" fill="#8F8F8F" sketch:type="MSShapeGroup" x="0" y="14" width="24" height="10" rx="2"></rect>
                <path d="M4,12.1067209 C4,12.1067209 7.73908615,8 9.61408615,8 C11.4890862,8 14.0404234,10.0485101 16.1280422,10.0485101 C18.215661,10.0485101 19,8 19,8 L19,13 L4,13 L4,12.1067209 Z" id="Path-13" fill="#8F8F8F" sketch:type="MSShapeGroup"></path>
                <circle id="Oval-33" fill="#8F8F8F" sketch:type="MSShapeGroup" cx="14.5" cy="5.5" r="2.5"></circle>
                <path d="M10.0078125,21.28125 C9.94010383,21.3619796 9.84765684,21.4485672 9.73046875,21.5410156 C9.61328066,21.633464 9.46614672,21.7194006 9.2890625,21.7988281 C9.11197828,21.8782556 8.902996,21.9446612 8.66210938,21.9980469 C8.42122275,22.0514326 8.14453281,22.078125 7.83203125,22.078125 C7.46484191,22.078125 7.12955881,22.0175787 6.82617188,21.8964844 C6.52278494,21.77539 6.26302191,21.5976574 6.046875,21.3632812 C5.83072809,21.1289051 5.66341205,20.8411475 5.54492188,20.5 C5.4264317,20.1588525 5.3671875,19.7682314 5.3671875,19.328125 L5.3671875,18.9921875 C5.3671875,18.5520811 5.42382756,18.160809 5.53710938,17.8183594 C5.65039119,17.4759097 5.81054584,17.1875012 6.01757812,16.953125 C6.22461041,16.7187488 6.47525895,16.5403652 6.76953125,16.4179688 C7.06380355,16.2955723 7.3906232,16.234375 7.75,16.234375 C8.11979352,16.234375 8.43945178,16.2805985 8.70898438,16.3730469 C8.97851697,16.4654953 9.20377514,16.5950512 9.38476562,16.7617188 C9.56575611,16.9283862 9.70703074,17.127603 9.80859375,17.359375 C9.91015676,17.591147 9.97656234,17.8450507 10.0078125,18.1210938 L8.8671875,18.1210938 C8.84374988,17.9778639 8.80729191,17.8483079 8.7578125,17.7324219 C8.70833309,17.6165359 8.64062543,17.5175785 8.5546875,17.4355469 C8.46874957,17.3535152 8.36263084,17.2903648 8.23632812,17.2460938 C8.11002541,17.2018227 7.95963629,17.1796875 7.78515625,17.1796875 C7.38411258,17.1796875 7.07942812,17.3313787 6.87109375,17.6347656 C6.66275938,17.9381526 6.55859375,18.3880179 6.55859375,18.984375 L6.55859375,19.328125 C6.55859375,19.9244821 6.67187387,20.3749985 6.8984375,20.6796875 C7.12500113,20.9843765 7.45702906,21.1367188 7.89453125,21.1367188 C8.03515695,21.1367188 8.15755156,21.1276043 8.26171875,21.109375 C8.36588594,21.0911457 8.45507775,21.0683595 8.52929688,21.0410156 C8.603516,21.0136717 8.66536434,20.9837241 8.71484375,20.9511719 C8.76432316,20.9186196 8.80468734,20.8867189 8.8359375,20.8554688 L8.8359375,19.875 L7.76953125,19.875 L7.76953125,19.0117188 L10.0078125,19.0117188 L10.0078125,21.28125 Z M12.203125,22 L11.03125,22 L11.03125,16.3125 L12.203125,16.3125 L12.203125,22 Z M16.7109375,19.6757812 L14.4609375,19.6757812 L14.4609375,22 L13.2890625,22 L13.2890625,16.3125 L16.9921875,16.3125 L16.9921875,17.2617188 L14.4609375,17.2617188 L14.4609375,18.7304688 L16.7109375,18.7304688 L16.7109375,19.6757812 Z" id="mp3" fill-opacity="0.87" fill="#FFFFFF" sketch:type="MSShapeGroup"></path>
            </g>
        </g>
    </g>
</svg>