<?xml version="1.0" encoding="UTF-8" standalone="no"?>
<svg width="24px" height="24px" viewBox="0 0 24 24" version="1.1" xmlns="http://www.w3.org/2000/svg" xmlns:xlink="http://www.w3.org/1999/xlink" xmlns:sketch="http://www.bohemiancoding.com/sketch/ns">
    <!-- Generator: Sketch 3.3.3 (12081) - http://www.bohemiancoding.com/sketch -->
    <title>ic_list_jpg</title>
    <desc>Created with Sketch.</desc>
    <defs></defs>
    <g id="UI" stroke="none" stroke-width="1" fill="none" fill-rule="evenodd" sketch:type="MSPage">
        <g id="assets" sketch:type="MSArtboardGroup" transform="translate(-342.000000, -195.000000)">
            <g id="ic_list_jpg" sketch:type="MSLayerGroup" transform="translate(342.000000, 195.000000)">
                <rect id="bounds" sketch:type="MSShapeGroup" x="0" y="0" width="24" height="24"></rect>
                <path d="M3.60355442,23 L3.60355442,23 L19.3964456,23 C19.7278522,23 20,22.7284426 20,22.3973836 L20,5.57787152 L20.3375829,6.32700673 L14.0295032,0.749135212 L14.6919203,1 L3.60744048,1 C3.26946656,1 3,1.26720273 3,1.59329362 L3,22.4067064 C3,22.7301845 3.27097392,23 3.60355442,23 L3.60355442,23 Z M3.60355442,24 C2.71793577,24 2,23.2817277 2,22.4067064 L2,1.59329362 C2,0.713341853 2.71873759,0 3.60744048,0 L14.6919203,0 L21,5.57787152 L21,22.3973836 C21,23.2824842 20.2783785,24 19.3964456,24 L3.60355442,24 L3.60355442,24 Z" id="Shape" fill="#8F8F8F" sketch:type="MSShapeGroup"></path>
                <rect id="Rectangle-179" fill="#8F8F8F" sketch:type="MSShapeGroup" x="0" y="14" width="24" height="10" rx="2"></rect>
                <path d="M4,12.1067209 C4,12.1067209 7.73908615,8 9.61408615,8 C11.4890862,8 14.0404234,10.0485101 16.1280422,10.0485101 C18.215661,10.0485101 19,8 19,8 L19,13 L4,13 L4,12.1067209 Z" id="Path-13" fill="#8F8F8F" sketch:type="MSShapeGroup"></path>
                <circle id="Oval-33" fill="#8F8F8F" sketch:type="MSShapeGroup" cx="14.5" cy="5.5" r="2.5"></circle>
                <path d="M6.80078125,16.3125 L7.97265625,16.3125 L7.97265625,20.25 C7.97265625,20.5338556 7.92447965,20.7890614 7.828125,21.015625 C7.73177035,21.2421886 7.59830814,21.434244 7.42773438,21.5917969 C7.25716061,21.7493497 7.05533971,21.8697912 6.82226562,21.953125 C6.58919154,22.0364588 6.33724094,22.078125 6.06640625,22.078125 C5.78775902,22.078125 5.53190221,22.0429691 5.29882812,21.9726562 C5.06575404,21.9023434 4.86458418,21.7949226 4.6953125,21.6503906 C4.52604082,21.5058587 4.39388068,21.3235688 4.29882812,21.1035156 C4.20377557,20.8834624 4.15625,20.6223973 4.15625,20.3203125 L5.3359375,20.3203125 C5.3359375,20.4739591 5.35286441,20.6028641 5.38671875,20.7070312 C5.42057309,20.8111984 5.46940072,20.895182 5.53320312,20.9589844 C5.59700553,21.0227868 5.67382768,21.0683592 5.76367188,21.0957031 C5.85351607,21.123047 5.95442652,21.1367188 6.06640625,21.1367188 C6.2903657,21.1367188 6.46874934,21.0598966 6.6015625,20.90625 C6.73437566,20.7526034 6.80078125,20.5338556 6.80078125,20.25 L6.80078125,16.3125 Z M10.1484375,19.9960938 L10.1484375,22 L8.9765625,22 L8.9765625,16.3125 L11.1953125,16.3125 C11.5312517,16.3125 11.8313789,16.3593745 12.0957031,16.453125 C12.3600274,16.5468755 12.5839835,16.6777335 12.7675781,16.8457031 C12.9511728,17.0136727 13.0911454,17.2128895 13.1875,17.4433594 C13.2838546,17.6738293 13.3320312,17.9244778 13.3320312,18.1953125 C13.3320312,18.4713555 13.2838546,18.720051 13.1875,18.9414062 C13.0911454,19.1627615 12.9511728,19.3515617 12.7675781,19.5078125 C12.5839835,19.6640633 12.3600274,19.7845048 12.0957031,19.8691406 C11.8313789,19.9537765 11.5312517,19.9960938 11.1953125,19.9960938 L10.1484375,19.9960938 Z M10.1484375,19.046875 L11.1953125,19.046875 C11.36198,19.046875 11.5058588,19.0260419 11.6269531,18.984375 C11.7480475,18.9427081 11.8470048,18.884766 11.9238281,18.8105469 C12.0006514,18.7363278 12.0572915,18.6471359 12.09375,18.5429688 C12.1302085,18.4388016 12.1484375,18.3255214 12.1484375,18.203125 C12.1484375,18.0807286 12.1302085,17.9628912 12.09375,17.8496094 C12.0572915,17.7363276 12.0006514,17.6360681 11.9238281,17.5488281 C11.8470048,17.4615881 11.7480475,17.3919273 11.6269531,17.3398438 C11.5058588,17.2877602 11.36198,17.2617188 11.1953125,17.2617188 L10.1484375,17.2617188 L10.1484375,19.046875 Z M18.6367188,21.28125 C18.5690101,21.3619796 18.4765631,21.4485672 18.359375,21.5410156 C18.2421869,21.633464 18.095053,21.7194006 17.9179688,21.7988281 C17.7408845,21.8782556 17.5319022,21.9446612 17.2910156,21.9980469 C17.050129,22.0514326 16.7734391,22.078125 16.4609375,22.078125 C16.0937482,22.078125 15.7584651,22.0175787 15.4550781,21.8964844 C15.1516912,21.77539 14.8919282,21.5976574 14.6757812,21.3632812 C14.4596343,21.1289051 14.2923183,20.8411475 14.1738281,20.5 C14.0553379,20.1588525 13.9960938,19.7682314 13.9960938,19.328125 L13.9960938,18.9921875 C13.9960938,18.5520811 14.0527338,18.160809 14.1660156,17.8183594 C14.2792974,17.4759097 14.4394521,17.1875012 14.6464844,16.953125 C14.8535167,16.7187488 15.1041652,16.5403652 15.3984375,16.4179688 C15.6927098,16.2955723 16.0195295,16.234375 16.3789062,16.234375 C16.7486998,16.234375 17.068358,16.2805985 17.3378906,16.3730469 C17.6074232,16.4654953 17.8326814,16.5950512 18.0136719,16.7617188 C18.1946624,16.9283862 18.335937,17.127603 18.4375,17.359375 C18.539063,17.591147 18.6054686,17.8450507 18.6367188,18.1210938 L17.4960938,18.1210938 C17.4726561,17.9778639 17.4361982,17.8483079 17.3867188,17.7324219 C17.3372393,17.6165359 17.2695317,17.5175785 17.1835938,17.4355469 C17.0976558,17.3535152 16.9915371,17.2903648 16.8652344,17.2460938 C16.7389317,17.2018227 16.5885425,17.1796875 16.4140625,17.1796875 C16.0130188,17.1796875 15.7083344,17.3313787 15.5,17.6347656 C15.2916656,17.9381526 15.1875,18.3880179 15.1875,18.984375 L15.1875,19.328125 C15.1875,19.9244821 15.3007801,20.3749985 15.5273438,20.6796875 C15.7539074,20.9843765 16.0859353,21.1367188 16.5234375,21.1367188 C16.6640632,21.1367188 16.7864578,21.1276043 16.890625,21.109375 C16.9947922,21.0911457 17.083984,21.0683595 17.1582031,21.0410156 C17.2324222,21.0136717 17.2942706,20.9837241 17.34375,20.9511719 C17.3932294,20.9186196 17.4335936,20.8867189 17.4648438,20.8554688 L17.4648438,19.875 L16.3984375,19.875 L16.3984375,19.0117188 L18.6367188,19.0117188 L18.6367188,21.28125 Z" id="mp3" fill-opacity="0.87" fill="#FFFFFF" sketch:type="MSShapeGroup"></path>
            </g>
        </g>
    </g>
</svg>