<?xml version="1.0" encoding="UTF-8" standalone="no"?>
<svg width="24px" height="24px" viewBox="0 0 24 24" version="1.1" xmlns="http://www.w3.org/2000/svg" xmlns:xlink="http://www.w3.org/1999/xlink" xmlns:sketch="http://www.bohemiancoding.com/sketch/ns">
    <!-- Generator: Sketch 3.3.3 (12081) - http://www.bohemiancoding.com/sketch -->
    <title>ic_list_dmg</title>
    <desc>Created with Sketch.</desc>
    <defs></defs>
    <g id="UI" stroke="none" stroke-width="1" fill="none" fill-rule="evenodd" sketch:type="MSPage">
        <g id="assets" sketch:type="MSArtboardGroup" transform="translate(-180.000000, -225.000000)">
            <g id="ic_list_dmg" sketch:type="MSLayerGroup" transform="translate(180.000000, 225.000000)">
                <rect id="bounds" sketch:type="MSShapeGroup" x="0" y="0" width="24" height="24"></rect>
                <path d="M3.60355442,23 L3.60355442,23 L19.3964456,23 C19.7278522,23 20,22.7284426 20,22.3973836 L20,5.57787152 L20.3375829,6.32700673 L14.0295032,0.749135212 L14.6919203,1 L3.60744048,1 C3.26946656,1 3,1.26720273 3,1.59329362 L3,22.4067064 C3,22.7301845 3.27097392,23 3.60355442,23 L3.60355442,23 Z M3.60355442,24 C2.71793577,24 2,23.2817277 2,22.4067064 L2,1.59329362 C2,0.713341853 2.71873759,0 3.60744048,0 L14.6919203,0 L21,5.57787152 L21,22.3973836 C21,23.2824842 20.2783785,24 19.3964456,24 L3.60355442,24 L3.60355442,24 Z" id="Shape" fill="#8F8F8F" sketch:type="MSShapeGroup"></path>
                <rect id="Rectangle-179" fill="#8F8F8F" sketch:type="MSShapeGroup" x="0" y="14" width="24" height="10" rx="2"></rect>
                <path d="M11,9 L11,9 C11.5522847,9 12,8.55228475 12,8 C12,7.44771525 11.5522847,7 11,7 C10.4477153,7 10,7.44771525 10,8 C10,8.55228475 10.4477153,9 11,9 L11,9 Z M11,11 L11,11 C9.34314575,11 8,9.65685425 8,8 C8,6.34314575 9.34314575,5 11,5 C12.6568542,5 14,6.34314575 14,8 C14,9.65685425 12.6568542,11 11,11 L11,11 Z" id="Shape" fill="#8F8F8F" sketch:type="MSShapeGroup"></path>
                <circle id="Oval-3" fill="#8F8F8F" sketch:type="MSShapeGroup" cx="11" cy="5" r="1"></circle>
                <circle id="Oval-3" fill="#8F8F8F" sketch:type="MSShapeGroup" cx="11" cy="11" r="1"></circle>
                <circle id="Oval-3" fill="#8F8F8F" sketch:type="MSShapeGroup" cx="14" cy="8" r="1"></circle>
                <circle id="Oval-3" fill="#8F8F8F" sketch:type="MSShapeGroup" cx="8" cy="8" r="1"></circle>
                <circle id="Oval-3" fill="#8F8F8F" sketch:type="MSShapeGroup" cx="9" cy="6" r="1"></circle>
                <circle id="Oval-3" fill="#8F8F8F" sketch:type="MSShapeGroup" cx="13" cy="6" r="1"></circle>
                <circle id="Oval-3" fill="#8F8F8F" sketch:type="MSShapeGroup" cx="13" cy="10" r="1"></circle>
                <circle id="Oval-3" fill="#8F8F8F" sketch:type="MSShapeGroup" cx="9" cy="10" r="1"></circle>
                <path d="M3.5078125,22 L3.5078125,16.3125 L5.2578125,16.3125 C5.64062691,16.3125 5.99153486,16.3782546 6.31054688,16.5097656 C6.62955889,16.6412767 6.90299365,16.8261707 7.13085938,17.0644531 C7.3587251,17.3027356 7.5364577,17.58854 7.6640625,17.921875 C7.7916673,18.25521 7.85546875,18.624998 7.85546875,19.03125 L7.85546875,19.2890625 C7.85546875,19.6953145 7.79231834,20.0644515 7.66601562,20.3964844 C7.53971291,20.7285173 7.36132928,21.0136707 7.13085938,21.2519531 C6.90038947,21.4902356 6.6250016,21.6744785 6.3046875,21.8046875 C5.9843734,21.9348965 5.63151234,22 5.24609375,22 L3.5078125,22 Z M4.6796875,17.2617188 L4.6796875,21.0585938 L5.24609375,21.0585938 C5.70963773,21.0585938 6.06249879,20.9056005 6.3046875,20.5996094 C6.54687621,20.2936183 6.66796875,19.8567737 6.66796875,19.2890625 L6.66796875,19.0234375 C6.66796875,18.4453096 6.54817828,18.0071629 6.30859375,17.7089844 C6.06900922,17.4108058 5.7187523,17.2617188 5.2578125,17.2617188 L4.6796875,17.2617188 Z M10.2382812,16.3125 L11.6992188,20.4375 L13.1523438,16.3125 L14.6914062,16.3125 L14.6914062,22 L13.515625,22 L13.515625,20.4453125 L13.6328125,17.7617188 L12.0976562,22 L11.2929688,22 L9.76171875,17.765625 L9.87890625,20.4453125 L9.87890625,22 L8.70703125,22 L8.70703125,16.3125 L10.2382812,16.3125 Z M20.2148438,21.28125 C20.1471351,21.3619796 20.0546881,21.4485672 19.9375,21.5410156 C19.8203119,21.633464 19.673178,21.7194006 19.4960938,21.7988281 C19.3190095,21.8782556 19.1100272,21.9446612 18.8691406,21.9980469 C18.628254,22.0514326 18.3515641,22.078125 18.0390625,22.078125 C17.6718732,22.078125 17.3365901,22.0175787 17.0332031,21.8964844 C16.7298162,21.77539 16.4700532,21.5976574 16.2539062,21.3632812 C16.0377593,21.1289051 15.8704433,20.8411475 15.7519531,20.5 C15.6334629,20.1588525 15.5742188,19.7682314 15.5742188,19.328125 L15.5742188,18.9921875 C15.5742188,18.5520811 15.6308588,18.160809 15.7441406,17.8183594 C15.8574224,17.4759097 16.0175771,17.1875012 16.2246094,16.953125 C16.4316417,16.7187488 16.6822902,16.5403652 16.9765625,16.4179688 C17.2708348,16.2955723 17.5976545,16.234375 17.9570312,16.234375 C18.3268248,16.234375 18.646483,16.2805985 18.9160156,16.3730469 C19.1855482,16.4654953 19.4108064,16.5950512 19.5917969,16.7617188 C19.7727874,16.9283862 19.914062,17.127603 20.015625,17.359375 C20.117188,17.591147 20.1835936,17.8450507 20.2148438,18.1210938 L19.0742188,18.1210938 C19.0507811,17.9778639 19.0143232,17.8483079 18.9648438,17.7324219 C18.9153643,17.6165359 18.8476567,17.5175785 18.7617188,17.4355469 C18.6757808,17.3535152 18.5696621,17.2903648 18.4433594,17.2460938 C18.3170567,17.2018227 18.1666675,17.1796875 17.9921875,17.1796875 C17.5911438,17.1796875 17.2864594,17.3313787 17.078125,17.6347656 C16.8697906,17.9381526 16.765625,18.3880179 16.765625,18.984375 L16.765625,19.328125 C16.765625,19.9244821 16.8789051,20.3749985 17.1054688,20.6796875 C17.3320324,20.9843765 17.6640603,21.1367188 18.1015625,21.1367188 C18.2421882,21.1367188 18.3645828,21.1276043 18.46875,21.109375 C18.5729172,21.0911457 18.662109,21.0683595 18.7363281,21.0410156 C18.8105472,21.0136717 18.8723956,20.9837241 18.921875,20.9511719 C18.9713544,20.9186196 19.0117186,20.8867189 19.0429688,20.8554688 L19.0429688,19.875 L17.9765625,19.875 L17.9765625,19.0117188 L20.2148438,19.0117188 L20.2148438,21.28125 Z" id="DMG" fill-opacity="0.87" fill="#FFFFFF" sketch:type="MSShapeGroup"></path>
            </g>
        </g>
    </g>
</svg>