<?xml version="1.0" encoding="UTF-8" standalone="no"?>
<svg width="24px" height="24px" viewBox="0 0 24 24" version="1.1" xmlns="http://www.w3.org/2000/svg" xmlns:xlink="http://www.w3.org/1999/xlink" xmlns:sketch="http://www.bohemiancoding.com/sketch/ns">
    <!-- Generator: Sketch 3.3.3 (12081) - http://www.bohemiancoding.com/sketch -->
    <title>ic_list_txt</title>
    <desc>Created with Sketch.</desc>
    <defs></defs>
    <g id="UI" stroke="none" stroke-width="1" fill="none" fill-rule="evenodd" sketch:type="MSPage">
        <g id="assets" sketch:type="MSArtboardGroup" transform="translate(-77.000000, -225.000000)">
            <g id="ic_list_txt" sketch:type="MSLayerGroup" transform="translate(77.000000, 225.000000)">
                <rect id="bounds" sketch:type="MSShapeGroup" x="0" y="0" width="24" height="24"></rect>
                <path d="M3.60355442,23 L3.60355442,23 L19.3964456,23 C19.7278522,23 20,22.7284426 20,22.3973836 L20,5.57787152 L20.3375829,6.32700673 L14.0295032,0.749135212 L14.6919203,1 L3.60744048,1 C3.26946656,1 3,1.26720273 3,1.59329362 L3,22.4067064 C3,22.7301845 3.27097392,23 3.60355442,23 L3.60355442,23 Z M3.60355442,24 C2.71793577,24 2,23.2817277 2,22.4067064 L2,1.59329362 C2,0.713341853 2.71873759,0 3.60744048,0 L14.6919203,0 L21,5.57787152 L21,22.3973836 C21,23.2824842 20.2783785,24 19.3964456,24 L3.60355442,24 L3.60355442,24 Z" id="Shape" fill="#8F8F8F" sketch:type="MSShapeGroup"></path>
                <path d="M6.5,9 L16.5,9 C16.7761424,9 17,8.77614237 17,8.5 C17,8.22385763 16.7761424,8 16.5,8 L6.5,8 C6.22385763,8 6,8.22385763 6,8.5 C6,8.77614237 6.22385763,9 6.5,9 L6.5,9 Z" id="Shape" fill="#8F8F8F" sketch:type="MSShapeGroup"></path>
                <path d="M6.5,12 L16.5,12 C16.7761424,12 17,11.7761424 17,11.5 C17,11.2238576 16.7761424,11 16.5,11 L6.5,11 C6.22385763,11 6,11.2238576 6,11.5 C6,11.7761424 6.22385763,12 6.5,12 L6.5,12 Z" id="Shape" fill="#8F8F8F" sketch:type="MSShapeGroup"></path>
                <rect id="Rectangle-179" fill="#8F8F8F" sketch:type="MSShapeGroup" x="0" y="14" width="24" height="10" rx="2"></rect>
                <path d="M8.7890625,17.2617188 L7.046875,17.2617188 L7.046875,22 L5.875,22 L5.875,17.2617188 L4.15625,17.2617188 L4.15625,16.3125 L8.7890625,16.3125 L8.7890625,17.2617188 Z M11.4921875,18.2734375 L12.5585938,16.3125 L13.90625,16.3125 L12.25,19.1328125 L13.9492188,22 L12.5859375,22 L11.4921875,20.0078125 L10.3984375,22 L9.03515625,22 L10.734375,19.1328125 L9.078125,16.3125 L10.4257812,16.3125 L11.4921875,18.2734375 Z M18.8203125,17.2617188 L17.078125,17.2617188 L17.078125,22 L15.90625,22 L15.90625,17.2617188 L14.1875,17.2617188 L14.1875,16.3125 L18.8203125,16.3125 L18.8203125,17.2617188 Z" id="TXT" fill-opacity="0.87" fill="#FFFFFF" sketch:type="MSShapeGroup"></path>
            </g>
        </g>
    </g>
</svg>