<?xml version="1.0" encoding="UTF-8" standalone="no"?>
<svg width="24px" height="24px" viewBox="0 0 24 24" version="1.1" xmlns="http://www.w3.org/2000/svg" xmlns:xlink="http://www.w3.org/1999/xlink" xmlns:sketch="http://www.bohemiancoding.com/sketch/ns">
    <!-- Generator: Sketch 3.3.3 (12081) - http://www.bohemiancoding.com/sketch -->
    <title>ic_list_js</title>
    <desc>Created with Sketch.</desc>
    <defs></defs>
    <g id="UI" stroke="none" stroke-width="1" fill="none" fill-rule="evenodd" sketch:type="MSPage">
        <g id="assets" sketch:type="MSArtboardGroup" transform="translate(-279.000000, -225.000000)">
            <g id="ic_list_js" sketch:type="MSLayerGroup" transform="translate(279.000000, 225.000000)">
                <rect id="bounds" sketch:type="MSShapeGroup" x="0" y="0" width="24" height="24"></rect>
                <path d="M3.60355442,23 L3.60355442,23 L19.3964456,23 C19.7278522,23 20,22.7284426 20,22.3973836 L20,5.57787152 L20.3375829,6.32700673 L14.0295032,0.749135212 L14.6919203,1 L3.60744048,1 C3.26946656,1 3,1.26720273 3,1.59329362 L3,22.4067064 C3,22.7301845 3.27097392,23 3.60355442,23 L3.60355442,23 Z M3.60355442,24 C2.71793577,24 2,23.2817277 2,22.4067064 L2,1.59329362 C2,0.713341853 2.71873759,0 3.60744048,0 L14.6919203,0 L21,5.57787152 L21,22.3973836 C21,23.2824842 20.2783785,24 19.3964456,24 L3.60355442,24 L3.60355442,24 Z" id="Shape" fill="#8F8F8F" sketch:type="MSShapeGroup"></path>
                <rect id="Rectangle-179" fill="#8F8F8F" sketch:type="MSShapeGroup" x="0" y="14" width="24" height="10" rx="2"></rect>
                <path d="M9.04643262,13 C8.6576047,12.9012088 8.33295713,12.7717603 8.07248018,12.6116505 C7.81200323,12.4515407 7.6024923,12.2684391 7.44394111,12.0623403 C7.28538992,11.8562415 7.17308451,11.6314098 7.10702152,11.3878385 C7.04095852,11.1442672 7.00792752,10.887925 7.00792752,10.6188043 L7.00792752,9.5815023 C7.00792752,9.26128268 6.92865311,9.00579213 6.77010193,8.81502299 C6.61155074,8.62425386 6.35485266,8.52887072 6,8.52887072 L6,7.47112928 C6.17742633,7.47112928 6.33031268,7.44643186 6.45866365,7.39703628 C6.58701461,7.3476407 6.69177007,7.27695498 6.77293318,7.18497701 C6.85409629,7.09299903 6.9135521,6.98228646 6.95130238,6.85283597 C6.98905266,6.72338549 7.00792752,6.57690424 7.00792752,6.41338784 L7.00792752,5.37608585 C7.00792752,5.1069651 7.04095852,4.85062292 7.10702152,4.60705161 C7.17308451,4.3634803 7.28538992,4.13864862 7.44394111,3.93254982 C7.6024923,3.72645102 7.81200323,3.5442011 8.07248018,3.38579458 C8.33295713,3.22738807 8.6576047,3.09879116 9.04643262,3 L9.36353341,3.82268779 C9.18988211,3.88059985 9.04643318,3.95980192 8.93318233,4.06029637 C8.81993148,4.16079083 8.72933216,4.27831648 8.66138165,4.41287685 C8.59343114,4.54743723 8.546244,4.69647338 8.5198188,4.85998978 C8.4933936,5.02350618 8.4801812,5.19553648 8.4801812,5.37608585 L8.4801812,6.41338784 C8.4801812,6.75404701 8.39996305,7.06233894 8.23952435,7.33827287 C8.07908565,7.6142068 7.82144383,7.83392867 7.46659117,7.99744507 C7.8176688,8.16096147 8.07436687,8.38153498 8.23669309,8.6591722 C8.39901931,8.93680943 8.4801812,9.24424972 8.4801812,9.5815023 L8.4801812,10.6188043 C8.4801812,10.7993537 8.4933936,10.971384 8.5198188,11.1349004 C8.546244,11.2984168 8.59343114,11.4474529 8.66138165,11.5820133 C8.72933216,11.7165737 8.81993148,11.8349509 8.93318233,11.9371487 C9.04643318,12.0393464 9.18988211,12.1176969 9.36353341,12.1722024 L9.04643262,13 Z M12.6364666,12.1722024 C12.8063429,12.1176969 12.9479043,12.0393464 13.0611552,11.9371487 C13.174406,11.8349509 13.2650053,11.7165737 13.3329558,11.5820133 C13.4009063,11.4474529 13.4490372,11.2984168 13.4773499,11.1349004 C13.5056627,10.971384 13.5198188,10.7993537 13.5198188,10.6188043 L13.5198188,9.5815023 C13.5198188,9.41117271 13.5396374,9.24765876 13.5792752,9.09095554 C13.618913,8.93425232 13.6812,8.78777108 13.7661382,8.65150741 C13.8510763,8.51524374 13.958663,8.39260828 14.0889015,8.28359734 C14.2191399,8.17458641 14.3748575,8.08090654 14.5560589,8.00255493 C14.1936562,7.84585171 13.9303519,7.62783311 13.7661382,7.34849259 C13.6019244,7.06915207 13.5198188,6.7574536 13.5198188,6.41338784 L13.5198188,5.37608585 C13.5198188,5.19553648 13.5056627,5.02350618 13.4773499,4.85998978 C13.4490372,4.69647338 13.4009063,4.54743723 13.3329558,4.41287685 C13.2650053,4.27831648 13.174406,4.16079083 13.0611552,4.06029637 C12.9479043,3.95980192 12.8063429,3.88059985 12.6364666,3.82268779 L12.9535674,3 C13.3423953,3.09879116 13.6670429,3.22738807 13.9275198,3.38579458 C14.1879968,3.5442011 14.3975077,3.72645102 14.5560589,3.93254982 C14.7146101,4.13864862 14.8269155,4.3634803 14.8929785,4.60705161 C14.9590415,4.85062292 14.9920725,5.1069651 14.9920725,5.37608585 L14.9920725,6.41338784 C14.9920725,6.57690424 15.0109473,6.72338549 15.0486976,6.85283597 C15.0864479,6.98228646 15.1459037,7.09299903 15.2270668,7.18497701 C15.3082299,7.27695498 15.4129854,7.3476407 15.5413364,7.39703628 C15.6696873,7.44643186 15.8225737,7.47112928 16,7.47112928 L16,8.52887072 C15.8225737,8.52887072 15.6696873,8.55356814 15.5413364,8.60296372 C15.4129854,8.6523593 15.3082299,8.72304502 15.2270668,8.81502299 C15.1459037,8.90700097 15.0864479,9.01771354 15.0486976,9.14716403 C15.0109473,9.27661451 14.9920725,9.42139249 14.9920725,9.5815023 L14.9920725,10.6188043 C14.9920725,10.887925 14.9590415,11.1442672 14.8929785,11.3878385 C14.8269155,11.6314098 14.7146101,11.8562415 14.5560589,12.0623403 C14.3975077,12.2684391 14.1879968,12.4515407 13.9275198,12.6116505 C13.6670429,12.7717603 13.3423953,12.9012088 12.9535674,13 L12.6364666,12.1722024 Z" id="{-}" fill="#8F8F8F" sketch:type="MSShapeGroup"></path>
                <path d="M8.80078125,16.3125 L9.97265625,16.3125 L9.97265625,20.25 C9.97265625,20.5338556 9.92447965,20.7890614 9.828125,21.015625 C9.73177035,21.2421886 9.59830814,21.434244 9.42773438,21.5917969 C9.25716061,21.7493497 9.05533971,21.8697912 8.82226562,21.953125 C8.58919154,22.0364588 8.33724094,22.078125 8.06640625,22.078125 C7.78775902,22.078125 7.53190221,22.0429691 7.29882812,21.9726562 C7.06575404,21.9023434 6.86458418,21.7949226 6.6953125,21.6503906 C6.52604082,21.5058587 6.39388068,21.3235688 6.29882812,21.1035156 C6.20377557,20.8834624 6.15625,20.6223973 6.15625,20.3203125 L7.3359375,20.3203125 C7.3359375,20.4739591 7.35286441,20.6028641 7.38671875,20.7070312 C7.42057309,20.8111984 7.46940072,20.895182 7.53320312,20.9589844 C7.59700553,21.0227868 7.67382768,21.0683592 7.76367188,21.0957031 C7.85351607,21.123047 7.95442652,21.1367188 8.06640625,21.1367188 C8.2903657,21.1367188 8.46874934,21.0598966 8.6015625,20.90625 C8.73437566,20.7526034 8.80078125,20.5338556 8.80078125,20.25 L8.80078125,16.3125 Z M13.9257812,20.5078125 C13.9257812,20.4088537 13.9114585,20.3196619 13.8828125,20.2402344 C13.8541665,20.1608069 13.7988285,20.0872399 13.7167969,20.0195312 C13.6347652,19.9518226 13.5214851,19.885417 13.3769531,19.8203125 C13.2324212,19.755208 13.0455741,19.6861983 12.8164062,19.6132812 C12.5559883,19.5299475 12.310548,19.4361984 12.0800781,19.3320312 C11.8496082,19.2278641 11.6477873,19.1048184 11.4746094,18.9628906 C11.3014314,18.8209628 11.164714,18.657553 11.0644531,18.4726562 C10.9641922,18.2877595 10.9140625,18.0716158 10.9140625,17.8242188 C10.9140625,17.5872384 10.9654943,17.3704437 11.0683594,17.1738281 C11.1712245,16.9772126 11.3157543,16.8098965 11.5019531,16.671875 C11.688152,16.5338535 11.9095039,16.4264327 12.1660156,16.3496094 C12.4225273,16.2727861 12.7044255,16.234375 13.0117188,16.234375 C13.3268245,16.234375 13.61328,16.2779944 13.8710938,16.3652344 C14.1289075,16.4524744 14.3489574,16.574218 14.53125,16.7304688 C14.7135426,16.8867195 14.8541662,17.0722646 14.953125,17.2871094 C15.0520838,17.5019542 15.1015625,17.7369779 15.1015625,17.9921875 L13.9296875,17.9921875 C13.9296875,17.8723952 13.9108075,17.7617193 13.8730469,17.6601562 C13.8352863,17.5585932 13.7773441,17.4713545 13.6992188,17.3984375 C13.6210934,17.3255205 13.5234381,17.2688804 13.40625,17.2285156 C13.2890619,17.1881508 13.1510425,17.1679688 12.9921875,17.1679688 C12.8385409,17.1679688 12.7050787,17.1848957 12.5917969,17.21875 C12.4785151,17.2526043 12.384766,17.2994789 12.3105469,17.359375 C12.2363278,17.4192711 12.1803387,17.4895829 12.1425781,17.5703125 C12.1048175,17.6510421 12.0859375,17.7369787 12.0859375,17.828125 C12.0859375,18.0156259 12.1816397,18.1725254 12.3730469,18.2988281 C12.5644541,18.4251308 12.8450502,18.5429682 13.2148438,18.6523438 C13.5247411,18.7486984 13.7975249,18.8554682 14.0332031,18.9726562 C14.2688814,19.0898443 14.465494,19.2226555 14.6230469,19.3710938 C14.7805997,19.519532 14.8997392,19.686197 14.9804688,19.8710938 C15.0611983,20.0559905 15.1015625,20.2656238 15.1015625,20.5 C15.1015625,20.7500013 15.0527349,20.9726553 14.9550781,21.1679688 C14.8574214,21.3632822 14.7187509,21.5279941 14.5390625,21.6621094 C14.3593741,21.7962246 14.1425794,21.8990882 13.8886719,21.9707031 C13.6347644,22.0423181 13.3515641,22.078125 13.0390625,22.078125 C12.8515616,22.078125 12.6640634,22.0618491 12.4765625,22.0292969 C12.2890616,21.9967446 12.1100269,21.9466149 11.9394531,21.8789062 C11.7688794,21.8111976 11.6106778,21.726563 11.4648438,21.625 C11.3190097,21.523437 11.1920578,21.4036465 11.0839844,21.265625 C10.9759109,21.1276035 10.8912763,20.970704 10.8300781,20.7949219 C10.7688799,20.6191397 10.7382812,20.4244802 10.7382812,20.2109375 L11.9140625,20.2109375 C11.9140625,20.3828134 11.941406,20.5286452 11.9960938,20.6484375 C12.0507815,20.7682298 12.1269526,20.865234 12.2246094,20.9394531 C12.3222661,21.0136722 12.4401035,21.0677082 12.578125,21.1015625 C12.7161465,21.1354168 12.8697908,21.1523438 13.0390625,21.1523438 C13.1901049,21.1523438 13.321614,21.1360679 13.4335938,21.1035156 C13.5455735,21.0709634 13.6380205,21.026042 13.7109375,20.96875 C13.7838545,20.911458 13.8378904,20.8430994 13.8730469,20.7636719 C13.9082033,20.6842444 13.9257812,20.5989588 13.9257812,20.5078125 L13.9257812,20.5078125 Z" id="JS" fill-opacity="0.87" fill="#FFFFFF" sketch:type="MSShapeGroup"></path>
            </g>
        </g>
    </g>
</svg>