<?xml version="1.0" encoding="UTF-8" standalone="no"?>
<svg width="24px" height="24px" viewBox="0 0 24 24" version="1.1" xmlns="http://www.w3.org/2000/svg" xmlns:xlink="http://www.w3.org/1999/xlink" xmlns:sketch="http://www.bohemiancoding.com/sketch/ns">
    <!-- Generator: Sketch 3.3.3 (12081) - http://www.bohemiancoding.com/sketch -->
    <title>ic_list_3gp</title>
    <desc>Created with Sketch.</desc>
    <defs></defs>
    <g id="UI" stroke="none" stroke-width="1" fill="none" fill-rule="evenodd" sketch:type="MSPage">
        <g id="assets" sketch:type="MSArtboardGroup" transform="translate(-495.000000, -225.000000)">
            <g id="ic_list_3gp" sketch:type="MSLayerGroup" transform="translate(495.000000, 225.000000)">
                <rect id="bounds" sketch:type="MSShapeGroup" x="0" y="0" width="24" height="24"></rect>
                <path d="M3.60355442,23 L3.60355442,23 L19.3964456,23 C19.7278522,23 20,22.7284426 20,22.3973836 L20,5.57787152 L20.3375829,6.32700673 L14.0295032,0.749135212 L14.6919203,1 L3.60744048,1 C3.26946656,1 3,1.26720273 3,1.59329362 L3,22.4067064 C3,22.7301845 3.27097392,23 3.60355442,23 L3.60355442,23 Z M3.60355442,24 C2.71793577,24 2,23.2817277 2,22.4067064 L2,1.59329362 C2,0.713341853 2.71873759,0 3.60744048,0 L14.6919203,0 L21,5.57787152 L21,22.3973836 C21,23.2824842 20.2783785,24 19.3964456,24 L3.60355442,24 L3.60355442,24 Z" id="Shape" fill="#8F8F8F" sketch:type="MSShapeGroup"></path>
                <rect id="Rectangle-179" fill="#8F8F8F" sketch:type="MSShapeGroup" x="0" y="14" width="24" height="10" rx="1"></rect>
                <path d="M6,4.99703014 C6,4.4463856 6.4556644,4 6.99539757,4 L15.0046024,4 C15.5543453,4 16,4.45303631 16,4.99703014 L16,11.0029699 C16,11.5536144 15.5443356,12 15.0046024,12 L6.99539757,12 C6.44565467,12 6,11.5469637 6,11.0029699 L6,4.99703014 Z M13,8 L9,6 L9,10 L13,8 Z" id="Rectangle-92" fill="#8F8F8F" sketch:type="MSShapeGroup"></path>
                <path d="M6.53515625,18.65625 L7.13671875,18.65625 C7.42317852,18.65625 7.63541598,18.5846361 7.7734375,18.4414062 C7.91145902,18.2981764 7.98046875,18.1080741 7.98046875,17.8710938 C7.98046875,17.7669266 7.96484391,17.6699223 7.93359375,17.5800781 C7.90234359,17.4902339 7.85481803,17.4134118 7.79101562,17.3496094 C7.72721322,17.285807 7.6471359,17.2356773 7.55078125,17.1992188 C7.4544266,17.1627602 7.34114648,17.1445312 7.2109375,17.1445312 C7.10677031,17.1445312 7.008464,17.1595051 6.91601562,17.1894531 C6.82356725,17.2194012 6.74283889,17.2617185 6.67382812,17.3164062 C6.60481736,17.371094 6.55013041,17.4381506 6.50976562,17.5175781 C6.46940084,17.5970056 6.44921875,17.6861974 6.44921875,17.7851562 L5.3203125,17.7851562 C5.3203125,17.5507801 5.36914014,17.3378916 5.46679688,17.1464844 C5.56445361,16.9550772 5.69726479,16.7923184 5.86523438,16.6582031 C6.03320396,16.5240879 6.23046762,16.4199222 6.45703125,16.3457031 C6.68359488,16.271484 6.92577996,16.234375 7.18359375,16.234375 C7.47005352,16.234375 7.73111861,16.2688799 7.96679688,16.3378906 C8.20247514,16.4069014 8.40494707,16.5097649 8.57421875,16.6464844 C8.74349043,16.7832038 8.87499953,16.9524729 8.96875,17.1542969 C9.06250047,17.3561208 9.109375,17.5898424 9.109375,17.8554688 C9.109375,17.9778652 9.09049498,18.0989577 9.05273438,18.21875 C9.01497377,18.3385423 8.95898475,18.4511713 8.88476562,18.5566406 C8.8105465,18.6621099 8.72005262,18.7597652 8.61328125,18.8496094 C8.50650988,18.9394536 8.38411527,19.0156247 8.24609375,19.078125 C8.56640785,19.1927089 8.80533775,19.3645822 8.96289062,19.59375 C9.1204435,19.8229178 9.19921875,20.0937484 9.19921875,20.40625 C9.19921875,20.6718763 9.14778697,20.9088531 9.04492188,21.1171875 C8.94205678,21.3255219 8.80078215,21.5006503 8.62109375,21.6425781 C8.44140535,21.7845059 8.22851686,21.8925778 7.98242188,21.9667969 C7.73632689,22.041016 7.47005352,22.078125 7.18359375,22.078125 C6.94140504,22.078125 6.70442824,22.0455732 6.47265625,21.9804688 C6.24088426,21.9153643 6.03450611,21.8151048 5.85351562,21.6796875 C5.67252514,21.5442702 5.52669326,21.37435 5.41601562,21.1699219 C5.30533799,20.9654938 5.25,20.7226577 5.25,20.4414062 L6.37890625,20.4414062 C6.37890625,20.5481776 6.39973938,20.6458329 6.44140625,20.734375 C6.48307313,20.8229171 6.54101525,20.8990882 6.61523438,20.9628906 C6.6894535,21.026693 6.77734324,21.0768227 6.87890625,21.1132812 C6.98046926,21.1497398 7.09114523,21.1679688 7.2109375,21.1679688 C7.34375066,21.1679688 7.46354113,21.1497398 7.5703125,21.1132812 C7.67708387,21.0768227 7.76757775,21.0240889 7.84179688,20.9550781 C7.916016,20.8860674 7.97265605,20.8040369 8.01171875,20.7089844 C8.05078145,20.6139318 8.0703125,20.5078131 8.0703125,20.390625 C8.0703125,20.2395826 8.04882834,20.1100266 8.00585938,20.0019531 C7.96289041,19.8938797 7.90104207,19.8059899 7.8203125,19.7382812 C7.73958293,19.6705726 7.64127662,19.6204429 7.52539062,19.5878906 C7.40950463,19.5553384 7.27994863,19.5390625 7.13671875,19.5390625 L6.53515625,19.5390625 L6.53515625,18.65625 Z M14.5976562,21.28125 C14.5299476,21.3619796 14.4375006,21.4485672 14.3203125,21.5410156 C14.2031244,21.633464 14.0559905,21.7194006 13.8789062,21.7988281 C13.701822,21.8782556 13.4928397,21.9446612 13.2519531,21.9980469 C13.0110665,22.0514326 12.7343766,22.078125 12.421875,22.078125 C12.0546857,22.078125 11.7194026,22.0175787 11.4160156,21.8964844 C11.1126287,21.77539 10.8528657,21.5976574 10.6367188,21.3632812 C10.4205718,21.1289051 10.2532558,20.8411475 10.1347656,20.5 C10.0162754,20.1588525 9.95703125,19.7682314 9.95703125,19.328125 L9.95703125,18.9921875 C9.95703125,18.5520811 10.0136713,18.160809 10.1269531,17.8183594 C10.2402349,17.4759097 10.4003896,17.1875012 10.6074219,16.953125 C10.8144542,16.7187488 11.0651027,16.5403652 11.359375,16.4179688 C11.6536473,16.2955723 11.980467,16.234375 12.3398438,16.234375 C12.7096373,16.234375 13.0292955,16.2805985 13.2988281,16.3730469 C13.5683607,16.4654953 13.7936189,16.5950512 13.9746094,16.7617188 C14.1555999,16.9283862 14.2968745,17.127603 14.3984375,17.359375 C14.5000005,17.591147 14.5664061,17.8450507 14.5976562,18.1210938 L13.4570312,18.1210938 C13.4335936,17.9778639 13.3971357,17.8483079 13.3476562,17.7324219 C13.2981768,17.6165359 13.2304692,17.5175785 13.1445312,17.4355469 C13.0585933,17.3535152 12.9524746,17.2903648 12.8261719,17.2460938 C12.6998692,17.2018227 12.54948,17.1796875 12.375,17.1796875 C11.9739563,17.1796875 11.6692719,17.3313787 11.4609375,17.6347656 C11.2526031,17.9381526 11.1484375,18.3880179 11.1484375,18.984375 L11.1484375,19.328125 C11.1484375,19.9244821 11.2617176,20.3749985 11.4882812,20.6796875 C11.7148449,20.9843765 12.0468728,21.1367188 12.484375,21.1367188 C12.6250007,21.1367188 12.7473953,21.1276043 12.8515625,21.109375 C12.9557297,21.0911457 13.0449215,21.0683595 13.1191406,21.0410156 C13.1933597,21.0136717 13.2552081,20.9837241 13.3046875,20.9511719 C13.3541669,20.9186196 13.3945311,20.8867189 13.4257812,20.8554688 L13.4257812,19.875 L12.359375,19.875 L12.359375,19.0117188 L14.5976562,19.0117188 L14.5976562,21.28125 Z M16.71875,19.9960938 L16.71875,22 L15.546875,22 L15.546875,16.3125 L17.765625,16.3125 C18.1015642,16.3125 18.4016914,16.3593745 18.6660156,16.453125 C18.9303399,16.5468755 19.154296,16.6777335 19.3378906,16.8457031 C19.5214853,17.0136727 19.6614579,17.2128895 19.7578125,17.4433594 C19.8541671,17.6738293 19.9023438,17.9244778 19.9023438,18.1953125 C19.9023438,18.4713555 19.8541671,18.720051 19.7578125,18.9414062 C19.6614579,19.1627615 19.5214853,19.3515617 19.3378906,19.5078125 C19.154296,19.6640633 18.9303399,19.7845048 18.6660156,19.8691406 C18.4016914,19.9537765 18.1015642,19.9960938 17.765625,19.9960938 L16.71875,19.9960938 Z M16.71875,19.046875 L17.765625,19.046875 C17.9322925,19.046875 18.0761713,19.0260419 18.1972656,18.984375 C18.31836,18.9427081 18.4173173,18.884766 18.4941406,18.8105469 C18.5709639,18.7363278 18.627604,18.6471359 18.6640625,18.5429688 C18.700521,18.4388016 18.71875,18.3255214 18.71875,18.203125 C18.71875,18.0807286 18.700521,17.9628912 18.6640625,17.8496094 C18.627604,17.7363276 18.5709639,17.6360681 18.4941406,17.5488281 C18.4173173,17.4615881 18.31836,17.3919273 18.1972656,17.3398438 C18.0761713,17.2877602 17.9322925,17.2617188 17.765625,17.2617188 L16.71875,17.2617188 L16.71875,19.046875 Z" id="mp3" fill-opacity="0.87" fill="#FFFFFF" sketch:type="MSShapeGroup"></path>
            </g>
        </g>
    </g>
</svg>