<?xml version="1.0" encoding="UTF-8" standalone="no"?>
<svg width="24px" height="24px" viewBox="0 0 24 24" version="1.1" xmlns="http://www.w3.org/2000/svg" xmlns:xlink="http://www.w3.org/1999/xlink" xmlns:sketch="http://www.bohemiancoding.com/sketch/ns">
    <!-- Generator: Sketch 3.3.3 (12081) - http://www.bohemiancoding.com/sketch -->
    <title>ic_list_link</title>
    <desc>Created with Sketch.</desc>
    <defs></defs>
    <g id="UI" stroke="none" stroke-width="1" fill="none" fill-rule="evenodd" sketch:type="MSPage">
        <g id="assets" sketch:type="MSArtboardGroup" transform="translate(-525.000000, -195.000000)">
            <g id="ic_list_link" sketch:type="MSLayerGroup" transform="translate(525.000000, 195.000000)">
                <rect id="bounds" sketch:type="MSShapeGroup" x="0" y="0" width="24" height="24"></rect>
                <path d="M3.60355442,23 L3.60355442,23 L19.3964456,23 C19.7278522,23 20,22.7284426 20,22.3973836 L20,5.57787152 L20.3375829,6.32700673 L14.0295032,0.749135212 L14.6919203,1 L3.60744048,1 C3.26946656,1 3,1.26720273 3,1.59329362 L3,22.4067064 C3,22.7301845 3.27097392,23 3.60355442,23 L3.60355442,23 Z M3.60355442,24 C2.71793577,24 2,23.2817277 2,22.4067064 L2,1.59329362 C2,0.713341853 2.71873759,0 3.60744048,0 L14.6919203,0 L21,5.57787152 L21,22.3973836 C21,23.2824842 20.2783785,24 19.3964456,24 L3.60355442,24 L3.60355442,24 Z" id="Shape" fill="#8F8F8F" sketch:type="MSShapeGroup"></path>
                <g id="Rectangle-33-+-Rectangle-33" transform="translate(5.000000, 7.000000)" fill="#8F8F8F" sketch:type="MSShapeGroup">
                    <path d="M6.10403837,8.23356228 L4.52941075,9.80818989 C3.80783872,10.5297619 2.63428009,10.528694 1.91213636,9.80655029 C1.18997949,9.08439343 1.19013025,7.90964239 1.91049675,7.18927589 L3.48512436,5.61464828 C4.20669639,4.89307625 5.38025503,4.89414414 6.10239876,5.61628788 C6.24703739,5.76092651 6.48154294,5.76092651 6.62618156,5.61628788 C6.77082019,5.47164925 6.77082019,5.23714371 6.62618156,5.09250508 C5.61497375,4.08129727 3.97240445,4.07980259 2.96134156,5.09086547 L1.38671395,6.66549309 C0.377100287,7.67510675 0.37688934,9.31886887 1.38835356,10.3303331 C2.39956137,11.3415409 4.04213067,11.3430356 5.05319356,10.3319727 L6.62782117,8.75734508 C6.7724598,8.61270645 6.7724598,8.37820091 6.62782117,8.23356228 C6.48318254,8.08892365 6.248677,8.08892365 6.10403837,8.23356228 L6.10403837,8.23356228 Z" id="Shape"></path>
                    <path d="M5.70633584,3.48557219 L7.28096346,1.91094457 C8.00253549,1.18937254 9.17609412,1.19044044 9.89823786,1.91258418 C10.6203947,2.63474104 10.620244,3.80949208 9.89987746,4.52985858 L8.32524985,6.10448619 C7.60367782,6.82605822 6.43011919,6.82499032 5.70797545,6.10284658 C5.56333682,5.95820796 5.32883128,5.95820796 5.18419265,6.10284658 C5.03955402,6.24748521 5.03955402,6.48199076 5.18419265,6.62662939 C6.19540046,7.6378372 7.83796976,7.63933188 8.84903265,6.62826899 L10.4236603,5.05364138 C11.4332739,4.04402771 11.4334849,2.40026559 10.4220207,1.38880138 C9.41081285,0.377593563 7.76824355,0.376098881 6.75718066,1.38716177 L5.18255304,2.96178939 C5.03791442,3.10642801 5.03791442,3.34093356 5.18255304,3.48557219 C5.32719167,3.63021081 5.56169722,3.63021081 5.70633584,3.48557219 L5.70633584,3.48557219 Z" id="Shape"></path>
                </g>
            </g>
        </g>
    </g>
</svg>