<?xml version="1.0" encoding="UTF-8" standalone="no"?>
<svg width="24px" height="24px" viewBox="0 0 24 24" version="1.1" xmlns="http://www.w3.org/2000/svg" xmlns:xlink="http://www.w3.org/1999/xlink" xmlns:sketch="http://www.bohemiancoding.com/sketch/ns">
    <!-- Generator: Sketch 3.3.3 (12081) - http://www.bohemiancoding.com/sketch -->
    <title>ic_list_msi</title>
    <desc>Created with Sketch.</desc>
    <defs></defs>
    <g id="UI" stroke="none" stroke-width="1" fill="none" fill-rule="evenodd" sketch:type="MSPage">
        <g id="assets" sketch:type="MSArtboardGroup" transform="translate(-146.000000, -225.000000)">
            <g id="ic_list_msi" sketch:type="MSLayerGroup" transform="translate(146.000000, 225.000000)">
                <rect id="bounds" sketch:type="MSShapeGroup" x="0" y="0" width="24" height="24"></rect>
                <path d="M3.60355442,23 L3.60355442,23 L19.3964456,23 C19.7278522,23 20,22.7284426 20,22.3973836 L20,5.57787152 L20.3375829,6.32700673 L14.0295032,0.749135212 L14.6919203,1 L3.60744048,1 C3.26946656,1 3,1.26720273 3,1.59329362 L3,22.4067064 C3,22.7301845 3.27097392,23 3.60355442,23 L3.60355442,23 Z M3.60355442,24 C2.71793577,24 2,23.2817277 2,22.4067064 L2,1.59329362 C2,0.713341853 2.71873759,0 3.60744048,0 L14.6919203,0 L21,5.57787152 L21,22.3973836 C21,23.2824842 20.2783785,24 19.3964456,24 L3.60355442,24 L3.60355442,24 Z" id="Shape" fill="#8F8F8F" sketch:type="MSShapeGroup"></path>
                <rect id="Rectangle-179" fill="#8F8F8F" sketch:type="MSShapeGroup" x="0" y="14" width="24" height="10" rx="2"></rect>
                <circle id="Oval-2" stroke="#8F8F8F" stroke-width="2" sketch:type="MSShapeGroup" cx="11" cy="8" r="3"></circle>
                <circle id="Oval-3" fill="#8F8F8F" sketch:type="MSShapeGroup" cx="11" cy="5" r="1"></circle>
                <circle id="Oval-3" fill="#8F8F8F" sketch:type="MSShapeGroup" cx="11" cy="11" r="1"></circle>
                <circle id="Oval-3" fill="#8F8F8F" sketch:type="MSShapeGroup" cx="14" cy="8" r="1"></circle>
                <circle id="Oval-3" fill="#8F8F8F" sketch:type="MSShapeGroup" cx="8" cy="8" r="1"></circle>
                <circle id="Oval-3" fill="#8F8F8F" sketch:type="MSShapeGroup" cx="9" cy="6" r="1"></circle>
                <circle id="Oval-3" fill="#8F8F8F" sketch:type="MSShapeGroup" cx="13" cy="6" r="1"></circle>
                <circle id="Oval-3" fill="#8F8F8F" sketch:type="MSShapeGroup" cx="13" cy="10" r="1"></circle>
                <circle id="Oval-3" fill="#8F8F8F" sketch:type="MSShapeGroup" cx="9" cy="10" r="1"></circle>
                <path d="M6.0390625,16.3125 L7.5,20.4375 L8.953125,16.3125 L10.4921875,16.3125 L10.4921875,22 L9.31640625,22 L9.31640625,20.4453125 L9.43359375,17.7617188 L7.8984375,22 L7.09375,22 L5.5625,17.765625 L5.6796875,20.4453125 L5.6796875,22 L4.5078125,22 L4.5078125,16.3125 L6.0390625,16.3125 Z M14.4648438,20.5078125 C14.4648438,20.4088537 14.450521,20.3196619 14.421875,20.2402344 C14.393229,20.1608069 14.337891,20.0872399 14.2558594,20.0195312 C14.1738277,19.9518226 14.0605476,19.885417 13.9160156,19.8203125 C13.7714837,19.755208 13.5846366,19.6861983 13.3554688,19.6132812 C13.0950508,19.5299475 12.8496105,19.4361984 12.6191406,19.3320312 C12.3886707,19.2278641 12.1868498,19.1048184 12.0136719,18.9628906 C11.8404939,18.8209628 11.7037765,18.657553 11.6035156,18.4726562 C11.5032547,18.2877595 11.453125,18.0716158 11.453125,17.8242188 C11.453125,17.5872384 11.5045568,17.3704437 11.6074219,17.1738281 C11.710287,16.9772126 11.8548168,16.8098965 12.0410156,16.671875 C12.2272145,16.5338535 12.4485664,16.4264327 12.7050781,16.3496094 C12.9615898,16.2727861 13.243488,16.234375 13.5507812,16.234375 C13.865887,16.234375 14.1523425,16.2779944 14.4101562,16.3652344 C14.66797,16.4524744 14.8880199,16.574218 15.0703125,16.7304688 C15.2526051,16.8867195 15.3932287,17.0722646 15.4921875,17.2871094 C15.5911463,17.5019542 15.640625,17.7369779 15.640625,17.9921875 L14.46875,17.9921875 C14.46875,17.8723952 14.44987,17.7617193 14.4121094,17.6601562 C14.3743488,17.5585932 14.3164066,17.4713545 14.2382812,17.3984375 C14.1601559,17.3255205 14.0625006,17.2688804 13.9453125,17.2285156 C13.8281244,17.1881508 13.690105,17.1679688 13.53125,17.1679688 C13.3776034,17.1679688 13.2441412,17.1848957 13.1308594,17.21875 C13.0175776,17.2526043 12.9238285,17.2994789 12.8496094,17.359375 C12.7753903,17.4192711 12.7194012,17.4895829 12.6816406,17.5703125 C12.64388,17.6510421 12.625,17.7369787 12.625,17.828125 C12.625,18.0156259 12.7207022,18.1725254 12.9121094,18.2988281 C13.1035166,18.4251308 13.3841127,18.5429682 13.7539062,18.6523438 C14.0638036,18.7486984 14.3365874,18.8554682 14.5722656,18.9726562 C14.8079439,19.0898443 15.0045565,19.2226555 15.1621094,19.3710938 C15.3196622,19.519532 15.4388017,19.686197 15.5195312,19.8710938 C15.6002608,20.0559905 15.640625,20.2656238 15.640625,20.5 C15.640625,20.7500013 15.5917974,20.9726553 15.4941406,21.1679688 C15.3964839,21.3632822 15.2578134,21.5279941 15.078125,21.6621094 C14.8984366,21.7962246 14.6816419,21.8990882 14.4277344,21.9707031 C14.1738269,22.0423181 13.8906266,22.078125 13.578125,22.078125 C13.3906241,22.078125 13.2031259,22.0618491 13.015625,22.0292969 C12.8281241,21.9967446 12.6490894,21.9466149 12.4785156,21.8789062 C12.3079419,21.8111976 12.1497403,21.726563 12.0039062,21.625 C11.8580722,21.523437 11.7311203,21.4036465 11.6230469,21.265625 C11.5149734,21.1276035 11.4303388,20.970704 11.3691406,20.7949219 C11.3079424,20.6191397 11.2773438,20.4244802 11.2773438,20.2109375 L12.453125,20.2109375 C12.453125,20.3828134 12.4804685,20.5286452 12.5351562,20.6484375 C12.589844,20.7682298 12.6660151,20.865234 12.7636719,20.9394531 C12.8613286,21.0136722 12.979166,21.0677082 13.1171875,21.1015625 C13.255209,21.1354168 13.4088533,21.1523438 13.578125,21.1523438 C13.7291674,21.1523438 13.8606765,21.1360679 13.9726562,21.1035156 C14.084636,21.0709634 14.177083,21.026042 14.25,20.96875 C14.322917,20.911458 14.3769529,20.8430994 14.4121094,20.7636719 C14.4472658,20.6842444 14.4648438,20.5989588 14.4648438,20.5078125 L14.4648438,20.5078125 Z M17.6796875,22 L16.5078125,22 L16.5078125,16.3125 L17.6796875,16.3125 L17.6796875,22 Z" id="EXE" fill-opacity="0.87" fill="#FFFFFF" sketch:type="MSShapeGroup"></path>
            </g>
        </g>
    </g>
</svg>