<?xml version="1.0" encoding="UTF-8" standalone="no"?>
<svg width="24px" height="24px" viewBox="0 0 24 24" version="1.1" xmlns="http://www.w3.org/2000/svg" xmlns:xlink="http://www.w3.org/1999/xlink" xmlns:sketch="http://www.bohemiancoding.com/sketch/ns">
    <!-- Generator: Sketch 3.3.3 (12081) - http://www.bohemiancoding.com/sketch -->
    <title>ic_list_mp4</title>
    <desc>Created with Sketch.</desc>
    <defs></defs>
    <g id="UI" stroke="none" stroke-width="1" fill="none" fill-rule="evenodd" sketch:type="MSPage">
        <g id="assets" sketch:type="MSArtboardGroup" transform="translate(-372.000000, -225.000000)">
            <g id="ic_list_mp4" sketch:type="MSLayerGroup" transform="translate(372.000000, 225.000000)">
                <rect id="bounds" sketch:type="MSShapeGroup" x="0" y="0" width="24" height="24"></rect>
                <path d="M3.60355442,23 L3.60355442,23 L19.3964456,23 C19.7278522,23 20,22.7284426 20,22.3973836 L20,5.57787152 L20.3375829,6.32700673 L14.0295032,0.749135212 L14.6919203,1 L3.60744048,1 C3.26946656,1 3,1.26720273 3,1.59329362 L3,22.4067064 C3,22.7301845 3.27097392,23 3.60355442,23 L3.60355442,23 Z M3.60355442,24 C2.71793577,24 2,23.2817277 2,22.4067064 L2,1.59329362 C2,0.713341853 2.71873759,0 3.60744048,0 L14.6919203,0 L21,5.57787152 L21,22.3973836 C21,23.2824842 20.2783785,24 19.3964456,24 L3.60355442,24 L3.60355442,24 Z" id="Shape" fill="#8F8F8F" sketch:type="MSShapeGroup"></path>
                <rect id="Rectangle-179" fill="#8F8F8F" sketch:type="MSShapeGroup" x="0" y="14" width="24" height="10" rx="2"></rect>
                <path d="M6,4.99703014 C6,4.4463856 6.4556644,4 6.99539757,4 L15.0046024,4 C15.5543453,4 16,4.45303631 16,4.99703014 L16,11.0029699 C16,11.5536144 15.5443356,12 15.0046024,12 L6.99539757,12 C6.44565467,12 6,11.5469637 6,11.0029699 L6,4.99703014 Z M13,8 L9,6 L9,10 L13,8 Z" id="Rectangle-92" fill="#8F8F8F" sketch:type="MSShapeGroup"></path>
                <path d="M5.0390625,16.3125 L6.5,20.4375 L7.953125,16.3125 L9.4921875,16.3125 L9.4921875,22 L8.31640625,22 L8.31640625,20.4453125 L8.43359375,17.7617188 L6.8984375,22 L6.09375,22 L4.5625,17.765625 L4.6796875,20.4453125 L4.6796875,22 L3.5078125,22 L3.5078125,16.3125 L5.0390625,16.3125 Z M11.6875,19.9960938 L11.6875,22 L10.515625,22 L10.515625,16.3125 L12.734375,16.3125 C13.0703142,16.3125 13.3704414,16.3593745 13.6347656,16.453125 C13.8990899,16.5468755 14.123046,16.6777335 14.3066406,16.8457031 C14.4902353,17.0136727 14.6302079,17.2128895 14.7265625,17.4433594 C14.8229171,17.6738293 14.8710938,17.9244778 14.8710938,18.1953125 C14.8710938,18.4713555 14.8229171,18.720051 14.7265625,18.9414062 C14.6302079,19.1627615 14.4902353,19.3515617 14.3066406,19.5078125 C14.123046,19.6640633 13.8990899,19.7845048 13.6347656,19.8691406 C13.3704414,19.9537765 13.0703142,19.9960938 12.734375,19.9960938 L11.6875,19.9960938 Z M11.6875,19.046875 L12.734375,19.046875 C12.9010425,19.046875 13.0449213,19.0260419 13.1660156,18.984375 C13.28711,18.9427081 13.3860673,18.884766 13.4628906,18.8105469 C13.5397139,18.7363278 13.596354,18.6471359 13.6328125,18.5429688 C13.669271,18.4388016 13.6875,18.3255214 13.6875,18.203125 C13.6875,18.0807286 13.669271,17.9628912 13.6328125,17.8496094 C13.596354,17.7363276 13.5397139,17.6360681 13.4628906,17.5488281 C13.3860673,17.4615881 13.28711,17.3919273 13.1660156,17.3398438 C13.0449213,17.2877602 12.9010425,17.2617188 12.734375,17.2617188 L11.6875,17.2617188 L11.6875,19.046875 Z M18.8945312,19.859375 L19.5390625,19.859375 L19.5390625,20.7695312 L18.8945312,20.7695312 L18.8945312,22 L17.765625,22 L17.765625,20.7695312 L15.4335938,20.7695312 L15.3828125,20.0585938 L17.7539062,16.3125 L18.8945312,16.3125 L18.8945312,19.859375 Z M16.5078125,19.859375 L17.765625,19.859375 L17.765625,17.8515625 L17.6914062,17.9804688 L16.5078125,19.859375 Z" id="mp3" fill-opacity="0.87" fill="#FFFFFF" sketch:type="MSShapeGroup"></path>
            </g>
        </g>
    </g>
</svg>