<?xml version="1.0" encoding="UTF-8" standalone="no"?>
<svg width="24px" height="24px" viewBox="0 0 24 24" version="1.1" xmlns="http://www.w3.org/2000/svg" xmlns:xlink="http://www.w3.org/1999/xlink" xmlns:sketch="http://www.bohemiancoding.com/sketch/ns">
    <!-- Generator: Sketch 3.3.3 (12081) - http://www.bohemiancoding.com/sketch -->
    <title>ic_list_tar</title>
    <desc>Created with Sketch.</desc>
    <defs></defs>
    <g id="UI" stroke="none" stroke-width="1" fill="none" fill-rule="evenodd" sketch:type="MSPage">
        <g id="assets" sketch:type="MSArtboardGroup" transform="translate(-245.000000, -195.000000)">
            <g id="ic_list_tar" sketch:type="MSLayerGroup" transform="translate(245.000000, 195.000000)">
                <rect id="bounds" sketch:type="MSShapeGroup" x="0" y="0" width="24" height="24"></rect>
                <path d="M3.60355442,23 L3.60355442,23 L19.3964456,23 C19.7278522,23 20,22.7284426 20,22.3973836 L20,5.57787152 L20.3375829,6.32700673 L14.0295032,0.749135212 L14.6919203,1 L3.60744048,1 C3.26946656,1 3,1.26720273 3,1.59329362 L3,22.4067064 C3,22.7301845 3.27097392,23 3.60355442,23 L3.60355442,23 Z M3.60355442,24 C2.71793577,24 2,23.2817277 2,22.4067064 L2,1.59329362 C2,0.713341853 2.71873759,0 3.60744048,0 L14.6919203,0 L21,5.57787152 L21,22.3973836 C21,23.2824842 20.2783785,24 19.3964456,24 L3.60355442,24 L3.60355442,24 Z" id="Shape" fill="#8F8F8F" sketch:type="MSShapeGroup"></path>
                <g id="Group" transform="translate(6.000000, 2.000000)" sketch:type="MSShapeGroup">
                    <rect id="Rectangle-192" fill="#8F8F8F" x="0" y="3" width="6" height="6"></rect>
                    <path d="M0.7,2 L6.3,2 C6.57614237,2 6.8,1.77614237 6.8,1.5 C6.8,1.22385763 6.57614237,1 6.3,1 L0.7,1 C0.423857625,1 0.2,1.22385763 0.2,1.5 C0.2,1.77614237 0.423857625,2 0.7,2 L0.7,2 Z" id="Shape" fill="#979797"></path>
                    <path d="M0.7,11 L6.3,11 C6.57614237,11 6.8,10.7761424 6.8,10.5 C6.8,10.2238576 6.57614237,10 6.3,10 L0.7,10 C0.423857625,10 0.2,10.2238576 0.2,10.5 C0.2,10.7761424 0.423857625,11 0.7,11 L0.7,11 Z" id="Shape" fill="#979797"></path>
                    <path d="M6.02565833,1.65811389 L7.02565833,4.65811379 C7.11298222,4.92008545 7.39614221,5.06166544 7.65811386,4.97434155 C7.92008552,4.88701766 8.06166551,4.60385768 7.97434162,4.34188602 L6.97434162,1.34188611 C6.88701773,1.07991446 6.60385775,0.938334465 6.34188609,1.02565835 C6.07991443,1.11298224 5.93833444,1.39614223 6.02565833,1.65811389 L6.02565833,1.65811389 Z" id="Shape" fill="#979797"></path>
                    <path d="M7.02565833,7.34188611 L6.02565833,10.341886 C5.93833444,10.6038577 6.07991443,10.8870177 6.34188609,10.9743416 C6.60385775,11.0616654 6.88701773,10.9200855 6.97434162,10.6581138 L7.97434162,7.65811389 C8.06166551,7.39614223 7.92008552,7.11298224 7.65811386,7.02565835 C7.39614221,6.93833447 7.11298222,7.07991446 7.02565833,7.34188611 L7.02565833,7.34188611 Z" id="Shape" fill="#979797"></path>
                    <path d="M8,5.5 L8,6.5 C8,6.77614237 8.22385763,7 8.5,7 C8.77614237,7 9,6.77614237 9,6.5 L9,5.5 C9,5.22385763 8.77614237,5 8.5,5 C8.22385763,5 8,5.22385763 8,5.5 L8,5.5 Z" id="Shape" fill="#979797"></path>
                    <path d="M9,5.5 L9,6.5 C9,6.77614237 9.22385763,7 9.5,7 C9.77614237,7 10,6.77614237 10,6.5 L10,5.5 C10,5.22385763 9.77614237,5 9.5,5 C9.22385763,5 9,5.22385763 9,5.5 L9,5.5 Z" id="Shape" fill="#979797"></path>
                    <path d="M10,5.5 L10,6.5 C10,6.77614237 10.2238576,7 10.5,7 C10.7761424,7 11,6.77614237 11,6.5 L11,5.5 C11,5.22385763 10.7761424,5 10.5,5 C10.2238576,5 10,5.22385763 10,5.5 L10,5.5 Z" id="Shape" fill="#979797"></path>
                </g>
                <rect id="Rectangle-179" fill="#8F8F8F" sketch:type="MSShapeGroup" x="0" y="14" width="24" height="10" rx="2"></rect>
                <path d="M8.7890625,17.2617188 L7.046875,17.2617188 L7.046875,22 L5.875,22 L5.875,17.2617188 L4.15625,17.2617188 L4.15625,16.3125 L8.7890625,16.3125 L8.7890625,17.2617188 Z M12.1992188,20.828125 L10.1445312,20.828125 L9.75390625,22 L8.5078125,22 L10.625,16.3125 L11.7109375,16.3125 L13.8398438,22 L12.59375,22 L12.1992188,20.828125 Z M10.4609375,19.8789062 L11.8828125,19.8789062 L11.1679688,17.75 L10.4609375,19.8789062 Z M16.4765625,19.9179688 L15.5429688,19.9179688 L15.5429688,22 L14.3710938,22 L14.3710938,16.3125 L16.484375,16.3125 C16.8125016,16.3125 17.1067695,16.349609 17.3671875,16.4238281 C17.6276055,16.4980472 17.8476554,16.6074212 18.0273438,16.7519531 C18.2070321,16.8964851 18.3450516,17.0755198 18.4414062,17.2890625 C18.5377609,17.5026052 18.5859375,17.7499986 18.5859375,18.03125 C18.5859375,18.2395844 18.5625002,18.4264315 18.515625,18.5917969 C18.4687498,18.7571623 18.4010421,18.9042962 18.3125,19.0332031 C18.2239579,19.16211 18.1171881,19.2747391 17.9921875,19.3710938 C17.8671869,19.4674484 17.7265633,19.5507809 17.5703125,19.6210938 L18.8007812,21.9453125 L18.8007812,22 L17.5429688,22 L16.4765625,19.9179688 Z M15.5429688,18.96875 L16.4882812,18.96875 C16.6419279,18.96875 16.7766921,18.9485679 16.8925781,18.9082031 C17.0084641,18.8678383 17.1048173,18.8105472 17.1816406,18.7363281 C17.2584639,18.662109 17.3164061,18.5735682 17.3554688,18.4707031 C17.3945314,18.367838 17.4140625,18.2526048 17.4140625,18.125 C17.4140625,17.8567695 17.3378914,17.6458341 17.1855469,17.4921875 C17.0332024,17.3385409 16.7994807,17.2617188 16.484375,17.2617188 L15.5429688,17.2617188 L15.5429688,18.96875 Z" id="TAR" fill-opacity="0.87" fill="#FFFFFF" sketch:type="MSShapeGroup"></path>
            </g>
        </g>
    </g>
</svg>