<?xml version="1.0" encoding="UTF-8" standalone="no"?>
<svg width="24px" height="24px" viewBox="0 0 24 24" version="1.1" xmlns="http://www.w3.org/2000/svg" xmlns:xlink="http://www.w3.org/1999/xlink" xmlns:sketch="http://www.bohemiancoding.com/sketch/ns">
    <!-- Generator: Sketch 3.3.3 (12081) - http://www.bohemiancoding.com/sketch -->
    <title>ic_list_mov</title>
    <desc>Created with Sketch.</desc>
    <defs></defs>
    <g id="UI" stroke="none" stroke-width="1" fill="none" fill-rule="evenodd" sketch:type="MSPage">
        <g id="assets" sketch:type="MSArtboardGroup" transform="translate(-526.000000, -225.000000)">
            <g id="ic_list_mov" sketch:type="MSLayerGroup" transform="translate(526.000000, 225.000000)">
                <rect id="bounds" sketch:type="MSShapeGroup" x="0" y="0" width="24" height="24"></rect>
                <path d="M3.60355442,23 L3.60355442,23 L19.3964456,23 C19.7278522,23 20,22.7284426 20,22.3973836 L20,5.57787152 L20.3375829,6.32700673 L14.0295032,0.749135212 L14.6919203,1 L3.60744048,1 C3.26946656,1 3,1.26720273 3,1.59329362 L3,22.4067064 C3,22.7301845 3.27097392,23 3.60355442,23 L3.60355442,23 Z M3.60355442,24 C2.71793577,24 2,23.2817277 2,22.4067064 L2,1.59329362 C2,0.713341853 2.71873759,0 3.60744048,0 L14.6919203,0 L21,5.57787152 L21,22.3973836 C21,23.2824842 20.2783785,24 19.3964456,24 L3.60355442,24 L3.60355442,24 Z" id="Shape" fill="#8F8F8F" sketch:type="MSShapeGroup"></path>
                <rect id="Rectangle-179" fill="#8F8F8F" sketch:type="MSShapeGroup" x="0" y="14" width="24" height="10" rx="1"></rect>
                <path d="M6,4.99703014 C6,4.4463856 6.4556644,4 6.99539757,4 L15.0046024,4 C15.5543453,4 16,4.45303631 16,4.99703014 L16,11.0029699 C16,11.5536144 15.5443356,12 15.0046024,12 L6.99539757,12 C6.44565467,12 6,11.5469637 6,11.0029699 L6,4.99703014 Z M13,8 L9,6 L9,10 L13,8 Z" id="Rectangle-92" fill="#8F8F8F" sketch:type="MSShapeGroup"></path>
                <path d="M5.78417969,17.0234375 L7.0625,20.6328125 L8.33398438,17.0234375 L9.68066406,17.0234375 L9.68066406,22 L8.65185547,22 L8.65185547,20.6396484 L8.75439453,18.2915039 L7.41113281,22 L6.70703125,22 L5.3671875,18.2949219 L5.46972656,20.6396484 L5.46972656,22 L4.44433594,22 L4.44433594,17.0234375 L5.78417969,17.0234375 Z M14.6640625,19.6245117 C14.6640625,20.0050475 14.6127935,20.3462713 14.5102539,20.6481934 C14.4077143,20.9501154 14.2635914,21.2058909 14.0778809,21.4155273 C13.8921703,21.6251638 13.6694349,21.7863764 13.409668,21.8991699 C13.149901,22.0119635 12.8639339,22.0683594 12.5517578,22.0683594 C12.2395818,22.0683594 11.9536146,22.0119635 11.6938477,21.8991699 C11.4340807,21.7863764 11.210206,21.6251638 11.0222168,21.4155273 C10.8342276,21.2058909 10.687826,20.9501154 10.5830078,20.6481934 C10.4781896,20.3462713 10.4257812,20.0050475 10.4257812,19.6245117 L10.4257812,19.4057617 C10.4257812,19.0275046 10.4776199,18.6868505 10.5812988,18.3837891 C10.6849777,18.0807277 10.83024,17.8232432 11.0170898,17.6113281 C11.2039397,17.399413 11.4272448,17.2370611 11.6870117,17.1242676 C11.9467786,17.011474 12.2327458,16.9550781 12.5449219,16.9550781 C12.8570979,16.9550781 13.1430651,17.011474 13.402832,17.1242676 C13.662599,17.2370611 13.885904,17.399413 14.0727539,17.6113281 C14.2596038,17.8232432 14.404866,18.0807277 14.5085449,18.3837891 C14.6122238,18.6868505 14.6640625,19.0275046 14.6640625,19.4057617 L14.6640625,19.6245117 Z M13.625,19.3989258 C13.625,18.8771133 13.5315765,18.4806329 13.3447266,18.2094727 C13.1578767,17.9383124 12.8912778,17.8027344 12.5449219,17.8027344 C12.198566,17.8027344 11.9319671,17.9383124 11.7451172,18.2094727 C11.5582673,18.4806329 11.4648438,18.8771133 11.4648438,19.3989258 L11.4648438,19.6245117 C11.4648438,19.8842786 11.4893389,20.1138499 11.5383301,20.3132324 C11.5873212,20.5126149 11.6579585,20.6800937 11.7502441,20.8156738 C11.8425298,20.9512539 11.9558913,21.053792 12.090332,21.123291 C12.2247728,21.1927901 12.3785799,21.2275391 12.5517578,21.2275391 C12.8981137,21.2275391 13.1635733,21.0908217 13.3481445,20.8173828 C13.5327158,20.5439439 13.625,20.1463242 13.625,19.6245117 L13.625,19.3989258 Z M17.1728516,20.7661133 L18.3007812,17.0234375 L19.4423828,17.0234375 L17.7094727,22 L16.6396484,22 L14.9135742,17.0234375 L16.0517578,17.0234375 L17.1728516,20.7661133 Z" id="mp3" fill-opacity="0.87" fill="#FFFFFF" sketch:type="MSShapeGroup"></path>
            </g>
        </g>
    </g>
</svg>