<?xml version="1.0" encoding="UTF-8" standalone="no"?>
<svg width="24px" height="24px" viewBox="0 0 24 24" version="1.1" xmlns="http://www.w3.org/2000/svg" xmlns:xlink="http://www.w3.org/1999/xlink" xmlns:sketch="http://www.bohemiancoding.com/sketch/ns">
    <!-- Generator: Sketch 3.3.3 (12081) - http://www.bohemiancoding.com/sketch -->
    <title>ic_list_pdf</title>
    <desc>Created with Sketch.</desc>
    <defs></defs>
    <g id="UI" stroke="none" stroke-width="1" fill="none" fill-rule="evenodd" sketch:type="MSPage">
        <g id="assets" sketch:type="MSArtboardGroup" transform="translate(-77.000000, -195.000000)">
            <g id="ic_list_pdf" sketch:type="MSLayerGroup" transform="translate(77.000000, 195.000000)">
                <rect id="bounds" sketch:type="MSShapeGroup" x="0" y="0" width="24" height="24"></rect>
                <path d="M3.60355442,23 L3.60355442,23 L19.3964456,23 C19.7278522,23 20,22.7284426 20,22.3973836 L20,5.57787152 L20.3375829,6.32700673 L14.0295032,0.749135212 L14.6919203,1 L3.60744048,1 C3.26946656,1 3,1.26720273 3,1.59329362 L3,22.4067064 C3,22.7301845 3.27097392,23 3.60355442,23 L3.60355442,23 Z M3.60355442,24 C2.71793577,24 2,23.2817277 2,22.4067064 L2,1.59329362 C2,0.713341853 2.71873759,0 3.60744048,0 L14.6919203,0 L21,5.57787152 L21,22.3973836 C21,23.2824842 20.2783785,24 19.3964456,24 L3.60355442,24 L3.60355442,24 Z" id="Shape" fill="#8F8F8F" sketch:type="MSShapeGroup"></path>
                <path d="M6.5,9 L16.5,9 C16.7761424,9 17,8.77614237 17,8.5 C17,8.22385763 16.7761424,8 16.5,8 L6.5,8 C6.22385763,8 6,8.22385763 6,8.5 C6,8.77614237 6.22385763,9 6.5,9 L6.5,9 Z" id="Shape" fill="#8F8F8F" sketch:type="MSShapeGroup"></path>
                <path d="M6.5,12 L16.5,12 C16.7761424,12 17,11.7761424 17,11.5 C17,11.2238576 16.7761424,11 16.5,11 L6.5,11 C6.22385763,11 6,11.2238576 6,11.5 C6,11.7761424 6.22385763,12 6.5,12 L6.5,12 Z" id="Shape" fill="#8F8F8F" sketch:type="MSShapeGroup"></path>
                <rect id="Rectangle-179" fill="#8F8F8F" sketch:type="MSShapeGroup" x="0" y="14" width="24" height="10" rx="2"></rect>
                <path d="M5.6796875,19.9960938 L5.6796875,22 L4.5078125,22 L4.5078125,16.3125 L6.7265625,16.3125 C7.06250168,16.3125 7.36262889,16.3593745 7.62695312,16.453125 C7.89127736,16.5468755 8.11523346,16.6777335 8.29882812,16.8457031 C8.48242279,17.0136727 8.62239535,17.2128895 8.71875,17.4433594 C8.81510465,17.6738293 8.86328125,17.9244778 8.86328125,18.1953125 C8.86328125,18.4713555 8.81510465,18.720051 8.71875,18.9414062 C8.62239535,19.1627615 8.48242279,19.3515617 8.29882812,19.5078125 C8.11523346,19.6640633 7.89127736,19.7845048 7.62695312,19.8691406 C7.36262889,19.9537765 7.06250168,19.9960938 6.7265625,19.9960938 L5.6796875,19.9960938 Z M5.6796875,19.046875 L6.7265625,19.046875 C6.89323,19.046875 7.03710877,19.0260419 7.15820312,18.984375 C7.27929748,18.9427081 7.37825482,18.884766 7.45507812,18.8105469 C7.53190143,18.7363278 7.58854148,18.6471359 7.625,18.5429688 C7.66145852,18.4388016 7.6796875,18.3255214 7.6796875,18.203125 C7.6796875,18.0807286 7.66145852,17.9628912 7.625,17.8496094 C7.58854148,17.7363276 7.53190143,17.6360681 7.45507812,17.5488281 C7.37825482,17.4615881 7.27929748,17.3919273 7.15820312,17.3398438 C7.03710877,17.2877602 6.89323,17.2617188 6.7265625,17.2617188 L5.6796875,17.2617188 L5.6796875,19.046875 Z M9.66796875,22 L9.66796875,16.3125 L11.4179688,16.3125 C11.8007832,16.3125 12.1516911,16.3782546 12.4707031,16.5097656 C12.7897151,16.6412767 13.0631499,16.8261707 13.2910156,17.0644531 C13.5188813,17.3027356 13.6966139,17.58854 13.8242188,17.921875 C13.9518236,18.25521 14.015625,18.624998 14.015625,19.03125 L14.015625,19.2890625 C14.015625,19.6953145 13.9524746,20.0644515 13.8261719,20.3964844 C13.6998692,20.7285173 13.5214855,21.0136707 13.2910156,21.2519531 C13.0605457,21.4902356 12.7851579,21.6744785 12.4648438,21.8046875 C12.1445296,21.9348965 11.7916686,22 11.40625,22 L9.66796875,22 Z M10.8398438,17.2617188 L10.8398438,21.0585938 L11.40625,21.0585938 C11.869794,21.0585938 12.222655,20.9056005 12.4648438,20.5996094 C12.7070325,20.2936183 12.828125,19.8567737 12.828125,19.2890625 L12.828125,19.0234375 C12.828125,18.4453096 12.7083345,18.0071629 12.46875,17.7089844 C12.2291655,17.4108058 11.8789086,17.2617188 11.4179688,17.2617188 L10.8398438,17.2617188 Z M18.2890625,19.6757812 L16.0390625,19.6757812 L16.0390625,22 L14.8671875,22 L14.8671875,16.3125 L18.5703125,16.3125 L18.5703125,17.2617188 L16.0390625,17.2617188 L16.0390625,18.7304688 L18.2890625,18.7304688 L18.2890625,19.6757812 Z" id="PDF" fill-opacity="0.87" fill="#FFFFFF" sketch:type="MSShapeGroup"></path>
            </g>
        </g>
    </g>
</svg>