<?xml version="1.0" encoding="UTF-8" standalone="no"?>
<svg width="24px" height="24px" viewBox="0 0 24 24" version="1.1" xmlns="http://www.w3.org/2000/svg" xmlns:xlink="http://www.w3.org/1999/xlink" xmlns:sketch="http://www.bohemiancoding.com/sketch/ns">
    <!-- Generator: Sketch 3.3.3 (12081) - http://www.bohemiancoding.com/sketch -->
    <title>ic_list_video</title>
    <desc>Created with Sketch.</desc>
    <defs></defs>
    <g id="UI" stroke="none" stroke-width="1" fill="none" fill-rule="evenodd" sketch:type="MSPage">
        <g id="assets" sketch:type="MSArtboardGroup" transform="translate(-559.000000, -225.000000)">
            <g id="ic_list_video" sketch:type="MSLayerGroup" transform="translate(559.000000, 225.000000)">
                <rect id="bounds" sketch:type="MSShapeGroup" x="0" y="0" width="24" height="24"></rect>
                <path d="M3.60355442,23 L3.60355442,23 L19.3964456,23 C19.7278522,23 20,22.7284426 20,22.3973836 L20,5.57787152 L20.3375829,6.32700673 L14.0295032,0.749135212 L14.6919203,1 L3.60744048,1 C3.26946656,1 3,1.26720273 3,1.59329362 L3,22.4067064 C3,22.7301845 3.27097392,23 3.60355442,23 L3.60355442,23 Z M3.60355442,24 C2.71793577,24 2,23.2817277 2,22.4067064 L2,1.59329362 C2,0.713341853 2.71873759,0 3.60744048,0 L14.6919203,0 L21,5.57787152 L21,22.3973836 C21,23.2824842 20.2783785,24 19.3964456,24 L3.60355442,24 L3.60355442,24 Z" id="Shape" fill="#8F8F8F" sketch:type="MSShapeGroup"></path>
                <rect id="Rectangle-179" fill="#8F8F8F" sketch:type="MSShapeGroup" x="0" y="14" width="24" height="10" rx="1"></rect>
                <path d="M6,4.99703014 C6,4.4463856 6.4556644,4 6.99539757,4 L15.0046024,4 C15.5543453,4 16,4.45303631 16,4.99703014 L16,11.0029699 C16,11.5536144 15.5443356,12 15.0046024,12 L6.99539757,12 C6.44565467,12 6,11.5469637 6,11.0029699 L6,4.99703014 Z M13,8 L9,6 L9,10 L13,8 Z" id="Rectangle-92" fill="#8F8F8F" sketch:type="MSShapeGroup"></path>
                <path d="M4.28320312,20.7661133 L5.41113281,17.0234375 L6.55273438,17.0234375 L4.81982422,22 L3.75,22 L2.02392578,17.0234375 L3.16210938,17.0234375 L4.28320312,20.7661133 Z M8.11132812,22 L7.0859375,22 L7.0859375,17.0234375 L8.11132812,17.0234375 L8.11132812,22 Z M9.06152344,22 L9.06152344,17.0234375 L10.5927734,17.0234375 C10.927736,17.0234375 11.2347805,17.0809727 11.513916,17.1960449 C11.7930515,17.3111171 12.0323069,17.4728993 12.2316895,17.6813965 C12.431072,17.8898936 12.586588,18.1399725 12.6982422,18.4316406 C12.8098964,18.7233088 12.8657227,19.0468732 12.8657227,19.4023438 L12.8657227,19.6279297 C12.8657227,19.9834002 12.810466,20.306395 12.6999512,20.5969238 C12.5894363,20.8874526 12.4333506,21.1369618 12.2316895,21.345459 C12.0300283,21.5539561 11.7890639,21.7151687 11.5087891,21.8291016 C11.2285142,21.9430344 10.9197608,22 10.5825195,22 L9.06152344,22 Z M10.0869141,17.8540039 L10.0869141,21.1762695 L10.5825195,21.1762695 C10.9881205,21.1762695 11.2968739,21.0424004 11.5087891,20.7746582 C11.7207042,20.506916 11.8266602,20.124677 11.8266602,19.6279297 L11.8266602,19.3955078 C11.8266602,18.8896459 11.7218435,18.5062676 11.512207,18.2453613 C11.3025706,17.9844551 10.9960958,17.8540039 10.5927734,17.8540039 L10.0869141,17.8540039 Z M16.6049805,19.8432617 L14.6362305,19.8432617 L14.6362305,21.1762695 L16.9467773,21.1762695 L16.9467773,22 L13.6108398,22 L13.6108398,17.0234375 L16.9399414,17.0234375 L16.9399414,17.8540039 L14.6362305,17.8540039 L14.6362305,19.0400391 L16.6049805,19.0400391 L16.6049805,19.8432617 Z M21.6362305,19.6245117 C21.6362305,20.0050475 21.5849615,20.3462713 21.4824219,20.6481934 C21.3798823,20.9501154 21.2357594,21.2058909 21.0500488,21.4155273 C20.8643383,21.6251638 20.6416029,21.7863764 20.3818359,21.8991699 C20.122069,22.0119635 19.8361018,22.0683594 19.5239258,22.0683594 C19.2117497,22.0683594 18.9257825,22.0119635 18.6660156,21.8991699 C18.4062487,21.7863764 18.182374,21.6251638 17.9943848,21.4155273 C17.8063955,21.2058909 17.659994,20.9501154 17.5551758,20.6481934 C17.4503575,20.3462713 17.3979492,20.0050475 17.3979492,19.6245117 L17.3979492,19.4057617 C17.3979492,19.0275046 17.4497879,18.6868505 17.5534668,18.3837891 C17.6571457,18.0807277 17.8024079,17.8232432 17.9892578,17.6113281 C18.1761077,17.399413 18.3994128,17.2370611 18.6591797,17.1242676 C18.9189466,17.011474 19.2049138,16.9550781 19.5170898,16.9550781 C19.8292659,16.9550781 20.1152331,17.011474 20.375,17.1242676 C20.6347669,17.2370611 20.858072,17.399413 21.0449219,17.6113281 C21.2317718,17.8232432 21.377034,18.0807277 21.4807129,18.3837891 C21.5843918,18.6868505 21.6362305,19.0275046 21.6362305,19.4057617 L21.6362305,19.6245117 Z M20.597168,19.3989258 C20.597168,18.8771133 20.5037444,18.4806329 20.3168945,18.2094727 C20.1300446,17.9383124 19.8634457,17.8027344 19.5170898,17.8027344 C19.1707339,17.8027344 18.904135,17.9383124 18.7172852,18.2094727 C18.5304353,18.4806329 18.4370117,18.8771133 18.4370117,19.3989258 L18.4370117,19.6245117 C18.4370117,19.8842786 18.4615069,20.1138499 18.510498,20.3132324 C18.5594892,20.5126149 18.6301265,20.6800937 18.7224121,20.8156738 C18.8146977,20.9512539 18.9280592,21.053792 19.0625,21.123291 C19.1969408,21.1927901 19.3507478,21.2275391 19.5239258,21.2275391 C19.8702817,21.2275391 20.1357413,21.0908217 20.3203125,20.8173828 C20.5048837,20.5439439 20.597168,20.1463242 20.597168,19.6245117 L20.597168,19.3989258 Z" id="mp3" fill-opacity="0.87" fill="#FFFFFF" sketch:type="MSShapeGroup"></path>
            </g>
        </g>
    </g>
</svg>