<?xml version="1.0" encoding="UTF-8" standalone="no"?>
<svg width="24px" height="24px" viewBox="0 0 24 24" version="1.1" xmlns="http://www.w3.org/2000/svg" xmlns:xlink="http://www.w3.org/1999/xlink" xmlns:sketch="http://www.bohemiancoding.com/sketch/ns">
    <!-- Generator: Sketch 3.3.3 (12081) - http://www.bohemiancoding.com/sketch -->
    <title>ic_list_html</title>
    <desc>Created with Sketch.</desc>
    <defs></defs>
    <g id="UI" stroke="none" stroke-width="1" fill="none" fill-rule="evenodd" sketch:type="MSPage">
        <g id="assets" sketch:type="MSArtboardGroup" transform="translate(-212.000000, -225.000000)">
            <g id="ic_list_html" sketch:type="MSLayerGroup" transform="translate(212.000000, 225.000000)">
                <rect id="bounds" sketch:type="MSShapeGroup" x="0" y="0" width="24" height="24"></rect>
                <path d="M3.60355442,23 L3.60355442,23 L19.3964456,23 C19.7278522,23 20,22.7284426 20,22.3973836 L20,5.57787152 L20.3375829,6.32700673 L14.0295032,0.749135212 L14.6919203,1 L3.60744048,1 C3.26946656,1 3,1.26720273 3,1.59329362 L3,22.4067064 C3,22.7301845 3.27097392,23 3.60355442,23 L3.60355442,23 Z M3.60355442,24 C2.71793577,24 2,23.2817277 2,22.4067064 L2,1.59329362 C2,0.713341853 2.71873759,0 3.60744048,0 L14.6919203,0 L21,5.57787152 L21,22.3973836 C21,23.2824842 20.2783785,24 19.3964456,24 L3.60355442,24 L3.60355442,24 Z" id="Shape" fill="#8F8F8F" sketch:type="MSShapeGroup"></path>
                <rect id="Rectangle-179" fill="#8F8F8F" sketch:type="MSShapeGroup" x="0" y="14" width="24" height="10" rx="2"></rect>
                <path d="M9.04643262,13 C8.6576047,12.9012088 8.33295713,12.7717603 8.07248018,12.6116505 C7.81200323,12.4515407 7.6024923,12.2684391 7.44394111,12.0623403 C7.28538992,11.8562415 7.17308451,11.6314098 7.10702152,11.3878385 C7.04095852,11.1442672 7.00792752,10.887925 7.00792752,10.6188043 L7.00792752,9.5815023 C7.00792752,9.26128268 6.92865311,9.00579213 6.77010193,8.81502299 C6.61155074,8.62425386 6.35485266,8.52887072 6,8.52887072 L6,7.47112928 C6.17742633,7.47112928 6.33031268,7.44643186 6.45866365,7.39703628 C6.58701461,7.3476407 6.69177007,7.27695498 6.77293318,7.18497701 C6.85409629,7.09299903 6.9135521,6.98228646 6.95130238,6.85283597 C6.98905266,6.72338549 7.00792752,6.57690424 7.00792752,6.41338784 L7.00792752,5.37608585 C7.00792752,5.1069651 7.04095852,4.85062292 7.10702152,4.60705161 C7.17308451,4.3634803 7.28538992,4.13864862 7.44394111,3.93254982 C7.6024923,3.72645102 7.81200323,3.5442011 8.07248018,3.38579458 C8.33295713,3.22738807 8.6576047,3.09879116 9.04643262,3 L9.36353341,3.82268779 C9.18988211,3.88059985 9.04643318,3.95980192 8.93318233,4.06029637 C8.81993148,4.16079083 8.72933216,4.27831648 8.66138165,4.41287685 C8.59343114,4.54743723 8.546244,4.69647338 8.5198188,4.85998978 C8.4933936,5.02350618 8.4801812,5.19553648 8.4801812,5.37608585 L8.4801812,6.41338784 C8.4801812,6.75404701 8.39996305,7.06233894 8.23952435,7.33827287 C8.07908565,7.6142068 7.82144383,7.83392867 7.46659117,7.99744507 C7.8176688,8.16096147 8.07436687,8.38153498 8.23669309,8.6591722 C8.39901931,8.93680943 8.4801812,9.24424972 8.4801812,9.5815023 L8.4801812,10.6188043 C8.4801812,10.7993537 8.4933936,10.971384 8.5198188,11.1349004 C8.546244,11.2984168 8.59343114,11.4474529 8.66138165,11.5820133 C8.72933216,11.7165737 8.81993148,11.8349509 8.93318233,11.9371487 C9.04643318,12.0393464 9.18988211,12.1176969 9.36353341,12.1722024 L9.04643262,13 Z M12.6364666,12.1722024 C12.8063429,12.1176969 12.9479043,12.0393464 13.0611552,11.9371487 C13.174406,11.8349509 13.2650053,11.7165737 13.3329558,11.5820133 C13.4009063,11.4474529 13.4490372,11.2984168 13.4773499,11.1349004 C13.5056627,10.971384 13.5198188,10.7993537 13.5198188,10.6188043 L13.5198188,9.5815023 C13.5198188,9.41117271 13.5396374,9.24765876 13.5792752,9.09095554 C13.618913,8.93425232 13.6812,8.78777108 13.7661382,8.65150741 C13.8510763,8.51524374 13.958663,8.39260828 14.0889015,8.28359734 C14.2191399,8.17458641 14.3748575,8.08090654 14.5560589,8.00255493 C14.1936562,7.84585171 13.9303519,7.62783311 13.7661382,7.34849259 C13.6019244,7.06915207 13.5198188,6.7574536 13.5198188,6.41338784 L13.5198188,5.37608585 C13.5198188,5.19553648 13.5056627,5.02350618 13.4773499,4.85998978 C13.4490372,4.69647338 13.4009063,4.54743723 13.3329558,4.41287685 C13.2650053,4.27831648 13.174406,4.16079083 13.0611552,4.06029637 C12.9479043,3.95980192 12.8063429,3.88059985 12.6364666,3.82268779 L12.9535674,3 C13.3423953,3.09879116 13.6670429,3.22738807 13.9275198,3.38579458 C14.1879968,3.5442011 14.3975077,3.72645102 14.5560589,3.93254982 C14.7146101,4.13864862 14.8269155,4.3634803 14.8929785,4.60705161 C14.9590415,4.85062292 14.9920725,5.1069651 14.9920725,5.37608585 L14.9920725,6.41338784 C14.9920725,6.57690424 15.0109473,6.72338549 15.0486976,6.85283597 C15.0864479,6.98228646 15.1459037,7.09299903 15.2270668,7.18497701 C15.3082299,7.27695498 15.4129854,7.3476407 15.5413364,7.39703628 C15.6696873,7.44643186 15.8225737,7.47112928 16,7.47112928 L16,8.52887072 C15.8225737,8.52887072 15.6696873,8.55356814 15.5413364,8.60296372 C15.4129854,8.6523593 15.3082299,8.72304502 15.2270668,8.81502299 C15.1459037,8.90700097 15.0864479,9.01771354 15.0486976,9.14716403 C15.0109473,9.27661451 14.9920725,9.42139249 14.9920725,9.5815023 L14.9920725,10.6188043 C14.9920725,10.887925 14.9590415,11.1442672 14.8929785,11.3878385 C14.8269155,11.6314098 14.7146101,11.8562415 14.5560589,12.0623403 C14.3975077,12.2684391 14.1879968,12.4515407 13.9275198,12.6116505 C13.6670429,12.7717603 13.3423953,12.9012088 12.9535674,13 L12.6364666,12.1722024 Z" id="{-}" fill="#8F8F8F" sketch:type="MSShapeGroup"></path>
                <path d="M5.53515625,18.234375 C5.67578195,18.0651033 5.84049385,17.9329432 6.02929688,17.8378906 C6.2180999,17.7428381 6.42968633,17.6953125 6.6640625,17.6953125 C6.87239687,17.6953125 7.06249914,17.7246091 7.234375,17.7832031 C7.40625086,17.8417972 7.5533848,17.9368483 7.67578125,18.0683594 C7.7981777,18.1998704 7.89257779,18.3697906 7.95898438,18.578125 C8.02539096,18.7864594 8.05859375,19.039061 8.05859375,19.3359375 L8.05859375,22 L6.9296875,22 L6.9296875,19.328125 C6.9296875,19.1927077 6.91471369,19.0794275 6.88476562,18.9882812 C6.85481756,18.897135 6.8111982,18.823568 6.75390625,18.7675781 C6.6966143,18.7115883 6.62565146,18.6718751 6.54101562,18.6484375 C6.45637979,18.6249999 6.36067762,18.6132812 6.25390625,18.6132812 C6.07682203,18.6132812 5.92968809,18.6477861 5.8125,18.7167969 C5.69531191,18.7858076 5.60286492,18.8789057 5.53515625,18.9960938 L5.53515625,22 L4.40625,22 L4.40625,16 L5.53515625,16 L5.53515625,18.234375 Z M10.2617188,16.734375 L10.2617188,17.7734375 L10.984375,17.7734375 L10.984375,18.6015625 L10.2617188,18.6015625 L10.2617188,20.7109375 C10.2617188,20.7994796 10.2708332,20.8723955 10.2890625,20.9296875 C10.3072918,20.9869795 10.3346352,21.0319009 10.3710938,21.0644531 C10.4075523,21.0970054 10.4524737,21.1191406 10.5058594,21.1308594 C10.5592451,21.1425782 10.6223955,21.1484375 10.6953125,21.1484375 C10.7630212,21.1484375 10.8248695,21.1458334 10.8808594,21.140625 C10.9368492,21.1354166 10.9856769,21.1289063 11.0273438,21.1210938 L11.0273438,21.9765625 C10.9335933,22.0052085 10.8313808,22.0292968 10.7207031,22.0488281 C10.6100255,22.0683595 10.4843757,22.078125 10.34375,22.078125 C10.1588532,22.078125 9.99218824,22.0553388 9.84375,22.0097656 C9.69531176,21.9641925 9.5683599,21.8919276 9.46289062,21.7929688 C9.35742135,21.6940099 9.27604195,21.565105 9.21875,21.40625 C9.16145805,21.247395 9.1328125,21.0559907 9.1328125,20.8320312 L9.1328125,18.6015625 L8.515625,18.6015625 L8.515625,17.7734375 L9.1328125,17.7734375 L9.1328125,16.734375 L10.2617188,16.734375 Z M12.671875,17.7734375 L12.7070312,18.2460938 C12.847657,18.0742179 13.0188792,17.9394536 13.2207031,17.8417969 C13.4225271,17.7441401 13.6562487,17.6953125 13.921875,17.6953125 C14.1744804,17.6953125 14.3977855,17.7460932 14.5917969,17.8476562 C14.7858083,17.9492193 14.9361974,18.1132801 15.0429688,18.3398438 C15.1809903,18.1393219 15.3548167,17.9817714 15.5644531,17.8671875 C15.7740896,17.7526036 16.0234361,17.6953125 16.3125,17.6953125 C16.5182302,17.6953125 16.7050773,17.723958 16.8730469,17.78125 C17.0410165,17.838542 17.1842442,17.9309889 17.3027344,18.0585938 C17.4212246,18.1861986 17.5123695,18.3522125 17.5761719,18.5566406 C17.6399743,18.7610687 17.671875,19.0117173 17.671875,19.3085938 L17.671875,22 L16.5390625,22 L16.5390625,19.3085938 C16.5390625,19.167968 16.5240887,19.0520838 16.4941406,18.9609375 C16.4641926,18.8697912 16.4218753,18.7988284 16.3671875,18.7480469 C16.3124997,18.6972654 16.2460941,18.6621095 16.1679688,18.6425781 C16.0898434,18.6230468 16.0013026,18.6132812 15.9023438,18.6132812 C15.7278637,18.6132812 15.5820318,18.6569006 15.4648438,18.7441406 C15.3476557,18.8313806 15.2591149,18.949218 15.1992188,19.0976562 C15.1992188,19.1106771 15.1998698,19.1249999 15.2011719,19.140625 C15.202474,19.1562501 15.203125,19.1705729 15.203125,19.1835938 L15.203125,22 L14.0742188,22 L14.0742188,19.3164062 C14.0742188,19.1757805 14.059896,19.0598963 14.03125,18.96875 C14.002604,18.8776037 13.9609378,18.8059898 13.90625,18.7539062 C13.8515622,18.7018227 13.7845056,18.6653647 13.7050781,18.6445312 C13.6256506,18.6236978 13.5364588,18.6132812 13.4375,18.6132812 C13.2708325,18.6132812 13.1302089,18.6484371 13.015625,18.71875 C12.9010411,18.7890629 12.8098962,18.8867181 12.7421875,19.0117188 L12.7421875,22 L11.6132812,22 L11.6132812,17.7734375 L12.671875,17.7734375 Z M19.7304688,22 L18.5976562,22 L18.5976562,16 L19.7304688,16 L19.7304688,22 Z" id="html" fill-opacity="0.87" fill="#FFFFFF" sketch:type="MSShapeGroup"></path>
            </g>
        </g>
    </g>
</svg>